  0
SECTION
  2
HEADER
  9
$ACADVER
  1
AC1014
  9
$HANDSEED
  5
FFFF
  9
$MEASUREMENT
 70
     1
  0
ENDSEC
  0
SECTION
  2
TABLES
  0
TABLE
  2
VPORT
  5
8
330
0
100
AcDbSymbolTable
 70
     4
  0
VPORT
  5
2E
330
8
100
AcDbSymbolTableRecord
100
AcDbViewportTableRecord
  2
*ACTIVE
 70
     0
 10
0.0
 20
0.0
 11
1.0
 21
1.0
 12
210.0
 22
148.5
 13
0.0
 23
0.0
 14
10.0
 24
10.0
 15
10.0
 25
10.0
 16
0.0
 26
0.0
 36
1.0
 17
0.0
 27
0.0
 37
0.0
 40
341.0
 41
1.24
 42
50.0
 43
0.0
 44
0.0
 50
0.0
 51
0.0
 71
     0
 72
   100
 73
     1
 74
     3
 75
     0
 76
     0
 77
     0
 78
     0
  0
ENDTAB
  0
TABLE
  2
LTYPE
  5
5
330
0
100
AcDbSymbolTable
 70
     1
  0
LTYPE
  5
14
330
5
100
AcDbSymbolTableRecord
100
AcDbLinetypeTableRecord
  2
BYBLOCK
 70
     0
  3

 72
    65
 73
     0
 40
0.0
  0
LTYPE
  5
15
330
5
100
AcDbSymbolTableRecord
100
AcDbLinetypeTableRecord
  2
BYLAYER
 70
     0
  3

 72
    65
 73
     0
 40
0.0
  0
LTYPE
  5
16
330
5
100
AcDbSymbolTableRecord
100
AcDbLinetypeTableRecord
  2
CONTINUOUS
 70
     0
  3
Solid line
 72
    65
 73
     0
 40
0.0
  0
ENDTAB
  0
TABLE
  2
LAYER
  5
2
100
AcDbSymbolTable
 70
1
  0
LAYER
  5
50
100
AcDbSymbolTableRecord
100
AcDbLayerTableRecord
  2
0
 70
0
  6
CONTINUOUS
  0
ENDTAB
  0
TABLE
  2
STYLE
  5
3
330
0
100
AcDbSymbolTable
 70
     1
  0
STYLE
  5
11
330
3
100
AcDbSymbolTableRecord
100
AcDbTextStyleTableRecord
  2
STANDARD
 70
     0
 40
0.0
 41
1.0
 50
0.0
 71
     0
 42
2.5
  3
txt
  4

  0
ENDTAB
  0
TABLE
  2
VIEW
  5
6
330
0
100
AcDbSymbolTable
 70
     0
  0
ENDTAB
  0
TABLE
  2
UCS
  5
7
330
0
100
AcDbSymbolTable
 70
     0
  0
ENDTAB
  0
TABLE
  2
APPID
  5
9
330
0
100
AcDbSymbolTable
 70
     2
  0
APPID
  5
12
330
9
100
AcDbSymbolTableRecord
100
AcDbRegAppTableRecord
  2
ACAD
 70
     0
  0
ENDTAB
  0
TABLE
  2
DIMSTYLE
  5
A
330
0
100
AcDbSymbolTable
 70
     1
  0
DIMSTYLE
105
27
330
A
100
AcDbSymbolTableRecord
100
AcDbDimStyleTableRecord
  2
ISO-25
 70
     0
  3

  4

  5

  6

  7

 40
1.0
 41
2.5
 42
0.625
 43
3.75
 44
1.25
 45
0.0
 46
0.0
 47
0.0
 48
0.0
140
2.5
141
2.5
142
0.0
143
0.03937007874016
144
1.0
145
0.0
146
1.0
147
0.625
 71
     0
 72
     0
 73
     0
 74
     0
 75
     0
 76
     0
 77
     1
 78
     8
170
     0
171
     3
172
     1
173
     0
174
     0
175
     0
176
     0
177
     0
178
     0
270
     2
271
     2
272
     2
273
     2
274
     3
340
11
275
     0
280
     0
281
     0
282
     0
283
     0
284
     8
285
     0
286
     0
287
     3
288
     0
  0
ENDTAB
  0
TABLE
  2
BLOCK_RECORD
  5
1
330
0
100
AcDbSymbolTable
 70
     1
  0
BLOCK_RECORD
  5
1F
330
1
100
AcDbSymbolTableRecord
100
AcDbBlockTableRecord
  2
*MODEL_SPACE
  0
BLOCK_RECORD
  5
1B
330
1
100
AcDbSymbolTableRecord
100
AcDbBlockTableRecord
  2
*PAPER_SPACE
  0
ENDTAB
  0
ENDSEC
  0
SECTION
  2
BLOCKS
  0
BLOCK
  5
20
330
1F
100
AcDbEntity
  8
0
100
AcDbBlockBegin
  2
*MODEL_SPACE
 70
     0
 10
0.0
 20
0.0
 30
0.0
  3
*MODEL_SPACE
  1

  0
ENDBLK
  5
21
330
1F
100
AcDbEntity
  8
0
100
AcDbBlockEnd
  0
BLOCK
  5
1C
330
1B
100
AcDbEntity
 67
     1
  8
0
100
AcDbBlockBegin
  2
*PAPER_SPACE
  1

  0
ENDBLK
  5
1D
330
1B
100
AcDbEntity
 67
     1
  8
0
100
AcDbBlockEnd
  0
ENDSEC
  0
SECTION
  2
ENTITIES
  0
LWPOLYLINE
  5
100
100
AcDbEntity
  8
0
 62
7
100
AcDbPolyline
 90
9
 70
0
 10
6.766939
 20
8.650028
 30
0.0
 10
6.766939
 20
277.600018
 30
0.0
 10
522.266926
 20
277.600018
 30
0.0
 10
522.266926
 20
8.650028
 30
0.0
 10
486.216932
 20
8.650028
 30
0.0
 10
486.216932
 20
4.600026
 30
0.0
 10
42.816938
 20
4.600026
 30
0.0
 10
42.816938
 20
8.650028
 30
0.0
 10
6.766939
 20
8.650028
 30
0.0
  0
LWPOLYLINE
  5
101
100
AcDbEntity
  8
0
 62
7
100
AcDbPolyline
 90
21
 70
0
 10
8.316940
 20
28.600034
 30
0.0
 10
8.387939
 20
29.050038
 30
0.0
 10
8.593938
 20
29.450031
 30
0.0
 10
8.914938
 20
29.770043
 30
0.0
 10
9.318939
 20
29.980016
 30
0.0
 10
9.766939
 20
30.050036
 30
0.0
 10
10.214938
 20
29.980016
 30
0.0
 10
10.618939
 20
29.770043
 30
0.0
 10
10.939939
 20
29.450031
 30
0.0
 10
11.145939
 20
29.050038
 30
0.0
 10
11.216940
 20
28.600034
 30
0.0
 10
11.145939
 20
28.150031
 30
0.0
 10
10.939939
 20
27.750038
 30
0.0
 10
10.618939
 20
27.430026
 30
0.0
 10
10.214938
 20
27.220024
 30
0.0
 10
9.766939
 20
27.150033
 30
0.0
 10
9.318939
 20
27.220024
 30
0.0
 10
8.914938
 20
27.430026
 30
0.0
 10
8.593938
 20
27.750038
 30
0.0
 10
8.387939
 20
28.150031
 30
0.0
 10
8.316940
 20
28.600034
 30
0.0
  0
LWPOLYLINE
  5
102
100
AcDbEntity
  8
0
 62
7
100
AcDbPolyline
 90
21
 70
0
 10
8.316940
 20
138.100030
 30
0.0
 10
8.387939
 20
138.550033
 30
0.0
 10
8.593938
 20
138.950027
 30
0.0
 10
8.914938
 20
139.270039
 30
0.0
 10
9.318939
 20
139.480040
 30
0.0
 10
9.766939
 20
139.550031
 30
0.0
 10
10.214938
 20
139.480040
 30
0.0
 10
10.618939
 20
139.270039
 30
0.0
 10
10.939939
 20
138.950027
 30
0.0
 10
11.145939
 20
138.550033
 30
0.0
 10
11.216940
 20
138.100030
 30
0.0
 10
11.145939
 20
137.650027
 30
0.0
 10
10.939939
 20
137.250033
 30
0.0
 10
10.618939
 20
136.930021
 30
0.0
 10
10.214938
 20
136.720020
 30
0.0
 10
9.766939
 20
136.650029
 30
0.0
 10
9.318939
 20
136.720020
 30
0.0
 10
8.914938
 20
136.930021
 30
0.0
 10
8.593938
 20
137.250033
 30
0.0
 10
8.387939
 20
137.650027
 30
0.0
 10
8.316940
 20
138.100030
 30
0.0
  0
LWPOLYLINE
  5
103
100
AcDbEntity
  8
0
 62
7
100
AcDbPolyline
 90
21
 70
0
 10
8.316940
 20
247.600023
 30
0.0
 10
8.387939
 20
248.050026
 30
0.0
 10
8.593938
 20
248.450019
 30
0.0
 10
8.914938
 20
248.770031
 30
0.0
 10
9.318939
 20
248.980033
 30
0.0
 10
9.766939
 20
249.050024
 30
0.0
 10
10.214938
 20
248.980033
 30
0.0
 10
10.618939
 20
248.770031
 30
0.0
 10
10.939939
 20
248.450019
 30
0.0
 10
11.145939
 20
248.050026
 30
0.0
 10
11.216940
 20
247.600023
 30
0.0
 10
11.145939
 20
247.150019
 30
0.0
 10
10.939939
 20
246.750026
 30
0.0
 10
10.618939
 20
246.430042
 30
0.0
 10
10.214938
 20
246.220041
 30
0.0
 10
9.766939
 20
246.150021
 30
0.0
 10
9.318939
 20
246.220041
 30
0.0
 10
8.914938
 20
246.430042
 30
0.0
 10
8.593938
 20
246.750026
 30
0.0
 10
8.387939
 20
247.150019
 30
0.0
 10
8.316940
 20
247.600023
 30
0.0
  0
LWPOLYLINE
  5
104
100
AcDbEntity
  8
0
 62
7
100
AcDbPolyline
 90
23
 70
0
 10
29.034938
 20
13.100023
 30
0.0
 10
29.034938
 20
16.100017
 30
0.0
 10
29.174940
 20
16.580021
 30
0.0
 10
29.443940
 20
17.000024
 30
0.0
 10
29.820938
 20
17.320036
 30
0.0
 10
30.273938
 20
17.530037
 30
0.0
 10
30.766938
 20
17.600028
 30
0.0
 10
31.259938
 20
17.530037
 30
0.0
 10
31.712939
 20
17.320036
 30
0.0
 10
32.089939
 20
17.000024
 30
0.0
 10
32.358940
 20
16.580021
 30
0.0
 10
32.498939
 20
16.100017
 30
0.0
 10
32.498939
 20
13.100023
 30
0.0
 10
32.358940
 20
12.620020
 30
0.0
 10
32.089939
 20
12.200016
 30
0.0
 10
31.712939
 20
11.880033
 30
0.0
 10
31.259938
 20
11.670031
 30
0.0
 10
30.766938
 20
11.600040
 30
0.0
 10
30.273938
 20
11.670031
 30
0.0
 10
29.820938
 20
11.880033
 30
0.0
 10
29.443940
 20
12.200016
 30
0.0
 10
29.174940
 20
12.620020
 30
0.0
 10
29.034938
 20
13.100023
 30
0.0
  0
LWPOLYLINE
  5
105
100
AcDbEntity
  8
0
 62
7
100
AcDbPolyline
 90
21
 70
0
 10
35.316939
 20
274.600024
 30
0.0
 10
35.387938
 20
275.050027
 30
0.0
 10
35.593937
 20
275.450021
 30
0.0
 10
35.914940
 20
275.770033
 30
0.0
 10
36.318938
 20
275.980034
 30
0.0
 10
36.766937
 20
276.050025
 30
0.0
 10
37.214940
 20
275.980034
 30
0.0
 10
37.618938
 20
275.770033
 30
0.0
 10
37.939938
 20
275.450021
 30
0.0
 10
38.145937
 20
275.050027
 30
0.0
 10
38.216939
 20
274.600024
 30
0.0
 10
38.145937
 20
274.150021
 30
0.0
 10
37.939938
 20
273.750027
 30
0.0
 10
37.618938
 20
273.430043
 30
0.0
 10
37.214940
 20
273.220042
 30
0.0
 10
36.766937
 20
273.150023
 30
0.0
 10
36.318938
 20
273.220042
 30
0.0
 10
35.914940
 20
273.430043
 30
0.0
 10
35.593937
 20
273.750027
 30
0.0
 10
35.387938
 20
274.150021
 30
0.0
 10
35.316939
 20
274.600024
 30
0.0
  0
LWPOLYLINE
  5
106
100
AcDbEntity
  8
0
 62
7
100
AcDbPolyline
 90
23
 70
0
 10
37.034938
 20
26.100025
 30
0.0
 10
37.034938
 20
29.100019
 30
0.0
 10
37.174938
 20
29.580023
 30
0.0
 10
37.443938
 20
30.000026
 30
0.0
 10
37.820939
 20
30.320038
 30
0.0
 10
38.273939
 20
30.530039
 30
0.0
 10
38.766939
 20
30.600030
 30
0.0
 10
39.259939
 20
30.530039
 30
0.0
 10
39.712940
 20
30.320038
 30
0.0
 10
40.089938
 20
30.000026
 30
0.0
 10
40.358938
 20
29.580023
 30
0.0
 10
40.498940
 20
29.100019
 30
0.0
 10
40.498940
 20
26.100025
 30
0.0
 10
40.358938
 20
25.620022
 30
0.0
 10
40.089938
 20
25.200019
 30
0.0
 10
39.712940
 20
24.880035
 30
0.0
 10
39.259939
 20
24.670034
 30
0.0
 10
38.766939
 20
24.600042
 30
0.0
 10
38.273939
 20
24.670034
 30
0.0
 10
37.820939
 20
24.880035
 30
0.0
 10
37.443938
 20
25.200019
 30
0.0
 10
37.174938
 20
25.620022
 30
0.0
 10
37.034938
 20
26.100025
 30
0.0
  0
LWPOLYLINE
  5
107
100
AcDbEntity
  8
0
 62
7
100
AcDbPolyline
 90
54
 70
0
 10
81.324938
 20
232.350032
 30
0.0
 10
81.324938
 20
232.850045
 30
0.0
 10
81.384939
 20
233.340039
 30
0.0
 10
81.504940
 20
233.810024
 30
0.0
 10
81.682940
 20
234.270046
 30
0.0
 10
81.915940
 20
234.710031
 30
0.0
 10
82.200939
 20
235.110024
 30
0.0
 10
82.531938
 20
235.470027
 30
0.0
 10
82.905939
 20
235.790039
 30
0.0
 10
83.316939
 20
236.060041
 30
0.0
 10
83.757939
 20
236.280033
 30
0.0
 10
84.221938
 20
236.450043
 30
0.0
 10
84.702938
 20
236.550035
 30
0.0
 10
85.193940
 20
236.600045
 30
0.0
 10
399.093916
 20
236.600045
 30
0.0
 10
399.585914
 20
236.580007
 30
0.0
 10
400.072916
 20
236.510044
 30
0.0
 10
400.545921
 20
236.370033
 30
0.0
 10
400.999932
 20
236.180041
 30
0.0
 10
401.425918
 20
235.930021
 30
0.0
 10
401.818912
 20
235.640037
 30
0.0
 10
402.172932
 20
235.300044
 30
0.0
 10
402.481937
 20
234.910041
 30
0.0
 10
402.740932
 20
234.490038
 30
0.0
 10
402.946926
 20
234.050026
 30
0.0
 10
403.095940
 20
233.580041
 30
0.0
 10
403.186928
 20
233.090047
 30
0.0
 10
403.216928
 20
232.600024
 30
0.0
 10
403.186928
 20
232.110030
 30
0.0
 10
403.095940
 20
231.620036
 30
0.0
 10
402.946926
 20
231.150023
 30
0.0
 10
402.740932
 20
230.710039
 30
0.0
 10
402.481937
 20
230.290035
 30
0.0
 10
402.172932
 20
229.900033
 30
0.0
 10
401.818912
 20
229.560039
 30
0.0
 10
401.425918
 20
229.270028
 30
0.0
 10
400.999932
 20
229.020035
 30
0.0
 10
400.545921
 20
228.830043
 30
0.0
 10
400.072916
 20
228.690033
 30
0.0
 10
399.585914
 20
228.620042
 30
0.0
 10
399.093916
 20
228.600004
 30
0.0
 10
85.193940
 20
228.600032
 30
0.0
 10
84.702938
 20
228.650042
 30
0.0
 10
84.221938
 20
228.750033
 30
0.0
 10
83.757939
 20
228.920044
 30
0.0
 10
83.316939
 20
229.140036
 30
0.0
 10
82.905939
 20
229.410038
 30
0.0
 10
82.531938
 20
229.730022
 30
0.0
 10
82.200939
 20
230.090025
 30
0.0
 10
81.915940
 20
230.490046
 30
0.0
 10
81.682940
 20
230.930031
 30
0.0
 10
81.504940
 20
231.390025
 30
0.0
 10
81.384939
 20
231.870028
 30
0.0
 10
81.324938
 20
232.350032
 30
0.0
  0
LWPOLYLINE
  5
108
100
AcDbEntity
  8
0
 62
7
100
AcDbPolyline
 90
21
 70
0
 10
183.149937
 20
274.600024
 30
0.0
 10
183.220939
 20
275.050027
 30
0.0
 10
183.426938
 20
275.450021
 30
0.0
 10
183.747938
 20
275.770033
 30
0.0
 10
184.151936
 20
275.980034
 30
0.0
 10
184.599938
 20
276.050025
 30
0.0
 10
185.047938
 20
275.980034
 30
0.0
 10
185.452938
 20
275.770033
 30
0.0
 10
185.772939
 20
275.450021
 30
0.0
 10
185.978938
 20
275.050027
 30
0.0
 10
186.049937
 20
274.600024
 30
0.0
 10
185.978938
 20
274.150021
 30
0.0
 10
185.772939
 20
273.750027
 30
0.0
 10
185.452938
 20
273.430043
 30
0.0
 10
185.047938
 20
273.220042
 30
0.0
 10
184.599938
 20
273.150023
 30
0.0
 10
184.151936
 20
273.220042
 30
0.0
 10
183.747938
 20
273.430043
 30
0.0
 10
183.426938
 20
273.750027
 30
0.0
 10
183.220939
 20
274.150021
 30
0.0
 10
183.149937
 20
274.600024
 30
0.0
  0
LWPOLYLINE
  5
109
100
AcDbEntity
  8
0
 62
7
100
AcDbPolyline
 90
21
 70
0
 10
342.983933
 20
274.600024
 30
0.0
 10
343.054912
 20
275.050027
 30
0.0
 10
343.260934
 20
275.450021
 30
0.0
 10
343.580918
 20
275.770033
 30
0.0
 10
343.985935
 20
275.980034
 30
0.0
 10
344.433934
 20
276.050025
 30
0.0
 10
344.881934
 20
275.980034
 30
0.0
 10
345.285935
 20
275.770033
 30
0.0
 10
345.606934
 20
275.450021
 30
0.0
 10
345.812928
 20
275.050027
 30
0.0
 10
345.883936
 20
274.600024
 30
0.0
 10
345.812928
 20
274.150021
 30
0.0
 10
345.606934
 20
273.750027
 30
0.0
 10
345.285935
 20
273.430043
 30
0.0
 10
344.881934
 20
273.220042
 30
0.0
 10
344.433934
 20
273.150023
 30
0.0
 10
343.985935
 20
273.220042
 30
0.0
 10
343.580918
 20
273.430043
 30
0.0
 10
343.260934
 20
273.750027
 30
0.0
 10
343.054912
 20
274.150021
 30
0.0
 10
342.983933
 20
274.600024
 30
0.0
  0
LWPOLYLINE
  5
10a
100
AcDbEntity
  8
0
 62
7
100
AcDbPolyline
 90
23
 70
0
 10
488.534936
 20
26.100025
 30
0.0
 10
488.534936
 20
29.100019
 30
0.0
 10
488.674918
 20
29.580023
 30
0.0
 10
488.943932
 20
30.000026
 30
0.0
 10
489.320925
 20
30.320038
 30
0.0
 10
489.773920
 20
30.530039
 30
0.0
 10
490.266934
 20
30.600030
 30
0.0
 10
490.759919
 20
30.530039
 30
0.0
 10
491.212914
 20
30.320038
 30
0.0
 10
491.589935
 20
30.000026
 30
0.0
 10
491.858921
 20
29.580023
 30
0.0
 10
491.998931
 20
29.100019
 30
0.0
 10
491.998931
 20
26.100025
 30
0.0
 10
491.858921
 20
25.620022
 30
0.0
 10
491.589935
 20
25.200019
 30
0.0
 10
491.212914
 20
24.880035
 30
0.0
 10
490.759919
 20
24.670034
 30
0.0
 10
490.266934
 20
24.600042
 30
0.0
 10
489.773920
 20
24.670034
 30
0.0
 10
489.320925
 20
24.880035
 30
0.0
 10
488.943932
 20
25.200019
 30
0.0
 10
488.674918
 20
25.620022
 30
0.0
 10
488.534936
 20
26.100025
 30
0.0
  0
LWPOLYLINE
  5
10b
100
AcDbEntity
  8
0
 62
7
100
AcDbPolyline
 90
21
 70
0
 10
490.816928
 20
274.600024
 30
0.0
 10
490.887935
 20
275.050027
 30
0.0
 10
491.093929
 20
275.450021
 30
0.0
 10
491.414929
 20
275.770033
 30
0.0
 10
491.818930
 20
275.980034
 30
0.0
 10
492.266930
 20
276.050025
 30
0.0
 10
492.714929
 20
275.980034
 30
0.0
 10
493.118930
 20
275.770033
 30
0.0
 10
493.439930
 20
275.450021
 30
0.0
 10
493.645924
 20
275.050027
 30
0.0
 10
493.716931
 20
274.600024
 30
0.0
 10
493.645924
 20
274.150021
 30
0.0
 10
493.439930
 20
273.750027
 30
0.0
 10
493.118930
 20
273.430043
 30
0.0
 10
492.714929
 20
273.220042
 30
0.0
 10
492.266930
 20
273.150023
 30
0.0
 10
491.818930
 20
273.220042
 30
0.0
 10
491.414929
 20
273.430043
 30
0.0
 10
491.093929
 20
273.750027
 30
0.0
 10
490.887935
 20
274.150021
 30
0.0
 10
490.816928
 20
274.600024
 30
0.0
  0
LWPOLYLINE
  5
10c
100
AcDbEntity
  8
0
 62
7
100
AcDbPolyline
 90
23
 70
0
 10
496.534920
 20
13.100023
 30
0.0
 10
496.534920
 20
16.100017
 30
0.0
 10
496.674930
 20
16.580021
 30
0.0
 10
496.943944
 20
17.000024
 30
0.0
 10
497.320937
 20
17.320036
 30
0.0
 10
497.773932
 20
17.530037
 30
0.0
 10
498.266946
 20
17.600028
 30
0.0
 10
498.759932
 20
17.530037
 30
0.0
 10
499.212926
 20
17.320036
 30
0.0
 10
499.589919
 20
17.000024
 30
0.0
 10
499.858933
 20
16.580021
 30
0.0
 10
499.998944
 20
16.100017
 30
0.0
 10
499.998944
 20
13.100023
 30
0.0
 10
499.858933
 20
12.620020
 30
0.0
 10
499.589919
 20
12.200016
 30
0.0
 10
499.212926
 20
11.880033
 30
0.0
 10
498.759932
 20
11.670031
 30
0.0
 10
498.266946
 20
11.600040
 30
0.0
 10
497.773932
 20
11.670031
 30
0.0
 10
497.320937
 20
11.880033
 30
0.0
 10
496.943944
 20
12.200016
 30
0.0
 10
496.674930
 20
12.620020
 30
0.0
 10
496.534920
 20
13.100023
 30
0.0
  0
LWPOLYLINE
  5
10d
100
AcDbEntity
  8
0
 62
7
100
AcDbPolyline
 90
21
 70
0
 10
517.816931
 20
28.600034
 30
0.0
 10
517.887938
 20
29.050038
 30
0.0
 10
518.093932
 20
29.450031
 30
0.0
 10
518.414931
 20
29.770043
 30
0.0
 10
518.818932
 20
29.980016
 30
0.0
 10
519.266932
 20
30.050036
 30
0.0
 10
519.714932
 20
29.980016
 30
0.0
 10
520.118933
 20
29.770043
 30
0.0
 10
520.439932
 20
29.450031
 30
0.0
 10
520.645926
 20
29.050038
 30
0.0
 10
520.716933
 20
28.600034
 30
0.0
 10
520.645926
 20
28.150031
 30
0.0
 10
520.439932
 20
27.750038
 30
0.0
 10
520.118933
 20
27.430026
 30
0.0
 10
519.714932
 20
27.220024
 30
0.0
 10
519.266932
 20
27.150033
 30
0.0
 10
518.818932
 20
27.220024
 30
0.0
 10
518.414931
 20
27.430026
 30
0.0
 10
518.093932
 20
27.750038
 30
0.0
 10
517.887938
 20
28.150031
 30
0.0
 10
517.816931
 20
28.600034
 30
0.0
  0
LWPOLYLINE
  5
10e
100
AcDbEntity
  8
0
 62
7
100
AcDbPolyline
 90
21
 70
0
 10
517.816931
 20
138.100030
 30
0.0
 10
517.887938
 20
138.550033
 30
0.0
 10
518.093932
 20
138.950027
 30
0.0
 10
518.414931
 20
139.270039
 30
0.0
 10
518.818932
 20
139.480040
 30
0.0
 10
519.266932
 20
139.550031
 30
0.0
 10
519.714932
 20
139.480040
 30
0.0
 10
520.118933
 20
139.270039
 30
0.0
 10
520.439932
 20
138.950027
 30
0.0
 10
520.645926
 20
138.550033
 30
0.0
 10
520.716933
 20
138.100030
 30
0.0
 10
520.645926
 20
137.650027
 30
0.0
 10
520.439932
 20
137.250033
 30
0.0
 10
520.118933
 20
136.930021
 30
0.0
 10
519.714932
 20
136.720020
 30
0.0
 10
519.266932
 20
136.650029
 30
0.0
 10
518.818932
 20
136.720020
 30
0.0
 10
518.414931
 20
136.930021
 30
0.0
 10
518.093932
 20
137.250033
 30
0.0
 10
517.887938
 20
137.650027
 30
0.0
 10
517.816931
 20
138.100030
 30
0.0
  0
LWPOLYLINE
  5
10f
100
AcDbEntity
  8
0
 62
7
100
AcDbPolyline
 90
21
 70
0
 10
517.816931
 20
247.600023
 30
0.0
 10
517.887938
 20
248.050026
 30
0.0
 10
518.093932
 20
248.450019
 30
0.0
 10
518.414931
 20
248.770031
 30
0.0
 10
518.818932
 20
248.980033
 30
0.0
 10
519.266932
 20
249.050024
 30
0.0
 10
519.714932
 20
248.980033
 30
0.0
 10
520.118933
 20
248.770031
 30
0.0
 10
520.439932
 20
248.450019
 30
0.0
 10
520.645926
 20
248.050026
 30
0.0
 10
520.716933
 20
247.600023
 30
0.0
 10
520.645926
 20
247.150019
 30
0.0
 10
520.439932
 20
246.750026
 30
0.0
 10
520.118933
 20
246.430042
 30
0.0
 10
519.714932
 20
246.220041
 30
0.0
 10
519.266932
 20
246.150021
 30
0.0
 10
518.818932
 20
246.220041
 30
0.0
 10
518.414931
 20
246.430042
 30
0.0
 10
518.093932
 20
246.750026
 30
0.0
 10
517.887938
 20
247.150019
 30
0.0
 10
517.816931
 20
247.600023
 30
0.0
  0
ENDSEC
  0
SECTION
  2
OBJECTS
  0
DICTIONARY
  5
C
330
0
100
AcDbDictionary
  3
ACAD_GROUP
350
D
  3
ACAD_MLINESTYLE
350
17
  0
DICTIONARY
  5
D
330
C
100
AcDbDictionary
  0
DICTIONARY
  5
1A
330
C
100
AcDbDictionary
  0
DICTIONARY
  5
17
330
C
100
AcDbDictionary
  3
STANDARD
350
18
  0
DICTIONARY
  5
19
330
C
100
AcDbDictionary
  0
ENDSEC
  0
EOF
