  0
SECTION
  2
HEADER
  9
$ACADVER
  1
AC1014
  9
$HANDSEED
  5
FFFF
  9
$MEASUREMENT
 70
     1
  0
ENDSEC
  0
SECTION
  2
TABLES
  0
TABLE
  2
VPORT
  5
8
330
0
100
AcDbSymbolTable
 70
     4
  0
VPORT
  5
2E
330
8
100
AcDbSymbolTableRecord
100
AcDbViewportTableRecord
  2
*ACTIVE
 70
     0
 10
0.0
 20
0.0
 11
1.0
 21
1.0
 12
210.0
 22
148.5
 13
0.0
 23
0.0
 14
10.0
 24
10.0
 15
10.0
 25
10.0
 16
0.0
 26
0.0
 36
1.0
 17
0.0
 27
0.0
 37
0.0
 40
341.0
 41
1.24
 42
50.0
 43
0.0
 44
0.0
 50
0.0
 51
0.0
 71
     0
 72
   100
 73
     1
 74
     3
 75
     0
 76
     0
 77
     0
 78
     0
  0
ENDTAB
  0
TABLE
  2
LTYPE
  5
5
330
0
100
AcDbSymbolTable
 70
     1
  0
LTYPE
  5
14
330
5
100
AcDbSymbolTableRecord
100
AcDbLinetypeTableRecord
  2
BYBLOCK
 70
     0
  3

 72
    65
 73
     0
 40
0.0
  0
LTYPE
  5
15
330
5
100
AcDbSymbolTableRecord
100
AcDbLinetypeTableRecord
  2
BYLAYER
 70
     0
  3

 72
    65
 73
     0
 40
0.0
  0
LTYPE
  5
16
330
5
100
AcDbSymbolTableRecord
100
AcDbLinetypeTableRecord
  2
CONTINUOUS
 70
     0
  3
Solid line
 72
    65
 73
     0
 40
0.0
  0
ENDTAB
  0
TABLE
  2
LAYER
  5
2
100
AcDbSymbolTable
 70
1
  0
LAYER
  5
50
100
AcDbSymbolTableRecord
100
AcDbLayerTableRecord
  2
0
 70
0
  6
CONTINUOUS
  0
ENDTAB
  0
TABLE
  2
STYLE
  5
3
330
0
100
AcDbSymbolTable
 70
     1
  0
STYLE
  5
11
330
3
100
AcDbSymbolTableRecord
100
AcDbTextStyleTableRecord
  2
STANDARD
 70
     0
 40
0.0
 41
1.0
 50
0.0
 71
     0
 42
2.5
  3
txt
  4

  0
ENDTAB
  0
TABLE
  2
VIEW
  5
6
330
0
100
AcDbSymbolTable
 70
     0
  0
ENDTAB
  0
TABLE
  2
UCS
  5
7
330
0
100
AcDbSymbolTable
 70
     0
  0
ENDTAB
  0
TABLE
  2
APPID
  5
9
330
0
100
AcDbSymbolTable
 70
     2
  0
APPID
  5
12
330
9
100
AcDbSymbolTableRecord
100
AcDbRegAppTableRecord
  2
ACAD
 70
     0
  0
ENDTAB
  0
TABLE
  2
DIMSTYLE
  5
A
330
0
100
AcDbSymbolTable
 70
     1
  0
DIMSTYLE
105
27
330
A
100
AcDbSymbolTableRecord
100
AcDbDimStyleTableRecord
  2
ISO-25
 70
     0
  3

  4

  5

  6

  7

 40
1.0
 41
2.5
 42
0.625
 43
3.75
 44
1.25
 45
0.0
 46
0.0
 47
0.0
 48
0.0
140
2.5
141
2.5
142
0.0
143
0.03937007874016
144
1.0
145
0.0
146
1.0
147
0.625
 71
     0
 72
     0
 73
     0
 74
     0
 75
     0
 76
     0
 77
     1
 78
     8
170
     0
171
     3
172
     1
173
     0
174
     0
175
     0
176
     0
177
     0
178
     0
270
     2
271
     2
272
     2
273
     2
274
     3
340
11
275
     0
280
     0
281
     0
282
     0
283
     0
284
     8
285
     0
286
     0
287
     3
288
     0
  0
ENDTAB
  0
TABLE
  2
BLOCK_RECORD
  5
1
330
0
100
AcDbSymbolTable
 70
     1
  0
BLOCK_RECORD
  5
1F
330
1
100
AcDbSymbolTableRecord
100
AcDbBlockTableRecord
  2
*MODEL_SPACE
  0
BLOCK_RECORD
  5
1B
330
1
100
AcDbSymbolTableRecord
100
AcDbBlockTableRecord
  2
*PAPER_SPACE
  0
ENDTAB
  0
ENDSEC
  0
SECTION
  2
BLOCKS
  0
BLOCK
  5
20
330
1F
100
AcDbEntity
  8
0
100
AcDbBlockBegin
  2
*MODEL_SPACE
 70
     0
 10
0.0
 20
0.0
 30
0.0
  3
*MODEL_SPACE
  1

  0
ENDBLK
  5
21
330
1F
100
AcDbEntity
  8
0
100
AcDbBlockEnd
  0
BLOCK
  5
1C
330
1B
100
AcDbEntity
 67
     1
  8
0
100
AcDbBlockBegin
  2
*PAPER_SPACE
  1

  0
ENDBLK
  5
1D
330
1B
100
AcDbEntity
 67
     1
  8
0
100
AcDbBlockEnd
  0
ENDSEC
  0
SECTION
  2
ENTITIES
  0
LWPOLYLINE
  5
100
100
AcDbEntity
  8
0
 62
7
100
AcDbPolyline
 90
5
 70
0
 10
7.178383
 20
6.700013
 30
0.0
 10
7.178383
 20
310.300006
 30
0.0
 10
327.078396
 20
310.300006
 30
0.0
 10
327.078396
 20
6.700013
 30
0.0
 10
7.178383
 20
6.700013
 30
0.0
  0
LWPOLYLINE
  5
101
100
AcDbEntity
  8
0
 62
7
100
AcDbPolyline
 90
21
 70
0
 10
8.728383
 20
36.700007
 30
0.0
 10
8.799383
 20
37.148007
 30
0.0
 10
9.005383
 20
37.552008
 30
0.0
 10
9.326383
 20
37.873007
 30
0.0
 10
9.730383
 20
38.079007
 30
0.0
 10
10.178383
 20
38.150005
 30
0.0
 10
10.626383
 20
38.079007
 30
0.0
 10
11.030383
 20
37.873007
 30
0.0
 10
11.351383
 20
37.552008
 30
0.0
 10
11.557383
 20
37.148007
 30
0.0
 10
11.628383
 20
36.700007
 30
0.0
 10
11.557383
 20
36.252007
 30
0.0
 10
11.351383
 20
35.848006
 30
0.0
 10
11.030383
 20
35.527007
 30
0.0
 10
10.626383
 20
35.321007
 30
0.0
 10
10.178383
 20
35.250006
 30
0.0
 10
9.730383
 20
35.321007
 30
0.0
 10
9.326383
 20
35.527007
 30
0.0
 10
9.005383
 20
35.848006
 30
0.0
 10
8.799383
 20
36.252007
 30
0.0
 10
8.728383
 20
36.700007
 30
0.0
  0
LWPOLYLINE
  5
102
100
AcDbEntity
  8
0
 62
7
100
AcDbPolyline
 90
21
 70
0
 10
8.728383
 20
160.700007
 30
0.0
 10
8.799383
 20
161.148007
 30
0.0
 10
9.005383
 20
161.552005
 30
0.0
 10
9.326383
 20
161.873008
 30
0.0
 10
9.730383
 20
162.079007
 30
0.0
 10
10.178383
 20
162.150006
 30
0.0
 10
10.626383
 20
162.079007
 30
0.0
 10
11.030383
 20
161.873008
 30
0.0
 10
11.351383
 20
161.552005
 30
0.0
 10
11.557383
 20
161.148007
 30
0.0
 10
11.628383
 20
160.700007
 30
0.0
 10
11.557383
 20
160.252005
 30
0.0
 10
11.351383
 20
159.848007
 30
0.0
 10
11.030383
 20
159.527007
 30
0.0
 10
10.626383
 20
159.321007
 30
0.0
 10
10.178383
 20
159.250006
 30
0.0
 10
9.730383
 20
159.321007
 30
0.0
 10
9.326383
 20
159.527007
 30
0.0
 10
9.005383
 20
159.848007
 30
0.0
 10
8.799383
 20
160.252005
 30
0.0
 10
8.728383
 20
160.700007
 30
0.0
  0
LWPOLYLINE
  5
103
100
AcDbEntity
  8
0
 62
7
100
AcDbPolyline
 90
21
 70
0
 10
8.728383
 20
292.700006
 30
0.0
 10
8.799383
 20
293.148006
 30
0.0
 10
9.005383
 20
293.552006
 30
0.0
 10
9.326383
 20
293.873006
 30
0.0
 10
9.730383
 20
294.079006
 30
0.0
 10
10.178383
 20
294.150006
 30
0.0
 10
10.626383
 20
294.079006
 30
0.0
 10
11.030383
 20
293.873006
 30
0.0
 10
11.351383
 20
293.552006
 30
0.0
 10
11.557383
 20
293.148006
 30
0.0
 10
11.628383
 20
292.700006
 30
0.0
 10
11.557383
 20
292.252006
 30
0.0
 10
11.351383
 20
291.848006
 30
0.0
 10
11.030383
 20
291.527006
 30
0.0
 10
10.626383
 20
291.321006
 30
0.0
 10
10.178383
 20
291.250006
 30
0.0
 10
9.730383
 20
291.321006
 30
0.0
 10
9.326383
 20
291.527006
 30
0.0
 10
9.005383
 20
291.848006
 30
0.0
 10
8.799383
 20
292.252006
 30
0.0
 10
8.728383
 20
292.700006
 30
0.0
  0
LWPOLYLINE
  5
104
100
AcDbEntity
  8
0
 62
7
100
AcDbPolyline
 90
21
 70
0
 10
32.728383
 20
9.700007
 30
0.0
 10
32.799384
 20
10.148007
 30
0.0
 10
33.005384
 20
10.552008
 30
0.0
 10
33.326383
 20
10.873008
 30
0.0
 10
33.730382
 20
11.079002
 30
0.0
 10
34.178384
 20
11.150009
 30
0.0
 10
34.626383
 20
11.079002
 30
0.0
 10
35.030382
 20
10.873008
 30
0.0
 10
35.351384
 20
10.552008
 30
0.0
 10
35.557384
 20
10.148007
 30
0.0
 10
35.628382
 20
9.700007
 30
0.0
 10
35.557384
 20
9.252008
 30
0.0
 10
35.351384
 20
8.848007
 30
0.0
 10
35.030382
 20
8.527007
 30
0.0
 10
34.626383
 20
8.321013
 30
0.0
 10
34.178384
 20
8.250006
 30
0.0
 10
33.730382
 20
8.321013
 30
0.0
 10
33.326383
 20
8.527007
 30
0.0
 10
33.005384
 20
8.848007
 30
0.0
 10
32.799384
 20
9.252008
 30
0.0
 10
32.728383
 20
9.700007
 30
0.0
  0
LWPOLYLINE
  5
105
100
AcDbEntity
  8
0
 62
7
100
AcDbPolyline
 90
21
 70
0
 10
56.728383
 20
307.300006
 30
0.0
 10
56.799384
 20
307.748006
 30
0.0
 10
57.005384
 20
308.152006
 30
0.0
 10
57.326383
 20
308.473006
 30
0.0
 10
57.730382
 20
308.679006
 30
0.0
 10
58.178384
 20
308.750006
 30
0.0
 10
58.626383
 20
308.679006
 30
0.0
 10
59.030382
 20
308.473006
 30
0.0
 10
59.351384
 20
308.152006
 30
0.0
 10
59.557384
 20
307.748006
 30
0.0
 10
59.628382
 20
307.300006
 30
0.0
 10
59.557384
 20
306.852006
 30
0.0
 10
59.351384
 20
306.448006
 30
0.0
 10
59.030382
 20
306.127006
 30
0.0
 10
58.626383
 20
305.921006
 30
0.0
 10
58.178384
 20
305.850006
 30
0.0
 10
57.730382
 20
305.921006
 30
0.0
 10
57.326383
 20
306.127006
 30
0.0
 10
57.005384
 20
306.448006
 30
0.0
 10
56.799384
 20
306.852006
 30
0.0
 10
56.728383
 20
307.300006
 30
0.0
  0
LWPOLYLINE
  5
106
100
AcDbEntity
  8
0
 62
7
100
AcDbPolyline
 90
21
 70
0
 10
165.678383
 20
9.700007
 30
0.0
 10
165.749382
 20
10.148007
 30
0.0
 10
165.955382
 20
10.552008
 30
0.0
 10
166.276384
 20
10.873008
 30
0.0
 10
166.680382
 20
11.079002
 30
0.0
 10
167.128382
 20
11.150009
 30
0.0
 10
167.576384
 20
11.079002
 30
0.0
 10
167.980383
 20
10.873008
 30
0.0
 10
168.301382
 20
10.552008
 30
0.0
 10
168.507382
 20
10.148007
 30
0.0
 10
168.578383
 20
9.700007
 30
0.0
 10
168.507382
 20
9.252008
 30
0.0
 10
168.301382
 20
8.848007
 30
0.0
 10
167.980383
 20
8.527007
 30
0.0
 10
167.576384
 20
8.321013
 30
0.0
 10
167.128382
 20
8.250006
 30
0.0
 10
166.680382
 20
8.321013
 30
0.0
 10
166.276384
 20
8.527007
 30
0.0
 10
165.955382
 20
8.848007
 30
0.0
 10
165.749382
 20
9.252008
 30
0.0
 10
165.678383
 20
9.700007
 30
0.0
  0
LWPOLYLINE
  5
107
100
AcDbEntity
  8
0
 62
7
100
AcDbPolyline
 90
21
 70
0
 10
274.628384
 20
307.300006
 30
0.0
 10
274.699383
 20
307.748006
 30
0.0
 10
274.905383
 20
308.152006
 30
0.0
 10
275.226382
 20
308.473006
 30
0.0
 10
275.630383
 20
308.679006
 30
0.0
 10
276.078383
 20
308.750006
 30
0.0
 10
276.526382
 20
308.679006
 30
0.0
 10
276.930383
 20
308.473006
 30
0.0
 10
277.251383
 20
308.152006
 30
0.0
 10
277.457383
 20
307.748006
 30
0.0
 10
277.528384
 20
307.300006
 30
0.0
 10
277.457383
 20
306.852006
 30
0.0
 10
277.251383
 20
306.448006
 30
0.0
 10
276.930383
 20
306.127006
 30
0.0
 10
276.526382
 20
305.921006
 30
0.0
 10
276.078383
 20
305.850006
 30
0.0
 10
275.630383
 20
305.921006
 30
0.0
 10
275.226382
 20
306.127006
 30
0.0
 10
274.905383
 20
306.448006
 30
0.0
 10
274.699383
 20
306.852006
 30
0.0
 10
274.628384
 20
307.300006
 30
0.0
  0
LWPOLYLINE
  5
108
100
AcDbEntity
  8
0
 62
7
100
AcDbPolyline
 90
21
 70
0
 10
298.628393
 20
9.700007
 30
0.0
 10
298.699372
 20
10.148007
 30
0.0
 10
298.905394
 20
10.552008
 30
0.0
 10
299.226393
 20
10.873008
 30
0.0
 10
299.630394
 20
11.079002
 30
0.0
 10
300.078394
 20
11.150009
 30
0.0
 10
300.526394
 20
11.079002
 30
0.0
 10
300.930395
 20
10.873008
 30
0.0
 10
301.251394
 20
10.552008
 30
0.0
 10
301.457388
 20
10.148007
 30
0.0
 10
301.528395
 20
9.700007
 30
0.0
 10
301.457388
 20
9.252008
 30
0.0
 10
301.251394
 20
8.848007
 30
0.0
 10
300.930395
 20
8.527007
 30
0.0
 10
300.526394
 20
8.321013
 30
0.0
 10
300.078394
 20
8.250006
 30
0.0
 10
299.630394
 20
8.321013
 30
0.0
 10
299.226393
 20
8.527007
 30
0.0
 10
298.905394
 20
8.848007
 30
0.0
 10
298.699372
 20
9.252008
 30
0.0
 10
298.628393
 20
9.700007
 30
0.0
  0
LWPOLYLINE
  5
109
100
AcDbEntity
  8
0
 62
7
100
AcDbPolyline
 90
21
 70
0
 10
322.628373
 20
36.700007
 30
0.0
 10
322.699380
 20
37.148007
 30
0.0
 10
322.905374
 20
37.552008
 30
0.0
 10
323.226374
 20
37.873007
 30
0.0
 10
323.630375
 20
38.079007
 30
0.0
 10
324.078374
 20
38.150005
 30
0.0
 10
324.526374
 20
38.079007
 30
0.0
 10
324.930375
 20
37.873007
 30
0.0
 10
325.251374
 20
37.552008
 30
0.0
 10
325.457397
 20
37.148007
 30
0.0
 10
325.528376
 20
36.700007
 30
0.0
 10
325.457397
 20
36.252007
 30
0.0
 10
325.251374
 20
35.848006
 30
0.0
 10
324.930375
 20
35.527007
 30
0.0
 10
324.526374
 20
35.321007
 30
0.0
 10
324.078374
 20
35.250006
 30
0.0
 10
323.630375
 20
35.321007
 30
0.0
 10
323.226374
 20
35.527007
 30
0.0
 10
322.905374
 20
35.848006
 30
0.0
 10
322.699380
 20
36.252007
 30
0.0
 10
322.628373
 20
36.700007
 30
0.0
  0
LWPOLYLINE
  5
10a
100
AcDbEntity
  8
0
 62
7
100
AcDbPolyline
 90
21
 70
0
 10
322.628373
 20
160.700007
 30
0.0
 10
322.699380
 20
161.148007
 30
0.0
 10
322.905374
 20
161.552005
 30
0.0
 10
323.226374
 20
161.873008
 30
0.0
 10
323.630375
 20
162.079007
 30
0.0
 10
324.078374
 20
162.150006
 30
0.0
 10
324.526374
 20
162.079007
 30
0.0
 10
324.930375
 20
161.873008
 30
0.0
 10
325.251374
 20
161.552005
 30
0.0
 10
325.457397
 20
161.148007
 30
0.0
 10
325.528376
 20
160.700007
 30
0.0
 10
325.457397
 20
160.252005
 30
0.0
 10
325.251374
 20
159.848007
 30
0.0
 10
324.930375
 20
159.527007
 30
0.0
 10
324.526374
 20
159.321007
 30
0.0
 10
324.078374
 20
159.250006
 30
0.0
 10
323.630375
 20
159.321007
 30
0.0
 10
323.226374
 20
159.527007
 30
0.0
 10
322.905374
 20
159.848007
 30
0.0
 10
322.699380
 20
160.252005
 30
0.0
 10
322.628373
 20
160.700007
 30
0.0
  0
LWPOLYLINE
  5
10b
100
AcDbEntity
  8
0
 62
7
100
AcDbPolyline
 90
21
 70
0
 10
322.628373
 20
292.700006
 30
0.0
 10
322.699380
 20
293.148006
 30
0.0
 10
322.905374
 20
293.552006
 30
0.0
 10
323.226374
 20
293.873006
 30
0.0
 10
323.630375
 20
294.079006
 30
0.0
 10
324.078374
 20
294.150006
 30
0.0
 10
324.526374
 20
294.079006
 30
0.0
 10
324.930375
 20
293.873006
 30
0.0
 10
325.251374
 20
293.552006
 30
0.0
 10
325.457397
 20
293.148006
 30
0.0
 10
325.528376
 20
292.700006
 30
0.0
 10
325.457397
 20
292.252006
 30
0.0
 10
325.251374
 20
291.848006
 30
0.0
 10
324.930375
 20
291.527006
 30
0.0
 10
324.526374
 20
291.321006
 30
0.0
 10
324.078374
 20
291.250006
 30
0.0
 10
323.630375
 20
291.321006
 30
0.0
 10
323.226374
 20
291.527006
 30
0.0
 10
322.905374
 20
291.848006
 30
0.0
 10
322.699380
 20
292.252006
 30
0.0
 10
322.628373
 20
292.700006
 30
0.0
  0
ENDSEC
  0
SECTION
  2
OBJECTS
  0
DICTIONARY
  5
C
330
0
100
AcDbDictionary
  3
ACAD_GROUP
350
D
  3
ACAD_MLINESTYLE
350
17
  0
DICTIONARY
  5
D
330
C
100
AcDbDictionary
  0
DICTIONARY
  5
1A
330
C
100
AcDbDictionary
  0
DICTIONARY
  5
17
330
C
100
AcDbDictionary
  3
STANDARD
350
18
  0
DICTIONARY
  5
19
330
C
100
AcDbDictionary
  0
ENDSEC
  0
EOF
