solid OpenSCAD_Model
  facet normal 0 -1 0
    outer loop
      vertex -12.5 -9.65 7.6
      vertex -12.5 -9.65 0
      vertex 12.5 -9.65 0
    endloop
  endfacet
  facet normal 0 -1 0
    outer loop
      vertex 12.5 -9.65 7.6
      vertex -12.5 -9.65 7.6
      vertex 12.5 -9.65 0
    endloop
  endfacet
  facet normal 0 0 -1
    outer loop
      vertex 5.1099 -4.81201 0
      vertex -12.5 6.65 0
      vertex -12.4591 7.14378 0
    endloop
  endfacet
  facet normal 0 0 -1
    outer loop
      vertex -8.5901 4.81201 0
      vertex -12.4591 7.14378 0
      vertex -12.3375 7.6241 0
    endloop
  endfacet
  facet normal 0 0 -1
    outer loop
      vertex -8.5901 6.48799 0
      vertex -11.8674 8.49264 0
      vertex -11.5318 8.85717 0
    endloop
  endfacet
  facet normal 0 0 -1
    outer loop
      vertex -8.5901 4.81201 0
      vertex -12.1384 8.07784 0
      vertex -11.8674 8.49264 0
    endloop
  endfacet
  facet normal 0 0 -1
    outer loop
      vertex -8.5901 4.81201 0
      vertex -11.8674 8.49264 0
      vertex -8.5901 6.48799 0
    endloop
  endfacet
  facet normal 0 0 -1
    outer loop
      vertex -5.64582 7.16 0
      vertex -9.74774 9.63975 0
      vertex 9.74774 9.63975 0
    endloop
  endfacet
  facet normal 0 0 -1
    outer loop
      vertex 12.5 -9.65 0
      vertex 9.74774 9.63975 0
      vertex 10.2365 9.5582 0
    endloop
  endfacet
  facet normal 0 0 -1
    outer loop
      vertex 12.5 -9.65 0
      vertex 10.2365 9.5582 0
      vertex 10.7051 9.39732 0
    endloop
  endfacet
  facet normal 0 0 -1
    outer loop
      vertex 12.5 -9.65 0
      vertex 10.7051 9.39732 0
      vertex 11.1408 9.1615 0
    endloop
  endfacet
  facet normal 0 0 -1
    outer loop
      vertex 12.5 -9.65 0
      vertex 11.1408 9.1615 0
      vertex 11.5318 8.85717 0
    endloop
  endfacet
  facet normal 0 0 -1
    outer loop
      vertex 12.5 -9.65 0
      vertex 11.5318 8.85717 0
      vertex 11.8674 8.49264 0
    endloop
  endfacet
  facet normal 0 0 -1
    outer loop
      vertex 12.5 -9.65 0
      vertex 11.8674 8.49264 0
      vertex 12.1384 8.07784 0
    endloop
  endfacet
  facet normal 0 0 -1
    outer loop
      vertex 12.5 -9.65 0
      vertex 12.1384 8.07784 0
      vertex 12.3375 7.6241 0
    endloop
  endfacet
  facet normal 0 0 -1
    outer loop
      vertex 12.5 -9.65 0
      vertex 12.3375 7.6241 0
      vertex 12.4591 7.14378 0
    endloop
  endfacet
  facet normal 0 0 -1
    outer loop
      vertex 12.5 -9.65 0
      vertex 12.4591 7.14378 0
      vertex 12.5 6.65 0
    endloop
  endfacet
  facet normal 0 0 -1
    outer loop
      vertex -12.5 -9.65 0
      vertex -12.5 6.65 0
      vertex -8.5901 -4.81201 0
    endloop
  endfacet
  facet normal 0 0 -1
    outer loop
      vertex -12.5 -9.65 0
      vertex -8.5901 -4.81201 0
      vertex -8.5901 -6.48799 0
    endloop
  endfacet
  facet normal 0 0 -1
    outer loop
      vertex -8.5901 6.48799 0
      vertex -10.7051 9.39732 0
      vertex -10.2365 9.5582 0
    endloop
  endfacet
  facet normal 0 0 -1
    outer loop
      vertex -12.5 -9.65 0
      vertex -8.5901 -6.48799 0
      vertex -7.27977 -7.53294 0
    endloop
  endfacet
  facet normal 0 0 -1
    outer loop
      vertex -12.5 -9.65 0
      vertex -7.27977 -7.53294 0
      vertex 12.5 -9.65 0
    endloop
  endfacet
  facet normal 0 0 -1
    outer loop
      vertex -7.27977 -7.53294 0
      vertex -5.64582 -7.16 0
      vertex 12.5 -9.65 0
    endloop
  endfacet
  facet normal 0 0 -1
    outer loop
      vertex -8.5901 6.48799 0
      vertex -11.5318 8.85717 0
      vertex -11.1408 9.1615 0
    endloop
  endfacet
  facet normal 0 0 -1
    outer loop
      vertex -7.27977 -3.76706 0
      vertex -12.5 6.65 0
      vertex -5.64582 -4.14 0
    endloop
  endfacet
  facet normal 0 0 -1
    outer loop
      vertex -8.5901 6.48799 0
      vertex -11.1408 9.1615 0
      vertex -10.7051 9.39732 0
    endloop
  endfacet
  facet normal 0 0 -1
    outer loop
      vertex -4.91864 -5.65 0
      vertex -5.64582 -4.14 0
      vertex 12.5 -9.65 0
    endloop
  endfacet
  facet normal 0 0 -1
    outer loop
      vertex -8.5901 -4.81201 0
      vertex -12.5 6.65 0
      vertex -7.27977 -3.76706 0
    endloop
  endfacet
  facet normal 0 0 -1
    outer loop
      vertex -8.5901 4.81201 0
      vertex -12.3375 7.6241 0
      vertex -12.1384 8.07784 0
    endloop
  endfacet
  facet normal 0 0 -1
    outer loop
      vertex -7.27977 3.76706 0
      vertex -12.4591 7.14378 0
      vertex -8.5901 4.81201 0
    endloop
  endfacet
  facet normal 0 0 -1
    outer loop
      vertex 5.1099 -4.81201 0
      vertex -4.91864 5.65 0
      vertex 6.42023 -3.76706 0
    endloop
  endfacet
  facet normal 0 0 -1
    outer loop
      vertex 5.1099 -4.81201 0
      vertex -5.64582 4.14 0
      vertex -4.91864 5.65 0
    endloop
  endfacet
  facet normal 0 0 -1
    outer loop
      vertex 5.1099 -4.81201 0
      vertex -12.4591 7.14378 0
      vertex -7.27977 3.76706 0
    endloop
  endfacet
  facet normal 0 0 -1
    outer loop
      vertex 6.42023 7.53294 0
      vertex -4.91864 5.65 0
      vertex 9.74774 9.63975 0
    endloop
  endfacet
  facet normal 0 0 -1
    outer loop
      vertex 5.1099 -4.81201 0
      vertex -7.27977 3.76706 0
      vertex -5.64582 4.14 0
    endloop
  endfacet
  facet normal 0 0 -1
    outer loop
      vertex -4.91864 5.65 0
      vertex -5.64582 7.16 0
      vertex 9.74774 9.63975 0
    endloop
  endfacet
  facet normal 0 0 -1
    outer loop
      vertex -7.27977 7.53294 0
      vertex -9.74774 9.63975 0
      vertex -5.64582 7.16 0
    endloop
  endfacet
  facet normal 0 0 -1
    outer loop
      vertex 5.1099 -6.48799 0
      vertex -12.5 6.65 0
      vertex 5.1099 -4.81201 0
    endloop
  endfacet
  facet normal 0 0 -1
    outer loop
      vertex -5.64582 -4.14 0
      vertex -12.5 6.65 0
      vertex 5.1099 -6.48799 0
    endloop
  endfacet
  facet normal 0 0 -1
    outer loop
      vertex -5.64582 -4.14 0
      vertex 5.1099 -6.48799 0
      vertex 6.42023 -7.53294 0
    endloop
  endfacet
  facet normal 0 0 -1
    outer loop
      vertex -5.64582 -4.14 0
      vertex 6.42023 -7.53294 0
      vertex 12.5 -9.65 0
    endloop
  endfacet
  facet normal 0 0 -1
    outer loop
      vertex 8.05418 -7.16 0
      vertex 12.5 -9.65 0
      vertex 6.42023 -7.53294 0
    endloop
  endfacet
  facet normal 0 0 -1
    outer loop
      vertex 8.78136 -5.65 0
      vertex 12.5 -9.65 0
      vertex 8.05418 -7.16 0
    endloop
  endfacet
  facet normal 0 0 -1
    outer loop
      vertex 6.42023 3.76706 0
      vertex 8.05418 -4.14 0
      vertex 5.1099 4.81201 0
    endloop
  endfacet
  facet normal 0 0 -1
    outer loop
      vertex 12.5 -9.65 0
      vertex 8.78136 -5.65 0
      vertex 9.74774 9.63975 0
    endloop
  endfacet
  facet normal 0 0 -1
    outer loop
      vertex 8.78136 -5.65 0
      vertex 8.05418 -4.14 0
      vertex 9.74774 9.63975 0
    endloop
  endfacet
  facet normal 0 0 -1
    outer loop
      vertex 6.42023 -3.76706 0
      vertex -4.91864 5.65 0
      vertex 8.05418 -4.14 0
    endloop
  endfacet
  facet normal 0 0 -1
    outer loop
      vertex 5.1099 4.81201 0
      vertex -4.91864 5.65 0
      vertex 5.1099 6.48799 0
    endloop
  endfacet
  facet normal 0 0 -1
    outer loop
      vertex 8.05418 -4.14 0
      vertex -4.91864 5.65 0
      vertex 5.1099 4.81201 0
    endloop
  endfacet
  facet normal 0 0 -1
    outer loop
      vertex 8.05418 7.16 0
      vertex 9.74774 9.63975 0
      vertex 8.78136 5.65 0
    endloop
  endfacet
  facet normal 0 0 -1
    outer loop
      vertex 8.05418 -4.14 0
      vertex 6.42023 3.76706 0
      vertex 8.05418 4.14 0
    endloop
  endfacet
  facet normal 0 0 -1
    outer loop
      vertex 8.05418 -4.14 0
      vertex 8.05418 4.14 0
      vertex 8.78136 5.65 0
    endloop
  endfacet
  facet normal 0 0 -1
    outer loop
      vertex 8.05418 -4.14 0
      vertex 8.78136 5.65 0
      vertex 9.74774 9.63975 0
    endloop
  endfacet
  facet normal 0 0 -1
    outer loop
      vertex 6.42023 7.53294 0
      vertex 9.74774 9.63975 0
      vertex 8.05418 7.16 0
    endloop
  endfacet
  facet normal 0 0 -1
    outer loop
      vertex 5.1099 6.48799 0
      vertex -4.91864 5.65 0
      vertex 6.42023 7.53294 0
    endloop
  endfacet
  facet normal 0 0 -1
    outer loop
      vertex -4.91864 -5.65 0
      vertex 12.5 -9.65 0
      vertex -5.64582 -7.16 0
    endloop
  endfacet
  facet normal 0 0 -1
    outer loop
      vertex -8.5901 6.48799 0
      vertex -10.2365 9.5582 0
      vertex -9.74774 9.63975 0
    endloop
  endfacet
  facet normal 0 0 -1
    outer loop
      vertex -8.5901 6.48799 0
      vertex -9.74774 9.63975 0
      vertex -7.27977 7.53294 0
    endloop
  endfacet
  facet normal -1 0 0
    outer loop
      vertex -12.5 -9.65 0
      vertex -12.5 -9.65 7.6
      vertex -12.5 6.65 0
    endloop
  endfacet
  facet normal -1 0 0
    outer loop
      vertex -12.5 -4.07 7.506
      vertex -12.5 -9.65 7.6
      vertex -12.5 -4.07571 7.6
    endloop
  endfacet
  facet normal -1 0 0
    outer loop
      vertex -12.5 -3.981 7.019
      vertex -12.5 -9.65 7.6
      vertex -12.5 -4.07 7.506
    endloop
  endfacet
  facet normal -1 0 0
    outer loop
      vertex -12.5 -3.834 6.546
      vertex -12.5 -9.65 7.6
      vertex -12.5 -3.981 7.019
    endloop
  endfacet
  facet normal -1 0 0
    outer loop
      vertex -12.5 -3.63 6.095
      vertex -12.5 -9.65 7.6
      vertex -12.5 -3.834 6.546
    endloop
  endfacet
  facet normal -1 0 0
    outer loop
      vertex -12.5 -3.374 5.671
      vertex -12.5 -9.65 7.6
      vertex -12.5 -3.63 6.095
    endloop
  endfacet
  facet normal -1 0 0
    outer loop
      vertex -12.5 -3.069 5.281
      vertex -12.5 -9.65 7.6
      vertex -12.5 -3.374 5.671
    endloop
  endfacet
  facet normal -1 0 0
    outer loop
      vertex -12.5 -2.719 4.931
      vertex -12.5 -9.65 7.6
      vertex -12.5 -3.069 5.281
    endloop
  endfacet
  facet normal -1 0 0
    outer loop
      vertex -12.5 -2.329 4.626
      vertex -12.5 -9.65 7.6
      vertex -12.5 -2.719 4.931
    endloop
  endfacet
  facet normal -1 0 0
    outer loop
      vertex -12.5 -1.905 4.37
      vertex -12.5 -9.65 7.6
      vertex -12.5 -2.329 4.626
    endloop
  endfacet
  facet normal -1 0 0
    outer loop
      vertex -12.5 6.65 0
      vertex -12.5 -9.65 7.6
      vertex -12.5 -1.905 4.37
    endloop
  endfacet
  facet normal -1 0 0
    outer loop
      vertex -12.5 6.65 0
      vertex -12.5 -1.905 4.37
      vertex -12.5 -1.454 4.166
    endloop
  endfacet
  facet normal -1 0 0
    outer loop
      vertex -12.5 -0.494 3.93
      vertex -12.5 6.65 0
      vertex -12.5 -0.981 4.019
    endloop
  endfacet
  facet normal -1 0 0
    outer loop
      vertex -12.5 2.69243e-015 3.9
      vertex -12.5 6.65 0
      vertex -12.5 -0.494 3.93
    endloop
  endfacet
  facet normal -1 0 0
    outer loop
      vertex -12.5 0.494 3.93
      vertex -12.5 6.65 0
      vertex -12.5 2.69243e-015 3.9
    endloop
  endfacet
  facet normal -1 0 0
    outer loop
      vertex -12.5 0.981 4.019
      vertex -12.5 6.65 0
      vertex -12.5 0.494 3.93
    endloop
  endfacet
  facet normal -1 0 0
    outer loop
      vertex -12.5 6.65 0
      vertex -12.5 0.981 4.019
      vertex -12.5 1.454 4.166
    endloop
  endfacet
  facet normal -1 0 0
    outer loop
      vertex -12.5 1.454 4.166
      vertex -12.5 1.905 4.37
      vertex -12.5 6.65 0
    endloop
  endfacet
  facet normal -1 0 0
    outer loop
      vertex -12.5 1.905 4.37
      vertex -12.5 2.329 4.626
      vertex -12.5 6.65 0
    endloop
  endfacet
  facet normal -1 0 0
    outer loop
      vertex -12.5 2.329 4.626
      vertex -12.5 2.719 4.931
      vertex -12.5 6.65 0
    endloop
  endfacet
  facet normal -1 0 0
    outer loop
      vertex -12.5 2.719 4.931
      vertex -12.5 3.069 5.281
      vertex -12.5 6.65 0
    endloop
  endfacet
  facet normal -1 0 0
    outer loop
      vertex -12.5 3.069 5.281
      vertex -12.5 3.374 5.671
      vertex -12.5 6.65 0
    endloop
  endfacet
  facet normal -1 0 0
    outer loop
      vertex -12.5 3.374 5.671
      vertex -12.5 3.63 6.095
      vertex -12.5 6.65 0
    endloop
  endfacet
  facet normal -1 0 0
    outer loop
      vertex -12.5 3.63 6.095
      vertex -12.5 3.834 6.546
      vertex -12.5 6.65 0
    endloop
  endfacet
  facet normal -1 0 0
    outer loop
      vertex -12.5 3.834 6.546
      vertex -12.5 3.981 7.019
      vertex -12.5 6.65 0
    endloop
  endfacet
  facet normal -1 0 0
    outer loop
      vertex -12.5 3.981 7.019
      vertex -12.5 4.07 7.506
      vertex -12.5 6.65 0
    endloop
  endfacet
  facet normal -1 0 0
    outer loop
      vertex -12.5 4.07 7.506
      vertex -12.5 4.07571 7.6
      vertex -12.5 6.65 0
    endloop
  endfacet
  facet normal -1 0 0
    outer loop
      vertex -12.5 6.65 0
      vertex -12.5 4.07571 7.6
      vertex -12.5 6.65 7.6
    endloop
  endfacet
  facet normal -1 0 0
    outer loop
      vertex -12.5 -0.981 4.019
      vertex -12.5 6.65 0
      vertex -12.5 -1.454 4.166
    endloop
  endfacet
  facet normal 0 0 1
    outer loop
      vertex -5.64582 -7.16 7.6
      vertex -12.5 -9.65 7.6
      vertex 12.5 -9.65 7.6
    endloop
  endfacet
  facet normal 0 0 1
    outer loop
      vertex 12.5 -4.07571 7.6
      vertex 8.495 -4.07571 7.6
      vertex 12.5 -9.65 7.6
    endloop
  endfacet
  facet normal 0 0 1
    outer loop
      vertex 8.495 -4.07571 7.6
      vertex 8.495 -5.05536 7.6
      vertex 12.5 -9.65 7.6
    endloop
  endfacet
  facet normal 0 0 1
    outer loop
      vertex 8.495 -5.05536 7.6
      vertex 8.78136 -5.65 7.6
      vertex 12.5 -9.65 7.6
    endloop
  endfacet
  facet normal 0 0 1
    outer loop
      vertex 8.78136 -5.65 7.6
      vertex 8.05418 -7.16 7.6
      vertex 12.5 -9.65 7.6
    endloop
  endfacet
  facet normal 0 0 1
    outer loop
      vertex 8.05418 -7.16 7.6
      vertex 6.42023 -7.53294 7.6
      vertex 12.5 -9.65 7.6
    endloop
  endfacet
  facet normal 0 0 1
    outer loop
      vertex -8.5901 -6.48799 7.6
      vertex -8.5901 -4.81201 7.6
      vertex -12.5 -4.07571 7.6
    endloop
  endfacet
  facet normal 0 0 1
    outer loop
      vertex 5.205 -4.07571 7.6
      vertex -5.205 -4.07571 7.6
      vertex 5.205 -4.73618 7.6
    endloop
  endfacet
  facet normal 0 0 1
    outer loop
      vertex -5.205 -4.07571 7.6
      vertex -5.205 -5.05536 7.6
      vertex 5.1099 -4.81201 7.6
    endloop
  endfacet
  facet normal 0 0 1
    outer loop
      vertex -5.205 -4.07571 7.6
      vertex 5.1099 -4.81201 7.6
      vertex 5.205 -4.73618 7.6
    endloop
  endfacet
  facet normal 0 0 1
    outer loop
      vertex 6.42023 -7.53294 7.6
      vertex -4.91864 -5.65 7.6
      vertex 12.5 -9.65 7.6
    endloop
  endfacet
  facet normal 0 0 1
    outer loop
      vertex -7.27977 -7.53294 7.6
      vertex -12.5 -9.65 7.6
      vertex -5.64582 -7.16 7.6
    endloop
  endfacet
  facet normal 0 0 1
    outer loop
      vertex -12.5 -4.07571 7.6
      vertex -12.5 -9.65 7.6
      vertex -7.27977 -7.53294 7.6
    endloop
  endfacet
  facet normal 0 0 1
    outer loop
      vertex -12.5 -4.07571 7.6
      vertex -7.27977 -7.53294 7.6
      vertex -8.5901 -6.48799 7.6
    endloop
  endfacet
  facet normal 0 0 1
    outer loop
      vertex -8.495 -4.73618 7.6
      vertex -8.495 -4.07571 7.6
      vertex -12.5 -4.07571 7.6
    endloop
  endfacet
  facet normal 0 0 1
    outer loop
      vertex -4.91864 -5.65 7.6
      vertex -5.64582 -7.16 7.6
      vertex 12.5 -9.65 7.6
    endloop
  endfacet
  facet normal 0 0 1
    outer loop
      vertex -8.5901 -4.81201 7.6
      vertex -8.495 -4.73618 7.6
      vertex -12.5 -4.07571 7.6
    endloop
  endfacet
  facet normal 0 0 1
    outer loop
      vertex 5.1099 -6.48799 7.6
      vertex 5.1099 -4.81201 7.6
      vertex -5.205 -5.05536 7.6
    endloop
  endfacet
  facet normal 0 0 1
    outer loop
      vertex -5.205 -5.05536 7.6
      vertex 6.42023 -7.53294 7.6
      vertex 5.1099 -6.48799 7.6
    endloop
  endfacet
  facet normal 0 0 1
    outer loop
      vertex -5.205 -5.05536 7.6
      vertex -4.91864 -5.65 7.6
      vertex 6.42023 -7.53294 7.6
    endloop
  endfacet
  facet normal 1 0 0
    outer loop
      vertex 12.5 -9.65 7.6
      vertex 12.5 -9.65 0
      vertex 12.5 6.65 0
    endloop
  endfacet
  facet normal 1 0 0
    outer loop
      vertex 12.5 -1.454 4.166
      vertex 12.5 -9.65 7.6
      vertex 12.5 6.65 0
    endloop
  endfacet
  facet normal 1 0 0
    outer loop
      vertex 12.5 6.65 7.6
      vertex 12.5 4.07571 7.6
      vertex 12.5 6.65 0
    endloop
  endfacet
  facet normal 1 0 0
    outer loop
      vertex 12.5 4.07571 7.6
      vertex 12.5 4.07 7.506
      vertex 12.5 6.65 0
    endloop
  endfacet
  facet normal 1 0 0
    outer loop
      vertex 12.5 4.07 7.506
      vertex 12.5 3.981 7.019
      vertex 12.5 6.65 0
    endloop
  endfacet
  facet normal 1 0 0
    outer loop
      vertex 12.5 3.981 7.019
      vertex 12.5 3.834 6.546
      vertex 12.5 6.65 0
    endloop
  endfacet
  facet normal 1 0 0
    outer loop
      vertex 12.5 -4.07 7.506
      vertex 12.5 -4.07571 7.6
      vertex 12.5 -9.65 7.6
    endloop
  endfacet
  facet normal 1 0 0
    outer loop
      vertex 12.5 3.834 6.546
      vertex 12.5 3.63 6.095
      vertex 12.5 6.65 0
    endloop
  endfacet
  facet normal 1 0 0
    outer loop
      vertex 12.5 3.63 6.095
      vertex 12.5 3.374 5.671
      vertex 12.5 6.65 0
    endloop
  endfacet
  facet normal 1 0 0
    outer loop
      vertex 12.5 3.374 5.671
      vertex 12.5 3.069 5.281
      vertex 12.5 6.65 0
    endloop
  endfacet
  facet normal 1 0 0
    outer loop
      vertex 12.5 3.069 5.281
      vertex 12.5 2.719 4.931
      vertex 12.5 6.65 0
    endloop
  endfacet
  facet normal 1 0 0
    outer loop
      vertex 12.5 2.719 4.931
      vertex 12.5 2.329 4.626
      vertex 12.5 6.65 0
    endloop
  endfacet
  facet normal 1 0 0
    outer loop
      vertex 12.5 -3.834 6.546
      vertex 12.5 -3.981 7.019
      vertex 12.5 -9.65 7.6
    endloop
  endfacet
  facet normal 1 0 0
    outer loop
      vertex 12.5 2.329 4.626
      vertex 12.5 1.905 4.37
      vertex 12.5 6.65 0
    endloop
  endfacet
  facet normal 1 0 0
    outer loop
      vertex 12.5 1.905 4.37
      vertex 12.5 1.454 4.166
      vertex 12.5 6.65 0
    endloop
  endfacet
  facet normal 1 0 0
    outer loop
      vertex 12.5 1.454 4.166
      vertex 12.5 0.981 4.019
      vertex 12.5 6.65 0
    endloop
  endfacet
  facet normal 1 0 0
    outer loop
      vertex 12.5 -3.374 5.671
      vertex 12.5 -3.63 6.095
      vertex 12.5 -9.65 7.6
    endloop
  endfacet
  facet normal 1 0 0
    outer loop
      vertex 12.5 0.981 4.019
      vertex 12.5 0.494 3.93
      vertex 12.5 6.65 0
    endloop
  endfacet
  facet normal 1 0 0
    outer loop
      vertex 12.5 0.494 3.93
      vertex 12.5 -2.85868e-015 3.9
      vertex 12.5 6.65 0
    endloop
  endfacet
  facet normal 1 0 0
    outer loop
      vertex 12.5 -2.85868e-015 3.9
      vertex 12.5 -0.494 3.93
      vertex 12.5 6.65 0
    endloop
  endfacet
  facet normal 1 0 0
    outer loop
      vertex 12.5 -0.494 3.93
      vertex 12.5 -0.981 4.019
      vertex 12.5 6.65 0
    endloop
  endfacet
  facet normal 1 0 0
    outer loop
      vertex 12.5 -0.981 4.019
      vertex 12.5 -1.454 4.166
      vertex 12.5 6.65 0
    endloop
  endfacet
  facet normal 1 0 0
    outer loop
      vertex 12.5 -1.905 4.37
      vertex 12.5 -9.65 7.6
      vertex 12.5 -1.454 4.166
    endloop
  endfacet
  facet normal 1 0 0
    outer loop
      vertex 12.5 -2.329 4.626
      vertex 12.5 -2.719 4.931
      vertex 12.5 -9.65 7.6
    endloop
  endfacet
  facet normal 1 0 0
    outer loop
      vertex 12.5 -3.069 5.281
      vertex 12.5 -3.374 5.671
      vertex 12.5 -9.65 7.6
    endloop
  endfacet
  facet normal 1 0 0
    outer loop
      vertex 12.5 -3.981 7.019
      vertex 12.5 -4.07 7.506
      vertex 12.5 -9.65 7.6
    endloop
  endfacet
  facet normal 1 0 0
    outer loop
      vertex 12.5 -1.905 4.37
      vertex 12.5 -2.329 4.626
      vertex 12.5 -9.65 7.6
    endloop
  endfacet
  facet normal 1 0 0
    outer loop
      vertex 12.5 -2.719 4.931
      vertex 12.5 -3.069 5.281
      vertex 12.5 -9.65 7.6
    endloop
  endfacet
  facet normal 1 0 0
    outer loop
      vertex 12.5 -3.63 6.095
      vertex 12.5 -3.834 6.546
      vertex 12.5 -9.65 7.6
    endloop
  endfacet
  facet normal 0.996585 0.0825791 0
    outer loop
      vertex 12.5 6.65 0
      vertex 12.4591 7.14378 0
      vertex 12.4591 7.14378 7.6
    endloop
  endfacet
  facet normal 0.996585 0.0825791 0
    outer loop
      vertex 12.5 6.65 7.6
      vertex 12.5 6.65 0
      vertex 12.4591 7.14378 7.6
    endloop
  endfacet
  facet normal 0.9694 0.245485 0
    outer loop
      vertex 12.4591 7.14378 0
      vertex 12.3375 7.6241 0
      vertex 12.3375 7.6241 7.6
    endloop
  endfacet
  facet normal 0.9694 0.245485 0
    outer loop
      vertex 12.4591 7.14378 7.6
      vertex 12.4591 7.14378 0
      vertex 12.3375 7.6241 7.6
    endloop
  endfacet
  facet normal 0.915773 0.401696 0
    outer loop
      vertex 12.3375 7.6241 0
      vertex 12.1384 8.07784 0
      vertex 12.1384 8.07784 7.6
    endloop
  endfacet
  facet normal 0.915773 0.401696 0
    outer loop
      vertex 12.3375 7.6241 7.6
      vertex 12.3375 7.6241 0
      vertex 12.1384 8.07784 7.6
    endloop
  endfacet
  facet normal 0.837167 0.546947 0
    outer loop
      vertex 12.1384 8.07784 0
      vertex 11.8674 8.49264 0
      vertex 11.8674 8.49264 7.6
    endloop
  endfacet
  facet normal 0.837167 0.546947 0
    outer loop
      vertex 12.1384 8.07784 7.6
      vertex 12.1384 8.07784 0
      vertex 11.8674 8.49264 7.6
    endloop
  endfacet
  facet normal 0.735724 0.677281 0
    outer loop
      vertex 11.8674 8.49264 0
      vertex 11.5318 8.85717 0
      vertex 11.5318 8.85717 7.6
    endloop
  endfacet
  facet normal 0.735724 0.677281 0
    outer loop
      vertex 11.8674 8.49264 7.6
      vertex 11.8674 8.49264 0
      vertex 11.5318 8.85717 7.6
    endloop
  endfacet
  facet normal 0.614211 0.789142 0
    outer loop
      vertex 11.1408 9.1615 0
      vertex 11.1408 9.1615 7.6
      vertex 11.5318 8.85717 0
    endloop
  endfacet
  facet normal 0.614211 0.789142 0
    outer loop
      vertex 11.5318 8.85717 0
      vertex 11.1408 9.1615 7.6
      vertex 11.5318 8.85717 7.6
    endloop
  endfacet
  facet normal 0.475948 0.879473 0
    outer loop
      vertex 10.7051 9.39732 0
      vertex 10.7051 9.39732 7.6
      vertex 11.1408 9.1615 0
    endloop
  endfacet
  facet normal 0.475948 0.879473 0
    outer loop
      vertex 11.1408 9.1615 0
      vertex 10.7051 9.39732 7.6
      vertex 11.1408 9.1615 7.6
    endloop
  endfacet
  facet normal 0.3247 0.945817 0
    outer loop
      vertex 10.2365 9.5582 0
      vertex 10.2365 9.5582 7.6
      vertex 10.7051 9.39732 0
    endloop
  endfacet
  facet normal 0.3247 0.945817 0
    outer loop
      vertex 10.7051 9.39732 0
      vertex 10.2365 9.5582 7.6
      vertex 10.7051 9.39732 7.6
    endloop
  endfacet
  facet normal 0.164593 0.986362 0
    outer loop
      vertex 9.74774 9.63975 0
      vertex 9.74774 9.63975 7.6
      vertex 10.2365 9.5582 0
    endloop
  endfacet
  facet normal 0.164593 0.986362 0
    outer loop
      vertex 10.2365 9.5582 0
      vertex 9.74774 9.63975 7.6
      vertex 10.2365 9.5582 7.6
    endloop
  endfacet
  facet normal 0 1 0
    outer loop
      vertex -9.74774 9.63975 0
      vertex -9.74774 9.63975 7.6
      vertex 9.74774 9.63975 0
    endloop
  endfacet
  facet normal 0 1 0
    outer loop
      vertex 9.74774 9.63975 0
      vertex -9.74774 9.63975 7.6
      vertex 9.74774 9.63975 7.6
    endloop
  endfacet
  facet normal -0.164593 0.986362 0
    outer loop
      vertex -10.2365 9.5582 0
      vertex -10.2365 9.5582 7.6
      vertex -9.74774 9.63975 0
    endloop
  endfacet
  facet normal -0.164593 0.986362 0
    outer loop
      vertex -9.74774 9.63975 0
      vertex -10.2365 9.5582 7.6
      vertex -9.74774 9.63975 7.6
    endloop
  endfacet
  facet normal -0.3247 0.945817 0
    outer loop
      vertex -10.7051 9.39732 0
      vertex -10.7051 9.39732 7.6
      vertex -10.2365 9.5582 0
    endloop
  endfacet
  facet normal -0.3247 0.945817 0
    outer loop
      vertex -10.2365 9.5582 0
      vertex -10.7051 9.39732 7.6
      vertex -10.2365 9.5582 7.6
    endloop
  endfacet
  facet normal -0.475948 0.879473 0
    outer loop
      vertex -11.1408 9.1615 0
      vertex -11.1408 9.1615 7.6
      vertex -10.7051 9.39732 0
    endloop
  endfacet
  facet normal -0.475948 0.879473 0
    outer loop
      vertex -10.7051 9.39732 0
      vertex -11.1408 9.1615 7.6
      vertex -10.7051 9.39732 7.6
    endloop
  endfacet
  facet normal -0.614211 0.789142 0
    outer loop
      vertex -11.5318 8.85717 0
      vertex -11.5318 8.85717 7.6
      vertex -11.1408 9.1615 0
    endloop
  endfacet
  facet normal -0.614211 0.789142 0
    outer loop
      vertex -11.1408 9.1615 0
      vertex -11.5318 8.85717 7.6
      vertex -11.1408 9.1615 7.6
    endloop
  endfacet
  facet normal -0.735724 0.677281 0
    outer loop
      vertex -11.8674 8.49264 0
      vertex -11.8674 8.49264 7.6
      vertex -11.5318 8.85717 0
    endloop
  endfacet
  facet normal -0.735724 0.677281 0
    outer loop
      vertex -11.5318 8.85717 0
      vertex -11.8674 8.49264 7.6
      vertex -11.5318 8.85717 7.6
    endloop
  endfacet
  facet normal -0.837167 0.546947 0
    outer loop
      vertex -12.1384 8.07784 0
      vertex -12.1384 8.07784 7.6
      vertex -11.8674 8.49264 0
    endloop
  endfacet
  facet normal -0.837167 0.546947 0
    outer loop
      vertex -11.8674 8.49264 0
      vertex -12.1384 8.07784 7.6
      vertex -11.8674 8.49264 7.6
    endloop
  endfacet
  facet normal -0.915773 0.401696 0
    outer loop
      vertex -12.3375 7.6241 0
      vertex -12.3375 7.6241 7.6
      vertex -12.1384 8.07784 0
    endloop
  endfacet
  facet normal -0.915773 0.401696 0
    outer loop
      vertex -12.1384 8.07784 0
      vertex -12.3375 7.6241 7.6
      vertex -12.1384 8.07784 7.6
    endloop
  endfacet
  facet normal -0.9694 0.245485 0
    outer loop
      vertex -12.4591 7.14378 0
      vertex -12.4591 7.14378 7.6
      vertex -12.3375 7.6241 0
    endloop
  endfacet
  facet normal -0.9694 0.245485 0
    outer loop
      vertex -12.3375 7.6241 0
      vertex -12.4591 7.14378 7.6
      vertex -12.3375 7.6241 7.6
    endloop
  endfacet
  facet normal -0.996585 0.0825791 0
    outer loop
      vertex -12.5 6.65 0
      vertex -12.5 6.65 7.6
      vertex -12.4591 7.14378 0
    endloop
  endfacet
  facet normal -0.996585 0.0825791 0
    outer loop
      vertex -12.4591 7.14378 0
      vertex -12.5 6.65 7.6
      vertex -12.4591 7.14378 7.6
    endloop
  endfacet
  facet normal 0.62349 -0.781831 0
    outer loop
      vertex -7.27977 -3.76706 0
      vertex -7.27977 -3.76706 4.8
      vertex -8.495 -4.73618 4.8
    endloop
  endfacet
  facet normal 0.62349 -0.781831 0
    outer loop
      vertex -8.5901 -4.81201 0
      vertex -7.27977 -3.76706 0
      vertex -8.495 -4.73618 4.8
    endloop
  endfacet
  facet normal 0.62349 -0.781831 0
    outer loop
      vertex -8.495 -4.73618 7.6
      vertex -8.5901 -4.81201 7.6
      vertex -8.495 -4.73618 4.8
    endloop
  endfacet
  facet normal 0.62349 -0.781831 0
    outer loop
      vertex -8.5901 -4.81201 7.6
      vertex -8.5901 -4.81201 0
      vertex -8.495 -4.73618 4.8
    endloop
  endfacet
  facet normal 1 0 0
    outer loop
      vertex -8.5901 -4.81201 0
      vertex -8.5901 -4.81201 7.6
      vertex -8.5901 -6.48799 7.6
    endloop
  endfacet
  facet normal 1 0 0
    outer loop
      vertex -8.5901 -6.48799 0
      vertex -8.5901 -4.81201 0
      vertex -8.5901 -6.48799 7.6
    endloop
  endfacet
  facet normal -0.222522 -0.974928 0
    outer loop
      vertex -5.64582 -4.14 0
      vertex -5.64582 -4.14 4.8
      vertex -7.27977 -3.76706 4.8
    endloop
  endfacet
  facet normal -0.222522 -0.974928 0
    outer loop
      vertex -7.27977 -3.76706 0
      vertex -5.64582 -4.14 0
      vertex -7.27977 -3.76706 4.8
    endloop
  endfacet
  facet normal -0.900969 -0.433884 0
    outer loop
      vertex -4.91864 -5.65 7.6
      vertex -5.205 -5.05536 7.6
      vertex -4.91864 -5.65 0
    endloop
  endfacet
  facet normal -0.900969 -0.433884 0
    outer loop
      vertex -4.91864 -5.65 0
      vertex -5.205 -5.05536 7.6
      vertex -5.205 -5.05536 4.8
    endloop
  endfacet
  facet normal -0.900969 -0.433884 0
    outer loop
      vertex -4.91864 -5.65 0
      vertex -5.205 -5.05536 4.8
      vertex -5.64582 -4.14 4.8
    endloop
  endfacet
  facet normal -0.900969 -0.433884 0
    outer loop
      vertex -4.91864 -5.65 0
      vertex -5.64582 -4.14 4.8
      vertex -5.64582 -4.14 0
    endloop
  endfacet
  facet normal -0.900969 0.433884 0
    outer loop
      vertex -4.91864 -5.65 7.6
      vertex -4.91864 -5.65 0
      vertex -5.64582 -7.16 7.6
    endloop
  endfacet
  facet normal -0.900969 0.433884 0
    outer loop
      vertex -5.64582 -7.16 7.6
      vertex -4.91864 -5.65 0
      vertex -5.64582 -7.16 0
    endloop
  endfacet
  facet normal -0.222522 0.974928 0
    outer loop
      vertex -5.64582 -7.16 7.6
      vertex -5.64582 -7.16 0
      vertex -7.27977 -7.53294 7.6
    endloop
  endfacet
  facet normal -0.222522 0.974928 0
    outer loop
      vertex -7.27977 -7.53294 7.6
      vertex -5.64582 -7.16 0
      vertex -7.27977 -7.53294 0
    endloop
  endfacet
  facet normal 0.62349 0.781831 0
    outer loop
      vertex -7.27977 -7.53294 7.6
      vertex -7.27977 -7.53294 0
      vertex -8.5901 -6.48799 7.6
    endloop
  endfacet
  facet normal 0.62349 0.781831 0
    outer loop
      vertex -8.5901 -6.48799 7.6
      vertex -7.27977 -7.53294 0
      vertex -8.5901 -6.48799 0
    endloop
  endfacet
  facet normal 0.62349 -0.781831 0
    outer loop
      vertex -7.27977 7.53294 0
      vertex -7.27977 7.53294 7.6
      vertex -8.5901 6.48799 7.6
    endloop
  endfacet
  facet normal 0.62349 -0.781831 0
    outer loop
      vertex -8.5901 6.48799 0
      vertex -7.27977 7.53294 0
      vertex -8.5901 6.48799 7.6
    endloop
  endfacet
  facet normal 1 0 0
    outer loop
      vertex -8.5901 6.48799 0
      vertex -8.5901 6.48799 7.6
      vertex -8.5901 4.81201 7.6
    endloop
  endfacet
  facet normal 1 0 0
    outer loop
      vertex -8.5901 4.81201 0
      vertex -8.5901 6.48799 0
      vertex -8.5901 4.81201 7.6
    endloop
  endfacet
  facet normal -0.222522 -0.974928 0
    outer loop
      vertex -5.64582 7.16 0
      vertex -5.64582 7.16 7.6
      vertex -7.27977 7.53294 7.6
    endloop
  endfacet
  facet normal -0.222522 -0.974928 0
    outer loop
      vertex -7.27977 7.53294 0
      vertex -5.64582 7.16 0
      vertex -7.27977 7.53294 7.6
    endloop
  endfacet
  facet normal -0.900969 -0.433884 0
    outer loop
      vertex -4.91864 5.65 7.6
      vertex -5.64582 7.16 7.6
      vertex -4.91864 5.65 0
    endloop
  endfacet
  facet normal -0.900969 -0.433884 0
    outer loop
      vertex -4.91864 5.65 0
      vertex -5.64582 7.16 7.6
      vertex -5.64582 7.16 0
    endloop
  endfacet
  facet normal -0.900969 0.433884 0
    outer loop
      vertex -5.205 5.05536 4.8
      vertex -5.205 5.05536 7.6
      vertex -4.91864 5.65 7.6
    endloop
  endfacet
  facet normal -0.900969 0.433884 0
    outer loop
      vertex -5.205 5.05536 4.8
      vertex -4.91864 5.65 7.6
      vertex -4.91864 5.65 0
    endloop
  endfacet
  facet normal -0.900969 0.433884 0
    outer loop
      vertex -5.205 5.05536 4.8
      vertex -4.91864 5.65 0
      vertex -5.64582 4.14 4.8
    endloop
  endfacet
  facet normal -0.900969 0.433884 0
    outer loop
      vertex -4.91864 5.65 0
      vertex -5.64582 4.14 0
      vertex -5.64582 4.14 4.8
    endloop
  endfacet
  facet normal -0.222522 0.974928 0
    outer loop
      vertex -5.64582 4.14 4.8
      vertex -5.64582 4.14 0
      vertex -7.27977 3.76706 4.8
    endloop
  endfacet
  facet normal -0.222522 0.974928 0
    outer loop
      vertex -7.27977 3.76706 4.8
      vertex -5.64582 4.14 0
      vertex -7.27977 3.76706 0
    endloop
  endfacet
  facet normal 0.62349 0.781831 0
    outer loop
      vertex -8.495 4.73618 7.6
      vertex -8.495 4.73618 4.8
      vertex -8.5901 4.81201 7.6
    endloop
  endfacet
  facet normal 0.62349 0.781831 0
    outer loop
      vertex -7.27977 3.76706 0
      vertex -8.495 4.73618 4.8
      vertex -7.27977 3.76706 4.8
    endloop
  endfacet
  facet normal 0.62349 0.781831 0
    outer loop
      vertex -8.5901 4.81201 0
      vertex -8.495 4.73618 4.8
      vertex -7.27977 3.76706 0
    endloop
  endfacet
  facet normal 0.62349 0.781831 0
    outer loop
      vertex -8.5901 4.81201 7.6
      vertex -8.495 4.73618 4.8
      vertex -8.5901 4.81201 0
    endloop
  endfacet
  facet normal 1 0 0
    outer loop
      vertex 5.1099 -4.81201 0
      vertex 5.1099 -4.81201 7.6
      vertex 5.1099 -6.48799 7.6
    endloop
  endfacet
  facet normal 1 0 0
    outer loop
      vertex 5.1099 -6.48799 0
      vertex 5.1099 -4.81201 0
      vertex 5.1099 -6.48799 7.6
    endloop
  endfacet
  facet normal 0.62349 -0.781831 0
    outer loop
      vertex 6.42023 -3.76706 0
      vertex 6.42023 -3.76706 4.8
      vertex 5.205 -4.73618 4.8
    endloop
  endfacet
  facet normal 0.62349 -0.781831 0
    outer loop
      vertex 5.1099 -4.81201 0
      vertex 6.42023 -3.76706 0
      vertex 5.205 -4.73618 4.8
    endloop
  endfacet
  facet normal 0.62349 -0.781831 0
    outer loop
      vertex 5.205 -4.73618 7.6
      vertex 5.1099 -4.81201 7.6
      vertex 5.205 -4.73618 4.8
    endloop
  endfacet
  facet normal 0.62349 -0.781831 0
    outer loop
      vertex 5.1099 -4.81201 7.6
      vertex 5.1099 -4.81201 0
      vertex 5.205 -4.73618 4.8
    endloop
  endfacet
  facet normal -0.222522 -0.974928 0
    outer loop
      vertex 8.05418 -4.14 0
      vertex 8.05418 -4.14 4.8
      vertex 6.42023 -3.76706 4.8
    endloop
  endfacet
  facet normal -0.222522 -0.974928 0
    outer loop
      vertex 6.42023 -3.76706 0
      vertex 8.05418 -4.14 0
      vertex 6.42023 -3.76706 4.8
    endloop
  endfacet
  facet normal -0.900969 -0.433884 0
    outer loop
      vertex 8.78136 -5.65 7.6
      vertex 8.495 -5.05536 7.6
      vertex 8.78136 -5.65 0
    endloop
  endfacet
  facet normal -0.900969 -0.433884 0
    outer loop
      vertex 8.78136 -5.65 0
      vertex 8.495 -5.05536 7.6
      vertex 8.495 -5.05536 4.8
    endloop
  endfacet
  facet normal -0.900969 -0.433884 0
    outer loop
      vertex 8.78136 -5.65 0
      vertex 8.495 -5.05536 4.8
      vertex 8.05418 -4.14 4.8
    endloop
  endfacet
  facet normal -0.900969 -0.433884 0
    outer loop
      vertex 8.78136 -5.65 0
      vertex 8.05418 -4.14 4.8
      vertex 8.05418 -4.14 0
    endloop
  endfacet
  facet normal -0.900969 0.433884 0
    outer loop
      vertex 8.78136 -5.65 7.6
      vertex 8.78136 -5.65 0
      vertex 8.05418 -7.16 7.6
    endloop
  endfacet
  facet normal -0.900969 0.433884 0
    outer loop
      vertex 8.05418 -7.16 7.6
      vertex 8.78136 -5.65 0
      vertex 8.05418 -7.16 0
    endloop
  endfacet
  facet normal -0.222522 0.974928 0
    outer loop
      vertex 8.05418 -7.16 7.6
      vertex 8.05418 -7.16 0
      vertex 6.42023 -7.53294 7.6
    endloop
  endfacet
  facet normal -0.222522 0.974928 0
    outer loop
      vertex 6.42023 -7.53294 7.6
      vertex 8.05418 -7.16 0
      vertex 6.42023 -7.53294 0
    endloop
  endfacet
  facet normal 0.62349 0.781831 0
    outer loop
      vertex 6.42023 -7.53294 7.6
      vertex 6.42023 -7.53294 0
      vertex 5.1099 -6.48799 7.6
    endloop
  endfacet
  facet normal 0.62349 0.781831 0
    outer loop
      vertex 5.1099 -6.48799 7.6
      vertex 6.42023 -7.53294 0
      vertex 5.1099 -6.48799 0
    endloop
  endfacet
  facet normal 0.62349 -0.781831 0
    outer loop
      vertex 6.42023 7.53294 0
      vertex 6.42023 7.53294 7.6
      vertex 5.1099 6.48799 7.6
    endloop
  endfacet
  facet normal 0.62349 -0.781831 0
    outer loop
      vertex 5.1099 6.48799 0
      vertex 6.42023 7.53294 0
      vertex 5.1099 6.48799 7.6
    endloop
  endfacet
  facet normal 1 0 0
    outer loop
      vertex 5.1099 6.48799 0
      vertex 5.1099 6.48799 7.6
      vertex 5.1099 4.81201 7.6
    endloop
  endfacet
  facet normal 1 0 0
    outer loop
      vertex 5.1099 4.81201 0
      vertex 5.1099 6.48799 0
      vertex 5.1099 4.81201 7.6
    endloop
  endfacet
  facet normal -0.222522 -0.974928 0
    outer loop
      vertex 8.05418 7.16 0
      vertex 8.05418 7.16 7.6
      vertex 6.42023 7.53294 7.6
    endloop
  endfacet
  facet normal -0.222522 -0.974928 0
    outer loop
      vertex 6.42023 7.53294 0
      vertex 8.05418 7.16 0
      vertex 6.42023 7.53294 7.6
    endloop
  endfacet
  facet normal -0.900969 -0.433884 0
    outer loop
      vertex 8.78136 5.65 7.6
      vertex 8.05418 7.16 7.6
      vertex 8.78136 5.65 0
    endloop
  endfacet
  facet normal -0.900969 -0.433884 0
    outer loop
      vertex 8.78136 5.65 0
      vertex 8.05418 7.16 7.6
      vertex 8.05418 7.16 0
    endloop
  endfacet
  facet normal -0.900969 0.433884 0
    outer loop
      vertex 8.495 5.05536 4.8
      vertex 8.495 5.05536 7.6
      vertex 8.78136 5.65 7.6
    endloop
  endfacet
  facet normal -0.900969 0.433884 0
    outer loop
      vertex 8.495 5.05536 4.8
      vertex 8.78136 5.65 7.6
      vertex 8.78136 5.65 0
    endloop
  endfacet
  facet normal -0.900969 0.433884 0
    outer loop
      vertex 8.495 5.05536 4.8
      vertex 8.78136 5.65 0
      vertex 8.05418 4.14 4.8
    endloop
  endfacet
  facet normal -0.900969 0.433884 0
    outer loop
      vertex 8.78136 5.65 0
      vertex 8.05418 4.14 0
      vertex 8.05418 4.14 4.8
    endloop
  endfacet
  facet normal -0.222522 0.974928 0
    outer loop
      vertex 8.05418 4.14 4.8
      vertex 8.05418 4.14 0
      vertex 6.42023 3.76706 4.8
    endloop
  endfacet
  facet normal -0.222522 0.974928 0
    outer loop
      vertex 6.42023 3.76706 4.8
      vertex 8.05418 4.14 0
      vertex 6.42023 3.76706 0
    endloop
  endfacet
  facet normal 0.62349 0.781831 0
    outer loop
      vertex 5.205 4.73618 7.6
      vertex 5.205 4.73618 4.8
      vertex 5.1099 4.81201 7.6
    endloop
  endfacet
  facet normal 0.62349 0.781831 0
    outer loop
      vertex 6.42023 3.76706 0
      vertex 5.205 4.73618 4.8
      vertex 6.42023 3.76706 4.8
    endloop
  endfacet
  facet normal 0.62349 0.781831 0
    outer loop
      vertex 5.1099 4.81201 0
      vertex 5.205 4.73618 4.8
      vertex 6.42023 3.76706 0
    endloop
  endfacet
  facet normal 0.62349 0.781831 0
    outer loop
      vertex 5.1099 4.81201 7.6
      vertex 5.205 4.73618 4.8
      vertex 5.1099 4.81201 0
    endloop
  endfacet
  facet normal 0 0 1
    outer loop
      vertex -12.5 6.65 7.6
      vertex -12.5 4.07571 7.6
      vertex -8.495 4.07571 7.6
    endloop
  endfacet
  facet normal 0 0 1
    outer loop
      vertex -8.5901 4.81201 7.6
      vertex -12.5 6.65 7.6
      vertex -8.495 4.73618 7.6
    endloop
  endfacet
  facet normal 0 0 1
    outer loop
      vertex -8.495 4.73618 7.6
      vertex -12.5 6.65 7.6
      vertex -8.495 4.07571 7.6
    endloop
  endfacet
  facet normal 0 0 1
    outer loop
      vertex -8.5901 6.48799 7.6
      vertex -12.5 6.65 7.6
      vertex -8.5901 4.81201 7.6
    endloop
  endfacet
  facet normal 0 0 1
    outer loop
      vertex -7.27977 7.53294 7.6
      vertex -12.5 6.65 7.6
      vertex -8.5901 6.48799 7.6
    endloop
  endfacet
  facet normal 0 0 1
    outer loop
      vertex -9.74774 9.63975 7.6
      vertex -12.5 6.65 7.6
      vertex -7.27977 7.53294 7.6
    endloop
  endfacet
  facet normal 0 0 1
    outer loop
      vertex 5.205 4.73618 7.6
      vertex -7.27977 7.53294 7.6
      vertex -5.64582 7.16 7.6
    endloop
  endfacet
  facet normal 0 0 1
    outer loop
      vertex 5.205 4.07571 7.6
      vertex -5.64582 7.16 7.6
      vertex -4.91864 5.65 7.6
    endloop
  endfacet
  facet normal 0 0 1
    outer loop
      vertex -5.205 4.07571 7.6
      vertex -4.91864 5.65 7.6
      vertex -5.205 5.05536 7.6
    endloop
  endfacet
  facet normal 0 0 1
    outer loop
      vertex 5.205 4.07571 7.6
      vertex -4.91864 5.65 7.6
      vertex -5.205 4.07571 7.6
    endloop
  endfacet
  facet normal 0 0 1
    outer loop
      vertex 5.205 4.73618 7.6
      vertex -5.64582 7.16 7.6
      vertex 5.205 4.07571 7.6
    endloop
  endfacet
  facet normal 0 0 1
    outer loop
      vertex 5.1099 4.81201 7.6
      vertex -7.27977 7.53294 7.6
      vertex 5.205 4.73618 7.6
    endloop
  endfacet
  facet normal 0 0 1
    outer loop
      vertex 5.1099 6.48799 7.6
      vertex -7.27977 7.53294 7.6
      vertex 5.1099 4.81201 7.6
    endloop
  endfacet
  facet normal 0 0 1
    outer loop
      vertex 6.42023 7.53294 7.6
      vertex -7.27977 7.53294 7.6
      vertex 5.1099 6.48799 7.6
    endloop
  endfacet
  facet normal 0 0 1
    outer loop
      vertex 12.3375 7.6241 7.6
      vertex -7.27977 7.53294 7.6
      vertex 6.42023 7.53294 7.6
    endloop
  endfacet
  facet normal 0 0 1
    outer loop
      vertex 12.5 6.65 7.6
      vertex 6.42023 7.53294 7.6
      vertex 8.05418 7.16 7.6
    endloop
  endfacet
  facet normal 0 0 1
    outer loop
      vertex 12.5 4.07571 7.6
      vertex 8.05418 7.16 7.6
      vertex 8.78136 5.65 7.6
    endloop
  endfacet
  facet normal 0 0 1
    outer loop
      vertex 8.495 4.07571 7.6
      vertex 8.78136 5.65 7.6
      vertex 8.495 5.05536 7.6
    endloop
  endfacet
  facet normal 0 0 1
    outer loop
      vertex 12.5 4.07571 7.6
      vertex 8.78136 5.65 7.6
      vertex 8.495 4.07571 7.6
    endloop
  endfacet
  facet normal 0 0 1
    outer loop
      vertex 12.5 6.65 7.6
      vertex 8.05418 7.16 7.6
      vertex 12.5 4.07571 7.6
    endloop
  endfacet
  facet normal 0 0 1
    outer loop
      vertex 12.4591 7.14378 7.6
      vertex 6.42023 7.53294 7.6
      vertex 12.5 6.65 7.6
    endloop
  endfacet
  facet normal 0 0 1
    outer loop
      vertex 12.3375 7.6241 7.6
      vertex 6.42023 7.53294 7.6
      vertex 12.4591 7.14378 7.6
    endloop
  endfacet
  facet normal 0 0 1
    outer loop
      vertex 12.1384 8.07784 7.6
      vertex -7.27977 7.53294 7.6
      vertex 12.3375 7.6241 7.6
    endloop
  endfacet
  facet normal 0 0 1
    outer loop
      vertex 11.8674 8.49264 7.6
      vertex -7.27977 7.53294 7.6
      vertex 12.1384 8.07784 7.6
    endloop
  endfacet
  facet normal 0 0 1
    outer loop
      vertex 11.5318 8.85717 7.6
      vertex -7.27977 7.53294 7.6
      vertex 11.8674 8.49264 7.6
    endloop
  endfacet
  facet normal 0 0 1
    outer loop
      vertex 11.1408 9.1615 7.6
      vertex -7.27977 7.53294 7.6
      vertex 11.5318 8.85717 7.6
    endloop
  endfacet
  facet normal 0 0 1
    outer loop
      vertex 10.7051 9.39732 7.6
      vertex -7.27977 7.53294 7.6
      vertex 11.1408 9.1615 7.6
    endloop
  endfacet
  facet normal 0 0 1
    outer loop
      vertex 10.2365 9.5582 7.6
      vertex -7.27977 7.53294 7.6
      vertex 10.7051 9.39732 7.6
    endloop
  endfacet
  facet normal 0 0 1
    outer loop
      vertex 9.74774 9.63975 7.6
      vertex -7.27977 7.53294 7.6
      vertex 10.2365 9.5582 7.6
    endloop
  endfacet
  facet normal 0 0 1
    outer loop
      vertex -9.74774 9.63975 7.6
      vertex -7.27977 7.53294 7.6
      vertex 9.74774 9.63975 7.6
    endloop
  endfacet
  facet normal 0 0 1
    outer loop
      vertex -10.2365 9.5582 7.6
      vertex -12.5 6.65 7.6
      vertex -9.74774 9.63975 7.6
    endloop
  endfacet
  facet normal 0 0 1
    outer loop
      vertex -10.7051 9.39732 7.6
      vertex -12.5 6.65 7.6
      vertex -10.2365 9.5582 7.6
    endloop
  endfacet
  facet normal 0 0 1
    outer loop
      vertex -11.1408 9.1615 7.6
      vertex -12.5 6.65 7.6
      vertex -10.7051 9.39732 7.6
    endloop
  endfacet
  facet normal 0 0 1
    outer loop
      vertex -11.5318 8.85717 7.6
      vertex -12.5 6.65 7.6
      vertex -11.1408 9.1615 7.6
    endloop
  endfacet
  facet normal 0 0 1
    outer loop
      vertex -11.8674 8.49264 7.6
      vertex -12.5 6.65 7.6
      vertex -11.5318 8.85717 7.6
    endloop
  endfacet
  facet normal 0 0 1
    outer loop
      vertex -12.1384 8.07784 7.6
      vertex -12.5 6.65 7.6
      vertex -11.8674 8.49264 7.6
    endloop
  endfacet
  facet normal 0 0 1
    outer loop
      vertex -12.3375 7.6241 7.6
      vertex -12.5 6.65 7.6
      vertex -12.1384 8.07784 7.6
    endloop
  endfacet
  facet normal 0 0 1
    outer loop
      vertex -12.4591 7.14378 7.6
      vertex -12.5 6.65 7.6
      vertex -12.3375 7.6241 7.6
    endloop
  endfacet
  facet normal -2.31731e-016 -0.998161 0.0606171
    outer loop
      vertex -8.495 4.07 7.506
      vertex -8.495 4.07571 7.6
      vertex -12.5 4.07571 7.6
    endloop
  endfacet
  facet normal -2.31731e-016 -0.998161 0.0606171
    outer loop
      vertex -12.5 4.07 7.506
      vertex -8.495 4.07 7.506
      vertex -12.5 4.07571 7.6
    endloop
  endfacet
  facet normal -2.48365e-016 -0.983708 0.179774
    outer loop
      vertex -8.495 3.981 7.019
      vertex -8.495 4.07 7.506
      vertex -12.5 4.07 7.506
    endloop
  endfacet
  facet normal -2.48365e-016 -0.983708 0.179774
    outer loop
      vertex -12.5 3.981 7.019
      vertex -8.495 3.981 7.019
      vertex -12.5 4.07 7.506
    endloop
  endfacet
  facet normal -2.61464e-016 -0.954946 0.29678
    outer loop
      vertex -8.495 3.834 6.546
      vertex -8.495 3.981 7.019
      vertex -12.5 3.981 7.019
    endloop
  endfacet
  facet normal -2.61464e-016 -0.954946 0.29678
    outer loop
      vertex -12.5 3.834 6.546
      vertex -8.495 3.834 6.546
      vertex -12.5 3.981 7.019
    endloop
  endfacet
  facet normal -2.70944e-016 -0.911126 0.412128
    outer loop
      vertex -8.495 3.63 6.095
      vertex -8.495 3.834 6.546
      vertex -12.5 3.834 6.546
    endloop
  endfacet
  facet normal -2.70944e-016 -0.911126 0.412128
    outer loop
      vertex -12.5 3.63 6.095
      vertex -8.495 3.63 6.095
      vertex -12.5 3.834 6.546
    endloop
  endfacet
  facet normal -2.7616e-016 -0.856064 0.516869
    outer loop
      vertex -8.495 3.374 5.671
      vertex -8.495 3.63 6.095
      vertex -12.5 3.63 6.095
    endloop
  endfacet
  facet normal -2.7616e-016 -0.856064 0.516869
    outer loop
      vertex -12.5 3.374 5.671
      vertex -8.495 3.374 5.671
      vertex -12.5 3.63 6.095
    endloop
  endfacet
  facet normal -2.77499e-016 -0.787718 0.616036
    outer loop
      vertex -8.495 3.069 5.281
      vertex -8.495 3.374 5.671
      vertex -12.5 3.374 5.671
    endloop
  endfacet
  facet normal -2.77499e-016 -0.787718 0.616036
    outer loop
      vertex -12.5 3.069 5.281
      vertex -8.495 3.069 5.281
      vertex -12.5 3.374 5.671
    endloop
  endfacet
  facet normal -2.74766e-016 -0.707107 0.707107
    outer loop
      vertex -8.495 2.719 4.931
      vertex -8.495 3.069 5.281
      vertex -12.5 3.069 5.281
    endloop
  endfacet
  facet normal -2.74766e-016 -0.707107 0.707107
    outer loop
      vertex -12.5 2.719 4.931
      vertex -8.495 2.719 4.931
      vertex -12.5 3.069 5.281
    endloop
  endfacet
  facet normal -2.67969e-016 -0.616036 0.787718
    outer loop
      vertex 12.5 2.329 4.626
      vertex 12.5 2.719 4.931
      vertex 8.495 2.719 4.931
    endloop
  endfacet
  facet normal -2.67969e-016 -0.616036 0.787718
    outer loop
      vertex 5.205 2.55149 4.8
      vertex 12.5 2.329 4.626
      vertex 8.495 2.55149 4.8
    endloop
  endfacet
  facet normal -2.67969e-016 -0.616036 0.787718
    outer loop
      vertex 8.495 2.55149 4.8
      vertex 12.5 2.329 4.626
      vertex 8.495 2.719 4.931
    endloop
  endfacet
  facet normal -2.67969e-016 -0.616036 0.787718
    outer loop
      vertex -5.205 2.719 4.931
      vertex 12.5 2.329 4.626
      vertex 5.205 2.55149 4.8
    endloop
  endfacet
  facet normal -2.67969e-016 -0.616036 0.787718
    outer loop
      vertex -5.205 2.719 4.931
      vertex 5.205 2.55149 4.8
      vertex 5.205 2.719 4.931
    endloop
  endfacet
  facet normal -2.67969e-016 -0.616036 0.787718
    outer loop
      vertex -5.205 2.55149 4.8
      vertex 12.5 2.329 4.626
      vertex -5.205 2.719 4.931
    endloop
  endfacet
  facet normal -2.67969e-016 -0.616036 0.787718
    outer loop
      vertex -8.495 2.55149 4.8
      vertex 12.5 2.329 4.626
      vertex -5.205 2.55149 4.8
    endloop
  endfacet
  facet normal -2.67969e-016 -0.616036 0.787718
    outer loop
      vertex -12.5 2.329 4.626
      vertex 12.5 2.329 4.626
      vertex -8.495 2.55149 4.8
    endloop
  endfacet
  facet normal -2.67969e-016 -0.616036 0.787718
    outer loop
      vertex -12.5 2.719 4.931
      vertex -8.495 2.55149 4.8
      vertex -8.495 2.719 4.931
    endloop
  endfacet
  facet normal -2.67969e-016 -0.616036 0.787718
    outer loop
      vertex -12.5 2.329 4.626
      vertex -8.495 2.55149 4.8
      vertex -12.5 2.719 4.931
    endloop
  endfacet
  facet normal -2.57331e-016 -0.516869 0.856064
    outer loop
      vertex 12.5 1.905 4.37
      vertex 12.5 2.329 4.626
      vertex -12.5 2.329 4.626
    endloop
  endfacet
  facet normal -2.57331e-016 -0.516869 0.856064
    outer loop
      vertex -12.5 1.905 4.37
      vertex 12.5 1.905 4.37
      vertex -12.5 2.329 4.626
    endloop
  endfacet
  facet normal -2.43244e-016 -0.412128 0.911126
    outer loop
      vertex 12.5 1.454 4.166
      vertex 12.5 1.905 4.37
      vertex -12.5 1.905 4.37
    endloop
  endfacet
  facet normal -2.43244e-016 -0.412128 0.911126
    outer loop
      vertex -12.5 1.454 4.166
      vertex 12.5 1.454 4.166
      vertex -12.5 1.905 4.37
    endloop
  endfacet
  facet normal -2.24929e-016 -0.29678 0.954946
    outer loop
      vertex 12.5 0.981 4.019
      vertex 12.5 1.454 4.166
      vertex -12.5 1.454 4.166
    endloop
  endfacet
  facet normal -2.24929e-016 -0.29678 0.954946
    outer loop
      vertex -12.5 0.981 4.019
      vertex 12.5 0.981 4.019
      vertex -12.5 1.454 4.166
    endloop
  endfacet
  facet normal -2.03738e-016 -0.179774 0.983708
    outer loop
      vertex 12.5 0.494 3.93
      vertex 12.5 0.981 4.019
      vertex -12.5 0.981 4.019
    endloop
  endfacet
  facet normal -2.03738e-016 -0.179774 0.983708
    outer loop
      vertex -12.5 0.494 3.93
      vertex 12.5 0.494 3.93
      vertex -12.5 0.981 4.019
    endloop
  endfacet
  facet normal -1.79687e-016 -0.0606171 0.998161
    outer loop
      vertex 12.5 -2.85868e-015 3.9
      vertex 12.5 0.494 3.93
      vertex -12.5 0.494 3.93
    endloop
  endfacet
  facet normal -1.79687e-016 -0.0606171 0.998161
    outer loop
      vertex -12.5 2.69243e-015 3.9
      vertex 12.5 -2.85868e-015 3.9
      vertex -12.5 0.494 3.93
    endloop
  endfacet
  facet normal -1.52768e-016 0.0606171 0.998161
    outer loop
      vertex 12.5 -0.494 3.93
      vertex 12.5 -2.85868e-015 3.9
      vertex -12.5 2.69243e-015 3.9
    endloop
  endfacet
  facet normal -1.52768e-016 0.0606171 0.998161
    outer loop
      vertex -12.5 -0.494 3.93
      vertex 12.5 -0.494 3.93
      vertex -12.5 2.69243e-015 3.9
    endloop
  endfacet
  facet normal -1.23902e-016 0.179774 0.983708
    outer loop
      vertex 12.5 -0.981 4.019
      vertex 12.5 -0.494 3.93
      vertex -12.5 -0.494 3.93
    endloop
  endfacet
  facet normal -1.23902e-016 0.179774 0.983708
    outer loop
      vertex -12.5 -0.981 4.019
      vertex 12.5 -0.981 4.019
      vertex -12.5 -0.494 3.93
    endloop
  endfacet
  facet normal -9.3132e-017 0.29678 0.954946
    outer loop
      vertex 12.5 -1.454 4.166
      vertex 12.5 -0.981 4.019
      vertex -12.5 -0.981 4.019
    endloop
  endfacet
  facet normal -9.3132e-017 0.29678 0.954946
    outer loop
      vertex -12.5 -1.454 4.166
      vertex 12.5 -1.454 4.166
      vertex -12.5 -0.981 4.019
    endloop
  endfacet
  facet normal -6.02222e-017 0.412128 0.911126
    outer loop
      vertex 12.5 -1.905 4.37
      vertex 12.5 -1.454 4.166
      vertex -12.5 -1.454 4.166
    endloop
  endfacet
  facet normal -6.02222e-017 0.412128 0.911126
    outer loop
      vertex -12.5 -1.905 4.37
      vertex 12.5 -1.905 4.37
      vertex -12.5 -1.454 4.166
    endloop
  endfacet
  facet normal -2.77954e-017 0.516869 0.856064
    outer loop
      vertex 12.5 -2.329 4.626
      vertex 12.5 -1.905 4.37
      vertex -12.5 -1.905 4.37
    endloop
  endfacet
  facet normal -2.77954e-017 0.516869 0.856064
    outer loop
      vertex -12.5 -2.329 4.626
      vertex 12.5 -2.329 4.626
      vertex -12.5 -1.905 4.37
    endloop
  endfacet
  facet normal 5.60604e-018 0.616036 0.787718
    outer loop
      vertex 12.5 -2.329 4.626
      vertex -8.495 -2.55149 4.8
      vertex -5.205 -2.55149 4.8
    endloop
  endfacet
  facet normal 5.60604e-018 0.616036 0.787718
    outer loop
      vertex 5.205 -2.55149 4.8
      vertex 12.5 -2.329 4.626
      vertex -5.205 -2.55149 4.8
    endloop
  endfacet
  facet normal 5.60604e-018 0.616036 0.787718
    outer loop
      vertex -8.495 -2.719 4.931
      vertex -8.495 -2.55149 4.8
      vertex -12.5 -2.329 4.626
    endloop
  endfacet
  facet normal 5.60604e-018 0.616036 0.787718
    outer loop
      vertex -5.205 -2.719 4.931
      vertex 5.205 -2.719 4.931
      vertex -5.205 -2.55149 4.8
    endloop
  endfacet
  facet normal 5.60604e-018 0.616036 0.787718
    outer loop
      vertex 5.205 -2.719 4.931
      vertex 5.205 -2.55149 4.8
      vertex -5.205 -2.55149 4.8
    endloop
  endfacet
  facet normal 5.60604e-018 0.616036 0.787718
    outer loop
      vertex 8.495 -2.55149 4.8
      vertex 12.5 -2.329 4.626
      vertex 5.205 -2.55149 4.8
    endloop
  endfacet
  facet normal 5.60604e-018 0.616036 0.787718
    outer loop
      vertex 8.495 -2.719 4.931
      vertex 12.5 -2.719 4.931
      vertex 8.495 -2.55149 4.8
    endloop
  endfacet
  facet normal 5.60604e-018 0.616036 0.787718
    outer loop
      vertex 12.5 -2.719 4.931
      vertex 12.5 -2.329 4.626
      vertex 8.495 -2.55149 4.8
    endloop
  endfacet
  facet normal 5.60604e-018 0.616036 0.787718
    outer loop
      vertex 12.5 -2.329 4.626
      vertex -12.5 -2.329 4.626
      vertex -8.495 -2.55149 4.8
    endloop
  endfacet
  facet normal 5.60604e-018 0.616036 0.787718
    outer loop
      vertex -12.5 -2.329 4.626
      vertex -12.5 -2.719 4.931
      vertex -8.495 -2.719 4.931
    endloop
  endfacet
  facet normal 3.92523e-017 0.707107 0.707107
    outer loop
      vertex -8.495 -2.719 4.931
      vertex -12.5 -2.719 4.931
      vertex -8.495 -3.069 5.281
    endloop
  endfacet
  facet normal 3.92523e-017 0.707107 0.707107
    outer loop
      vertex -8.495 -3.069 5.281
      vertex -12.5 -2.719 4.931
      vertex -12.5 -3.069 5.281
    endloop
  endfacet
  facet normal 7.2318e-017 0.787718 0.616036
    outer loop
      vertex -8.495 -3.069 5.281
      vertex -12.5 -3.069 5.281
      vertex -8.495 -3.374 5.671
    endloop
  endfacet
  facet normal 7.2318e-017 0.787718 0.616036
    outer loop
      vertex -8.495 -3.374 5.671
      vertex -12.5 -3.069 5.281
      vertex -12.5 -3.374 5.671
    endloop
  endfacet
  facet normal 1.04008e-016 0.856064 0.516869
    outer loop
      vertex -8.495 -3.374 5.671
      vertex -12.5 -3.374 5.671
      vertex -8.495 -3.63 6.095
    endloop
  endfacet
  facet normal 1.04008e-016 0.856064 0.516869
    outer loop
      vertex -8.495 -3.63 6.095
      vertex -12.5 -3.374 5.671
      vertex -12.5 -3.63 6.095
    endloop
  endfacet
  facet normal 1.33678e-016 0.911126 0.412128
    outer loop
      vertex -8.495 -3.63 6.095
      vertex -12.5 -3.63 6.095
      vertex -8.495 -3.834 6.546
    endloop
  endfacet
  facet normal 1.33678e-016 0.911126 0.412128
    outer loop
      vertex -8.495 -3.834 6.546
      vertex -12.5 -3.63 6.095
      vertex -12.5 -3.834 6.546
    endloop
  endfacet
  facet normal 1.62617e-016 0.954946 0.29678
    outer loop
      vertex -8.495 -3.834 6.546
      vertex -12.5 -3.834 6.546
      vertex -8.495 -3.981 7.019
    endloop
  endfacet
  facet normal 1.62617e-016 0.954946 0.29678
    outer loop
      vertex -8.495 -3.981 7.019
      vertex -12.5 -3.834 6.546
      vertex -12.5 -3.981 7.019
    endloop
  endfacet
  facet normal 1.88489e-016 0.983708 0.179774
    outer loop
      vertex -8.495 -3.981 7.019
      vertex -12.5 -3.981 7.019
      vertex -8.495 -4.07 7.506
    endloop
  endfacet
  facet normal 1.88489e-016 0.983708 0.179774
    outer loop
      vertex -8.495 -4.07 7.506
      vertex -12.5 -3.981 7.019
      vertex -12.5 -4.07 7.506
    endloop
  endfacet
  facet normal 2.11542e-016 0.998161 0.0606171
    outer loop
      vertex -8.495 -4.07 7.506
      vertex -12.5 -4.07 7.506
      vertex -8.495 -4.07571 7.6
    endloop
  endfacet
  facet normal 2.11542e-016 0.998161 0.0606171
    outer loop
      vertex -8.495 -4.07571 7.6
      vertex -12.5 -4.07 7.506
      vertex -12.5 -4.07571 7.6
    endloop
  endfacet
  facet normal 1 0 0
    outer loop
      vertex -8.495 -4.73618 4.8
      vertex -8.495 -2.719 4.931
      vertex -8.495 -3.069 5.281
    endloop
  endfacet
  facet normal 1 0 0
    outer loop
      vertex -8.495 -3.63 6.095
      vertex -8.495 -4.73618 7.6
      vertex -8.495 -3.374 5.671
    endloop
  endfacet
  facet normal 1 0 0
    outer loop
      vertex -8.495 -3.374 5.671
      vertex -8.495 -4.73618 4.8
      vertex -8.495 -3.069 5.281
    endloop
  endfacet
  facet normal 1 0 0
    outer loop
      vertex -8.495 -2.55149 4.8
      vertex -8.495 -2.719 4.931
      vertex -8.495 -4.73618 4.8
    endloop
  endfacet
  facet normal 1 0 0
    outer loop
      vertex -8.495 -3.834 6.546
      vertex -8.495 -4.73618 7.6
      vertex -8.495 -3.63 6.095
    endloop
  endfacet
  facet normal 1 0 0
    outer loop
      vertex -8.495 -3.981 7.019
      vertex -8.495 -4.73618 7.6
      vertex -8.495 -3.834 6.546
    endloop
  endfacet
  facet normal 1 0 0
    outer loop
      vertex -8.495 -4.07 7.506
      vertex -8.495 -4.73618 7.6
      vertex -8.495 -3.981 7.019
    endloop
  endfacet
  facet normal 1 0 0
    outer loop
      vertex -8.495 -4.07571 7.6
      vertex -8.495 -4.73618 7.6
      vertex -8.495 -4.07 7.506
    endloop
  endfacet
  facet normal 1 0 0
    outer loop
      vertex -8.495 -4.73618 7.6
      vertex -8.495 -4.73618 4.8
      vertex -8.495 -3.374 5.671
    endloop
  endfacet
  facet normal -1 0 0
    outer loop
      vertex -5.205 -4.07571 7.6
      vertex -5.205 -4.07 7.506
      vertex -5.205 -5.05536 7.6
    endloop
  endfacet
  facet normal -1 0 0
    outer loop
      vertex -5.205 -5.05536 7.6
      vertex -5.205 -4.07 7.506
      vertex -5.205 -3.981 7.019
    endloop
  endfacet
  facet normal -1 0 0
    outer loop
      vertex -5.205 -3.981 7.019
      vertex -5.205 -3.834 6.546
      vertex -5.205 -5.05536 7.6
    endloop
  endfacet
  facet normal -1 0 0
    outer loop
      vertex -5.205 -3.834 6.546
      vertex -5.205 -3.63 6.095
      vertex -5.205 -5.05536 7.6
    endloop
  endfacet
  facet normal -1 0 0
    outer loop
      vertex -5.205 -3.63 6.095
      vertex -5.205 -3.374 5.671
      vertex -5.205 -5.05536 7.6
    endloop
  endfacet
  facet normal -1 0 0
    outer loop
      vertex -5.205 -3.374 5.671
      vertex -5.205 -3.069 5.281
      vertex -5.205 -5.05536 7.6
    endloop
  endfacet
  facet normal -1 0 0
    outer loop
      vertex -5.205 -3.069 5.281
      vertex -5.205 -5.05536 4.8
      vertex -5.205 -5.05536 7.6
    endloop
  endfacet
  facet normal -1 0 0
    outer loop
      vertex -5.205 -2.719 4.931
      vertex -5.205 -2.55149 4.8
      vertex -5.205 -5.05536 4.8
    endloop
  endfacet
  facet normal -1 0 0
    outer loop
      vertex -5.205 -2.719 4.931
      vertex -5.205 -5.05536 4.8
      vertex -5.205 -3.069 5.281
    endloop
  endfacet
  facet normal 2.11542e-016 0.998161 0.0606171
    outer loop
      vertex 5.205 -4.07 7.506
      vertex -5.205 -4.07 7.506
      vertex 5.205 -4.07571 7.6
    endloop
  endfacet
  facet normal 2.11542e-016 0.998161 0.0606171
    outer loop
      vertex 5.205 -4.07571 7.6
      vertex -5.205 -4.07 7.506
      vertex -5.205 -4.07571 7.6
    endloop
  endfacet
  facet normal 1 0 0
    outer loop
      vertex 5.205 -4.73618 4.8
      vertex 5.205 -2.719 4.931
      vertex 5.205 -3.069 5.281
    endloop
  endfacet
  facet normal 1 0 0
    outer loop
      vertex 5.205 -3.63 6.095
      vertex 5.205 -4.73618 7.6
      vertex 5.205 -3.374 5.671
    endloop
  endfacet
  facet normal 1 0 0
    outer loop
      vertex 5.205 -3.374 5.671
      vertex 5.205 -4.73618 4.8
      vertex 5.205 -3.069 5.281
    endloop
  endfacet
  facet normal 1 0 0
    outer loop
      vertex 5.205 -2.55149 4.8
      vertex 5.205 -2.719 4.931
      vertex 5.205 -4.73618 4.8
    endloop
  endfacet
  facet normal 1 0 0
    outer loop
      vertex 5.205 -3.834 6.546
      vertex 5.205 -4.73618 7.6
      vertex 5.205 -3.63 6.095
    endloop
  endfacet
  facet normal 1 0 0
    outer loop
      vertex 5.205 -3.981 7.019
      vertex 5.205 -4.73618 7.6
      vertex 5.205 -3.834 6.546
    endloop
  endfacet
  facet normal 1 0 0
    outer loop
      vertex 5.205 -4.07 7.506
      vertex 5.205 -4.73618 7.6
      vertex 5.205 -3.981 7.019
    endloop
  endfacet
  facet normal 1 0 0
    outer loop
      vertex 5.205 -4.07571 7.6
      vertex 5.205 -4.73618 7.6
      vertex 5.205 -4.07 7.506
    endloop
  endfacet
  facet normal 1 0 0
    outer loop
      vertex 5.205 -4.73618 7.6
      vertex 5.205 -4.73618 4.8
      vertex 5.205 -3.374 5.671
    endloop
  endfacet
  facet normal -1 0 0
    outer loop
      vertex 8.495 -4.07571 7.6
      vertex 8.495 -4.07 7.506
      vertex 8.495 -5.05536 7.6
    endloop
  endfacet
  facet normal -1 0 0
    outer loop
      vertex 8.495 -5.05536 7.6
      vertex 8.495 -4.07 7.506
      vertex 8.495 -3.981 7.019
    endloop
  endfacet
  facet normal -1 0 0
    outer loop
      vertex 8.495 -3.981 7.019
      vertex 8.495 -3.834 6.546
      vertex 8.495 -5.05536 7.6
    endloop
  endfacet
  facet normal -1 0 0
    outer loop
      vertex 8.495 -3.834 6.546
      vertex 8.495 -3.63 6.095
      vertex 8.495 -5.05536 7.6
    endloop
  endfacet
  facet normal -1 0 0
    outer loop
      vertex 8.495 -3.63 6.095
      vertex 8.495 -3.374 5.671
      vertex 8.495 -5.05536 7.6
    endloop
  endfacet
  facet normal -1 0 0
    outer loop
      vertex 8.495 -3.374 5.671
      vertex 8.495 -3.069 5.281
      vertex 8.495 -5.05536 7.6
    endloop
  endfacet
  facet normal -1 0 0
    outer loop
      vertex 8.495 -3.069 5.281
      vertex 8.495 -5.05536 4.8
      vertex 8.495 -5.05536 7.6
    endloop
  endfacet
  facet normal -1 0 0
    outer loop
      vertex 8.495 -2.719 4.931
      vertex 8.495 -2.55149 4.8
      vertex 8.495 -5.05536 4.8
    endloop
  endfacet
  facet normal -1 0 0
    outer loop
      vertex 8.495 -2.719 4.931
      vertex 8.495 -5.05536 4.8
      vertex 8.495 -3.069 5.281
    endloop
  endfacet
  facet normal 2.11542e-016 0.998161 0.0606171
    outer loop
      vertex 12.5 -4.07 7.506
      vertex 8.495 -4.07 7.506
      vertex 12.5 -4.07571 7.6
    endloop
  endfacet
  facet normal 2.11542e-016 0.998161 0.0606171
    outer loop
      vertex 12.5 -4.07571 7.6
      vertex 8.495 -4.07 7.506
      vertex 8.495 -4.07571 7.6
    endloop
  endfacet
  facet normal 1.88489e-016 0.983708 0.179774
    outer loop
      vertex 12.5 -3.981 7.019
      vertex 8.495 -3.981 7.019
      vertex 12.5 -4.07 7.506
    endloop
  endfacet
  facet normal 1.88489e-016 0.983708 0.179774
    outer loop
      vertex 12.5 -4.07 7.506
      vertex 8.495 -3.981 7.019
      vertex 8.495 -4.07 7.506
    endloop
  endfacet
  facet normal 1.62617e-016 0.954946 0.29678
    outer loop
      vertex 12.5 -3.834 6.546
      vertex 8.495 -3.834 6.546
      vertex 12.5 -3.981 7.019
    endloop
  endfacet
  facet normal 1.62617e-016 0.954946 0.29678
    outer loop
      vertex 12.5 -3.981 7.019
      vertex 8.495 -3.834 6.546
      vertex 8.495 -3.981 7.019
    endloop
  endfacet
  facet normal 1.33678e-016 0.911126 0.412128
    outer loop
      vertex 12.5 -3.63 6.095
      vertex 8.495 -3.63 6.095
      vertex 12.5 -3.834 6.546
    endloop
  endfacet
  facet normal 1.33678e-016 0.911126 0.412128
    outer loop
      vertex 12.5 -3.834 6.546
      vertex 8.495 -3.63 6.095
      vertex 8.495 -3.834 6.546
    endloop
  endfacet
  facet normal 1.04008e-016 0.856064 0.516869
    outer loop
      vertex 12.5 -3.374 5.671
      vertex 8.495 -3.374 5.671
      vertex 12.5 -3.63 6.095
    endloop
  endfacet
  facet normal 1.04008e-016 0.856064 0.516869
    outer loop
      vertex 12.5 -3.63 6.095
      vertex 8.495 -3.374 5.671
      vertex 8.495 -3.63 6.095
    endloop
  endfacet
  facet normal 7.2318e-017 0.787718 0.616036
    outer loop
      vertex 12.5 -3.069 5.281
      vertex 8.495 -3.069 5.281
      vertex 12.5 -3.374 5.671
    endloop
  endfacet
  facet normal 7.2318e-017 0.787718 0.616036
    outer loop
      vertex 12.5 -3.374 5.671
      vertex 8.495 -3.069 5.281
      vertex 8.495 -3.374 5.671
    endloop
  endfacet
  facet normal 3.92523e-017 0.707107 0.707107
    outer loop
      vertex 12.5 -2.719 4.931
      vertex 8.495 -2.719 4.931
      vertex 12.5 -3.069 5.281
    endloop
  endfacet
  facet normal 3.92523e-017 0.707107 0.707107
    outer loop
      vertex 12.5 -3.069 5.281
      vertex 8.495 -2.719 4.931
      vertex 8.495 -3.069 5.281
    endloop
  endfacet
  facet normal -2.74766e-016 -0.707107 0.707107
    outer loop
      vertex 12.5 2.719 4.931
      vertex 12.5 3.069 5.281
      vertex 8.495 3.069 5.281
    endloop
  endfacet
  facet normal -2.74766e-016 -0.707107 0.707107
    outer loop
      vertex 8.495 2.719 4.931
      vertex 12.5 2.719 4.931
      vertex 8.495 3.069 5.281
    endloop
  endfacet
  facet normal -2.77499e-016 -0.787718 0.616036
    outer loop
      vertex 12.5 3.069 5.281
      vertex 12.5 3.374 5.671
      vertex 8.495 3.374 5.671
    endloop
  endfacet
  facet normal -2.77499e-016 -0.787718 0.616036
    outer loop
      vertex 8.495 3.069 5.281
      vertex 12.5 3.069 5.281
      vertex 8.495 3.374 5.671
    endloop
  endfacet
  facet normal -2.7616e-016 -0.856064 0.516869
    outer loop
      vertex 12.5 3.374 5.671
      vertex 12.5 3.63 6.095
      vertex 8.495 3.63 6.095
    endloop
  endfacet
  facet normal -2.7616e-016 -0.856064 0.516869
    outer loop
      vertex 8.495 3.374 5.671
      vertex 12.5 3.374 5.671
      vertex 8.495 3.63 6.095
    endloop
  endfacet
  facet normal -2.70944e-016 -0.911126 0.412128
    outer loop
      vertex 12.5 3.63 6.095
      vertex 12.5 3.834 6.546
      vertex 8.495 3.834 6.546
    endloop
  endfacet
  facet normal -2.70944e-016 -0.911126 0.412128
    outer loop
      vertex 8.495 3.63 6.095
      vertex 12.5 3.63 6.095
      vertex 8.495 3.834 6.546
    endloop
  endfacet
  facet normal -2.61464e-016 -0.954946 0.29678
    outer loop
      vertex 12.5 3.834 6.546
      vertex 12.5 3.981 7.019
      vertex 8.495 3.981 7.019
    endloop
  endfacet
  facet normal -2.61464e-016 -0.954946 0.29678
    outer loop
      vertex 8.495 3.834 6.546
      vertex 12.5 3.834 6.546
      vertex 8.495 3.981 7.019
    endloop
  endfacet
  facet normal -2.48365e-016 -0.983708 0.179774
    outer loop
      vertex 12.5 3.981 7.019
      vertex 12.5 4.07 7.506
      vertex 8.495 4.07 7.506
    endloop
  endfacet
  facet normal -2.48365e-016 -0.983708 0.179774
    outer loop
      vertex 8.495 3.981 7.019
      vertex 12.5 3.981 7.019
      vertex 8.495 4.07 7.506
    endloop
  endfacet
  facet normal -2.31731e-016 -0.998161 0.0606171
    outer loop
      vertex 12.5 4.07 7.506
      vertex 12.5 4.07571 7.6
      vertex 8.495 4.07571 7.6
    endloop
  endfacet
  facet normal -2.31731e-016 -0.998161 0.0606171
    outer loop
      vertex 8.495 4.07 7.506
      vertex 12.5 4.07 7.506
      vertex 8.495 4.07571 7.6
    endloop
  endfacet
  facet normal 0 0 1
    outer loop
      vertex -7.27977 -3.76706 4.8
      vertex -5.64582 -4.14 4.8
      vertex -5.205 -2.55149 4.8
    endloop
  endfacet
  facet normal 0 0 1
    outer loop
      vertex -5.205 -2.55149 4.8
      vertex -5.64582 -4.14 4.8
      vertex -5.205 -5.05536 4.8
    endloop
  endfacet
  facet normal 0 0 1
    outer loop
      vertex -7.27977 -3.76706 4.8
      vertex -5.205 -2.55149 4.8
      vertex -8.495 -2.55149 4.8
    endloop
  endfacet
  facet normal 0 0 1
    outer loop
      vertex -7.27977 -3.76706 4.8
      vertex -8.495 -2.55149 4.8
      vertex -8.495 -4.73618 4.8
    endloop
  endfacet
  facet normal 0 0 1
    outer loop
      vertex -7.27977 3.76706 4.8
      vertex -8.495 2.55149 4.8
      vertex -5.205 2.55149 4.8
    endloop
  endfacet
  facet normal 0 0 1
    outer loop
      vertex -5.205 2.55149 4.8
      vertex -5.205 5.05536 4.8
      vertex -5.64582 4.14 4.8
    endloop
  endfacet
  facet normal 0 0 1
    outer loop
      vertex -7.27977 3.76706 4.8
      vertex -5.205 2.55149 4.8
      vertex -5.64582 4.14 4.8
    endloop
  endfacet
  facet normal 0 0 1
    outer loop
      vertex -8.495 4.73618 4.8
      vertex -8.495 2.55149 4.8
      vertex -7.27977 3.76706 4.8
    endloop
  endfacet
  facet normal -1 0 0
    outer loop
      vertex -5.205 3.069 5.281
      vertex -5.205 3.374 5.671
      vertex -5.205 5.05536 7.6
    endloop
  endfacet
  facet normal -1 0 0
    outer loop
      vertex -5.205 3.374 5.671
      vertex -5.205 3.63 6.095
      vertex -5.205 5.05536 7.6
    endloop
  endfacet
  facet normal -1 0 0
    outer loop
      vertex -5.205 3.63 6.095
      vertex -5.205 3.834 6.546
      vertex -5.205 5.05536 7.6
    endloop
  endfacet
  facet normal -1 0 0
    outer loop
      vertex -5.205 5.05536 7.6
      vertex -5.205 3.981 7.019
      vertex -5.205 4.07 7.506
    endloop
  endfacet
  facet normal -1 0 0
    outer loop
      vertex -5.205 5.05536 7.6
      vertex -5.205 4.07 7.506
      vertex -5.205 4.07571 7.6
    endloop
  endfacet
  facet normal -1 0 0
    outer loop
      vertex -5.205 3.834 6.546
      vertex -5.205 3.981 7.019
      vertex -5.205 5.05536 7.6
    endloop
  endfacet
  facet normal -1 0 0
    outer loop
      vertex -5.205 3.069 5.281
      vertex -5.205 5.05536 7.6
      vertex -5.205 5.05536 4.8
    endloop
  endfacet
  facet normal -1 0 0
    outer loop
      vertex -5.205 3.069 5.281
      vertex -5.205 5.05536 4.8
      vertex -5.205 2.719 4.931
    endloop
  endfacet
  facet normal -1 0 0
    outer loop
      vertex -5.205 5.05536 4.8
      vertex -5.205 2.55149 4.8
      vertex -5.205 2.719 4.931
    endloop
  endfacet
  facet normal 1 0 0
    outer loop
      vertex -8.495 4.73618 4.8
      vertex -8.495 4.73618 7.6
      vertex -8.495 4.07571 7.6
    endloop
  endfacet
  facet normal 1 0 0
    outer loop
      vertex -8.495 3.981 7.019
      vertex -8.495 4.73618 4.8
      vertex -8.495 4.07 7.506
    endloop
  endfacet
  facet normal 1 0 0
    outer loop
      vertex -8.495 4.07 7.506
      vertex -8.495 4.73618 4.8
      vertex -8.495 4.07571 7.6
    endloop
  endfacet
  facet normal 1 0 0
    outer loop
      vertex -8.495 3.834 6.546
      vertex -8.495 4.73618 4.8
      vertex -8.495 3.981 7.019
    endloop
  endfacet
  facet normal 1 0 0
    outer loop
      vertex -8.495 3.63 6.095
      vertex -8.495 4.73618 4.8
      vertex -8.495 3.834 6.546
    endloop
  endfacet
  facet normal 1 0 0
    outer loop
      vertex -8.495 3.374 5.671
      vertex -8.495 4.73618 4.8
      vertex -8.495 3.63 6.095
    endloop
  endfacet
  facet normal 1 0 0
    outer loop
      vertex -8.495 3.069 5.281
      vertex -8.495 4.73618 4.8
      vertex -8.495 3.374 5.671
    endloop
  endfacet
  facet normal 1 0 0
    outer loop
      vertex -8.495 2.719 4.931
      vertex -8.495 4.73618 4.8
      vertex -8.495 3.069 5.281
    endloop
  endfacet
  facet normal 1 0 0
    outer loop
      vertex -8.495 2.55149 4.8
      vertex -8.495 4.73618 4.8
      vertex -8.495 2.719 4.931
    endloop
  endfacet
  facet normal 0 0 1
    outer loop
      vertex 6.42023 -3.76706 4.8
      vertex 8.05418 -4.14 4.8
      vertex 8.495 -2.55149 4.8
    endloop
  endfacet
  facet normal 0 0 1
    outer loop
      vertex 8.495 -2.55149 4.8
      vertex 8.05418 -4.14 4.8
      vertex 8.495 -5.05536 4.8
    endloop
  endfacet
  facet normal 0 0 1
    outer loop
      vertex 6.42023 -3.76706 4.8
      vertex 8.495 -2.55149 4.8
      vertex 5.205 -2.55149 4.8
    endloop
  endfacet
  facet normal 0 0 1
    outer loop
      vertex 6.42023 -3.76706 4.8
      vertex 5.205 -2.55149 4.8
      vertex 5.205 -4.73618 4.8
    endloop
  endfacet
  facet normal 0 0 1
    outer loop
      vertex 6.42023 3.76706 4.8
      vertex 5.205 2.55149 4.8
      vertex 8.495 2.55149 4.8
    endloop
  endfacet
  facet normal 0 0 1
    outer loop
      vertex 8.495 2.55149 4.8
      vertex 8.495 5.05536 4.8
      vertex 8.05418 4.14 4.8
    endloop
  endfacet
  facet normal 0 0 1
    outer loop
      vertex 6.42023 3.76706 4.8
      vertex 8.495 2.55149 4.8
      vertex 8.05418 4.14 4.8
    endloop
  endfacet
  facet normal 0 0 1
    outer loop
      vertex 5.205 4.73618 4.8
      vertex 5.205 2.55149 4.8
      vertex 6.42023 3.76706 4.8
    endloop
  endfacet
  facet normal -1 0 0
    outer loop
      vertex 8.495 3.069 5.281
      vertex 8.495 3.374 5.671
      vertex 8.495 5.05536 7.6
    endloop
  endfacet
  facet normal -1 0 0
    outer loop
      vertex 8.495 3.374 5.671
      vertex 8.495 3.63 6.095
      vertex 8.495 5.05536 7.6
    endloop
  endfacet
  facet normal -1 0 0
    outer loop
      vertex 8.495 3.63 6.095
      vertex 8.495 3.834 6.546
      vertex 8.495 5.05536 7.6
    endloop
  endfacet
  facet normal -1 0 0
    outer loop
      vertex 8.495 5.05536 7.6
      vertex 8.495 3.981 7.019
      vertex 8.495 4.07 7.506
    endloop
  endfacet
  facet normal -1 0 0
    outer loop
      vertex 8.495 5.05536 7.6
      vertex 8.495 4.07 7.506
      vertex 8.495 4.07571 7.6
    endloop
  endfacet
  facet normal -1 0 0
    outer loop
      vertex 8.495 3.834 6.546
      vertex 8.495 3.981 7.019
      vertex 8.495 5.05536 7.6
    endloop
  endfacet
  facet normal -1 0 0
    outer loop
      vertex 8.495 3.069 5.281
      vertex 8.495 5.05536 7.6
      vertex 8.495 5.05536 4.8
    endloop
  endfacet
  facet normal -1 0 0
    outer loop
      vertex 8.495 3.069 5.281
      vertex 8.495 5.05536 4.8
      vertex 8.495 2.719 4.931
    endloop
  endfacet
  facet normal -1 0 0
    outer loop
      vertex 8.495 5.05536 4.8
      vertex 8.495 2.55149 4.8
      vertex 8.495 2.719 4.931
    endloop
  endfacet
  facet normal 1 0 0
    outer loop
      vertex 5.205 4.73618 4.8
      vertex 5.205 4.73618 7.6
      vertex 5.205 4.07571 7.6
    endloop
  endfacet
  facet normal 1 0 0
    outer loop
      vertex 5.205 3.981 7.019
      vertex 5.205 4.73618 4.8
      vertex 5.205 4.07 7.506
    endloop
  endfacet
  facet normal 1 0 0
    outer loop
      vertex 5.205 4.07 7.506
      vertex 5.205 4.73618 4.8
      vertex 5.205 4.07571 7.6
    endloop
  endfacet
  facet normal 1 0 0
    outer loop
      vertex 5.205 3.834 6.546
      vertex 5.205 4.73618 4.8
      vertex 5.205 3.981 7.019
    endloop
  endfacet
  facet normal 1 0 0
    outer loop
      vertex 5.205 3.63 6.095
      vertex 5.205 4.73618 4.8
      vertex 5.205 3.834 6.546
    endloop
  endfacet
  facet normal 1 0 0
    outer loop
      vertex 5.205 3.374 5.671
      vertex 5.205 4.73618 4.8
      vertex 5.205 3.63 6.095
    endloop
  endfacet
  facet normal 1 0 0
    outer loop
      vertex 5.205 3.069 5.281
      vertex 5.205 4.73618 4.8
      vertex 5.205 3.374 5.671
    endloop
  endfacet
  facet normal 1 0 0
    outer loop
      vertex 5.205 2.719 4.931
      vertex 5.205 4.73618 4.8
      vertex 5.205 3.069 5.281
    endloop
  endfacet
  facet normal 1 0 0
    outer loop
      vertex 5.205 2.55149 4.8
      vertex 5.205 4.73618 4.8
      vertex 5.205 2.719 4.931
    endloop
  endfacet
  facet normal -2.31731e-016 -0.998161 0.0606171
    outer loop
      vertex 5.205 4.07 7.506
      vertex 5.205 4.07571 7.6
      vertex -5.205 4.07571 7.6
    endloop
  endfacet
  facet normal -2.31731e-016 -0.998161 0.0606171
    outer loop
      vertex -5.205 4.07 7.506
      vertex 5.205 4.07 7.506
      vertex -5.205 4.07571 7.6
    endloop
  endfacet
  facet normal -2.74766e-016 -0.707107 0.707107
    outer loop
      vertex 5.205 2.719 4.931
      vertex 5.205 3.069 5.281
      vertex -5.205 3.069 5.281
    endloop
  endfacet
  facet normal -2.74766e-016 -0.707107 0.707107
    outer loop
      vertex -5.205 2.719 4.931
      vertex 5.205 2.719 4.931
      vertex -5.205 3.069 5.281
    endloop
  endfacet
  facet normal 3.92523e-017 0.707107 0.707107
    outer loop
      vertex 5.205 -2.719 4.931
      vertex -5.205 -2.719 4.931
      vertex 5.205 -3.069 5.281
    endloop
  endfacet
  facet normal 3.92523e-017 0.707107 0.707107
    outer loop
      vertex 5.205 -3.069 5.281
      vertex -5.205 -2.719 4.931
      vertex -5.205 -3.069 5.281
    endloop
  endfacet
  facet normal 7.2318e-017 0.787718 0.616036
    outer loop
      vertex 5.205 -3.069 5.281
      vertex -5.205 -3.069 5.281
      vertex 5.205 -3.374 5.671
    endloop
  endfacet
  facet normal 7.2318e-017 0.787718 0.616036
    outer loop
      vertex 5.205 -3.374 5.671
      vertex -5.205 -3.069 5.281
      vertex -5.205 -3.374 5.671
    endloop
  endfacet
  facet normal 1.04008e-016 0.856064 0.516869
    outer loop
      vertex 5.205 -3.374 5.671
      vertex -5.205 -3.374 5.671
      vertex 5.205 -3.63 6.095
    endloop
  endfacet
  facet normal 1.04008e-016 0.856064 0.516869
    outer loop
      vertex 5.205 -3.63 6.095
      vertex -5.205 -3.374 5.671
      vertex -5.205 -3.63 6.095
    endloop
  endfacet
  facet normal 1.33678e-016 0.911126 0.412128
    outer loop
      vertex 5.205 -3.63 6.095
      vertex -5.205 -3.63 6.095
      vertex 5.205 -3.834 6.546
    endloop
  endfacet
  facet normal 1.33678e-016 0.911126 0.412128
    outer loop
      vertex 5.205 -3.834 6.546
      vertex -5.205 -3.63 6.095
      vertex -5.205 -3.834 6.546
    endloop
  endfacet
  facet normal 1.62617e-016 0.954946 0.29678
    outer loop
      vertex 5.205 -3.834 6.546
      vertex -5.205 -3.834 6.546
      vertex 5.205 -3.981 7.019
    endloop
  endfacet
  facet normal 1.62617e-016 0.954946 0.29678
    outer loop
      vertex 5.205 -3.981 7.019
      vertex -5.205 -3.834 6.546
      vertex -5.205 -3.981 7.019
    endloop
  endfacet
  facet normal 1.88489e-016 0.983708 0.179774
    outer loop
      vertex 5.205 -3.981 7.019
      vertex -5.205 -3.981 7.019
      vertex 5.205 -4.07 7.506
    endloop
  endfacet
  facet normal 1.88489e-016 0.983708 0.179774
    outer loop
      vertex 5.205 -4.07 7.506
      vertex -5.205 -3.981 7.019
      vertex -5.205 -4.07 7.506
    endloop
  endfacet
  facet normal -2.48365e-016 -0.983708 0.179774
    outer loop
      vertex 5.205 3.981 7.019
      vertex 5.205 4.07 7.506
      vertex -5.205 4.07 7.506
    endloop
  endfacet
  facet normal -2.48365e-016 -0.983708 0.179774
    outer loop
      vertex -5.205 3.981 7.019
      vertex 5.205 3.981 7.019
      vertex -5.205 4.07 7.506
    endloop
  endfacet
  facet normal -2.61464e-016 -0.954946 0.29678
    outer loop
      vertex 5.205 3.834 6.546
      vertex 5.205 3.981 7.019
      vertex -5.205 3.981 7.019
    endloop
  endfacet
  facet normal -2.61464e-016 -0.954946 0.29678
    outer loop
      vertex -5.205 3.834 6.546
      vertex 5.205 3.834 6.546
      vertex -5.205 3.981 7.019
    endloop
  endfacet
  facet normal -2.70944e-016 -0.911126 0.412128
    outer loop
      vertex 5.205 3.63 6.095
      vertex 5.205 3.834 6.546
      vertex -5.205 3.834 6.546
    endloop
  endfacet
  facet normal -2.70944e-016 -0.911126 0.412128
    outer loop
      vertex -5.205 3.63 6.095
      vertex 5.205 3.63 6.095
      vertex -5.205 3.834 6.546
    endloop
  endfacet
  facet normal -2.7616e-016 -0.856064 0.516869
    outer loop
      vertex 5.205 3.374 5.671
      vertex 5.205 3.63 6.095
      vertex -5.205 3.63 6.095
    endloop
  endfacet
  facet normal -2.7616e-016 -0.856064 0.516869
    outer loop
      vertex -5.205 3.374 5.671
      vertex 5.205 3.374 5.671
      vertex -5.205 3.63 6.095
    endloop
  endfacet
  facet normal -2.77499e-016 -0.787718 0.616036
    outer loop
      vertex 5.205 3.069 5.281
      vertex 5.205 3.374 5.671
      vertex -5.205 3.374 5.671
    endloop
  endfacet
  facet normal -2.77499e-016 -0.787718 0.616036
    outer loop
      vertex -5.205 3.069 5.281
      vertex 5.205 3.069 5.281
      vertex -5.205 3.374 5.671
    endloop
  endfacet
endsolid OpenSCAD_Model
