solid OpenSCAD_Model
  facet normal 0 -2.22045e-016 1
    outer loop
      vertex 7.1 1.94115 8.8
      vertex 0 -1.95399e-015 8.8
      vertex 11 -1.95399e-015 8.8
    endloop
  endfacet
  facet normal 0 -2.22045e-016 1
    outer loop
      vertex 6 36.5 8.8
      vertex 0 36.5 8.8
      vertex 11 1 8.8
    endloop
  endfacet
  facet normal 0 -2.22045e-016 1
    outer loop
      vertex 11 1 8.8
      vertex 0 36.5 8.8
      vertex 11 -1.95399e-015 8.8
    endloop
  endfacet
  facet normal 0 -2.22045e-016 1
    outer loop
      vertex 0 36.5 8.8
      vertex 0 -1.95399e-015 8.8
      vertex 7.1 1.94115 8.8
    endloop
  endfacet
  facet normal 0 -2.22045e-016 1
    outer loop
      vertex 0 36.5 8.8
      vertex 7.1 1.94115 8.8
      vertex 7.1 5.05885 8.8
    endloop
  endfacet
  facet normal 0 -2.22045e-016 1
    outer loop
      vertex 0 36.5 8.8
      vertex 9.8 3.5 8.8
      vertex 11 -1.95399e-015 8.8
    endloop
  endfacet
  facet normal 0 -2.22045e-016 1
    outer loop
      vertex 0 36.5 8.8
      vertex 7.1 5.05885 8.8
      vertex 9.8 3.5 8.8
    endloop
  endfacet
  facet normal 0 -2.22045e-016 1
    outer loop
      vertex 9.8 3.5 8.8
      vertex 7.1 1.94115 8.8
      vertex 11 -1.95399e-015 8.8
    endloop
  endfacet
  facet normal 0 -1 -2.22045e-016
    outer loop
      vertex 11 -1.95399e-015 8.8
      vertex 0 -1.95399e-015 8.8
      vertex 0 -3.9443e-031 1.77636e-015
    endloop
  endfacet
  facet normal 0 -1 -2.22045e-016
    outer loop
      vertex 11 -3.9443e-031 1.77636e-015
      vertex 11 -1.95399e-015 8.8
      vertex 0 -3.9443e-031 1.77636e-015
    endloop
  endfacet
  facet normal -1 0 0
    outer loop
      vertex 0 32.929 4.893
      vertex 0 36.5 8.8
      vertex 0 36.5 9.88098e-015
    endloop
  endfacet
  facet normal -1 0 0
    outer loop
      vertex 0 9.571 4.893
      vertex 0 -3.9443e-031 1.77636e-015
      vertex 0 9.778 5.346
    endloop
  endfacet
  facet normal -1 0 0
    outer loop
      vertex 0 7 3.33067e-015
      vertex 0 7 0
      vertex 0 0 1.77636e-015
    endloop
  endfacet
  facet normal -1 0 0
    outer loop
      vertex 0 -1.95399e-015 8.8
      vertex 0 36.5 8.8
      vertex 0 11.974 6.15
    endloop
  endfacet
  facet normal -1 0 0
    outer loop
      vertex 0 11.499 2.668
      vertex 0 -3.9443e-031 1.77636e-015
      vertex 0 11.001 2.668
    endloop
  endfacet
  facet normal -1 0 0
    outer loop
      vertex 0 -1.95399e-015 8.8
      vertex 0 11.974 6.15
      vertex 0 10.526 6.15
    endloop
  endfacet
  facet normal -1 0 0
    outer loop
      vertex 0 -1.95399e-015 8.8
      vertex 0 10.526 6.15
      vertex 0 -3.9443e-031 1.77636e-015
    endloop
  endfacet
  facet normal -1 0 0
    outer loop
      vertex 0 10.526 6.15
      vertex 0 10.013 5.637
      vertex 0 -3.9443e-031 1.77636e-015
    endloop
  endfacet
  facet normal -1 0 0
    outer loop
      vertex 0 10.013 5.637
      vertex 0 10.022 5.628
      vertex 0 -3.9443e-031 1.77636e-015
    endloop
  endfacet
  facet normal -1 0 0
    outer loop
      vertex 0 10.022 5.628
      vertex 0 9.778 5.346
      vertex 0 -3.9443e-031 1.77636e-015
    endloop
  endfacet
  facet normal -1 0 0
    outer loop
      vertex 0 30.013 5.637
      vertex 0 7 3.33067e-015
      vertex 0 30.526 6.15
    endloop
  endfacet
  facet normal -1 0 0
    outer loop
      vertex 0 11.499 2.668
      vertex 0 0 1.77636e-015
      vertex 0 -3.9443e-031 1.77636e-015
    endloop
  endfacet
  facet normal -1 0 0
    outer loop
      vertex 0 12.478 5.628
      vertex 0 36.5 8.8
      vertex 0 12.722 5.346
    endloop
  endfacet
  facet normal -1 0 0
    outer loop
      vertex 0 9.571 4.893
      vertex 0 9.5 4.4
      vertex 0 -3.9443e-031 1.77636e-015
    endloop
  endfacet
  facet normal -1 0 0
    outer loop
      vertex 0 12.722 5.346
      vertex 0 36.5 8.8
      vertex 0 12.929 4.893
    endloop
  endfacet
  facet normal -1 0 0
    outer loop
      vertex 0 9.5 4.4
      vertex 0 9.571 3.907
      vertex 0 -3.9443e-031 1.77636e-015
    endloop
  endfacet
  facet normal -1 0 0
    outer loop
      vertex 0 12.929 4.893
      vertex 0 36.5 8.8
      vertex 0 13 4.4
    endloop
  endfacet
  facet normal -1 0 0
    outer loop
      vertex 0 9.571 3.907
      vertex 0 9.778 3.454
      vertex 0 -3.9443e-031 1.77636e-015
    endloop
  endfacet
  facet normal -1 0 0
    outer loop
      vertex 0 13 4.4
      vertex 0 36.5 8.8
      vertex 0 12.929 3.907
    endloop
  endfacet
  facet normal -1 0 0
    outer loop
      vertex 0 9.778 3.454
      vertex 0 10.104 3.077
      vertex 0 -3.9443e-031 1.77636e-015
    endloop
  endfacet
  facet normal -1 0 0
    outer loop
      vertex 0 12.929 3.907
      vertex 0 36.5 8.8
      vertex 0 12.722 3.454
    endloop
  endfacet
  facet normal -1 0 0
    outer loop
      vertex 0 10.104 3.077
      vertex 0 10.523 2.808
      vertex 0 -3.9443e-031 1.77636e-015
    endloop
  endfacet
  facet normal -1 0 0
    outer loop
      vertex 0 12.722 3.454
      vertex 0 36.5 8.8
      vertex 0 12.396 3.077
    endloop
  endfacet
  facet normal -1 0 0
    outer loop
      vertex 0 10.523 2.808
      vertex 0 11.001 2.668
      vertex 0 -3.9443e-031 1.77636e-015
    endloop
  endfacet
  facet normal -1 0 0
    outer loop
      vertex 0 7 3.33067e-015
      vertex 0 0 1.77636e-015
      vertex 0 11.499 2.668
    endloop
  endfacet
  facet normal -1 0 0
    outer loop
      vertex 0 7 3.33067e-015
      vertex 0 11.499 2.668
      vertex 0 36.5 8.8
    endloop
  endfacet
  facet normal -1 0 0
    outer loop
      vertex 0 12.396 3.077
      vertex 0 36.5 8.8
      vertex 0 11.977 2.808
    endloop
  endfacet
  facet normal -1 0 0
    outer loop
      vertex 0 11.499 2.668
      vertex 0 11.977 2.808
      vertex 0 36.5 8.8
    endloop
  endfacet
  facet normal -1 0 0
    outer loop
      vertex 0 12.487 5.637
      vertex 0 36.5 8.8
      vertex 0 12.478 5.628
    endloop
  endfacet
  facet normal -1 0 0
    outer loop
      vertex 0 11.974 6.15
      vertex 0 36.5 8.8
      vertex 0 12.487 5.637
    endloop
  endfacet
  facet normal -1 0 0
    outer loop
      vertex 0 30.526 6.15
      vertex 0 36.5 8.8
      vertex 0 31.974 6.15
    endloop
  endfacet
  facet normal -1 0 0
    outer loop
      vertex 0 7 3.33067e-015
      vertex 0 36.5 8.8
      vertex 0 30.526 6.15
    endloop
  endfacet
  facet normal -1 0 0
    outer loop
      vertex 0 31.001 2.668
      vertex 0 36.5 9.88098e-015
      vertex 0 30.523 2.808
    endloop
  endfacet
  facet normal -1 0 0
    outer loop
      vertex 0 7 3.33067e-015
      vertex 0 30.013 5.637
      vertex 0 30.022 5.628
    endloop
  endfacet
  facet normal -1 0 0
    outer loop
      vertex 0 7 3.33067e-015
      vertex 0 30.022 5.628
      vertex 0 29.778 5.346
    endloop
  endfacet
  facet normal -1 0 0
    outer loop
      vertex 0 7 3.33067e-015
      vertex 0 29.778 5.346
      vertex 0 29.571 4.893
    endloop
  endfacet
  facet normal -1 0 0
    outer loop
      vertex 0 7 3.33067e-015
      vertex 0 29.571 4.893
      vertex 0 29.5 4.4
    endloop
  endfacet
  facet normal -1 0 0
    outer loop
      vertex 0 7 3.33067e-015
      vertex 0 29.5 4.4
      vertex 0 29.571 3.907
    endloop
  endfacet
  facet normal -1 0 0
    outer loop
      vertex 0 7 3.33067e-015
      vertex 0 29.571 3.907
      vertex 0 29.778 3.454
    endloop
  endfacet
  facet normal -1 0 0
    outer loop
      vertex 0 7 3.33067e-015
      vertex 0 29.778 3.454
      vertex 0 30.104 3.077
    endloop
  endfacet
  facet normal -1 0 0
    outer loop
      vertex 0 7 3.33067e-015
      vertex 0 30.104 3.077
      vertex 0 30.523 2.808
    endloop
  endfacet
  facet normal -1 0 0
    outer loop
      vertex 0 7 3.33067e-015
      vertex 0 30.523 2.808
      vertex 0 36.5 9.88098e-015
    endloop
  endfacet
  facet normal -1 0 0
    outer loop
      vertex 0 31.499 2.668
      vertex 0 36.5 9.88098e-015
      vertex 0 31.001 2.668
    endloop
  endfacet
  facet normal -1 0 0
    outer loop
      vertex 0 31.977 2.808
      vertex 0 36.5 9.88098e-015
      vertex 0 31.499 2.668
    endloop
  endfacet
  facet normal -1 0 0
    outer loop
      vertex 0 32.396 3.077
      vertex 0 36.5 9.88098e-015
      vertex 0 31.977 2.808
    endloop
  endfacet
  facet normal -1 0 0
    outer loop
      vertex 0 32.722 3.454
      vertex 0 36.5 9.88098e-015
      vertex 0 32.396 3.077
    endloop
  endfacet
  facet normal -1 0 0
    outer loop
      vertex 0 32.929 4.893
      vertex 0 36.5 9.88098e-015
      vertex 0 33 4.4
    endloop
  endfacet
  facet normal -1 0 0
    outer loop
      vertex 0 32.722 3.454
      vertex 0 32.929 3.907
      vertex 0 36.5 9.88098e-015
    endloop
  endfacet
  facet normal -1 0 0
    outer loop
      vertex 0 32.929 3.907
      vertex 0 33 4.4
      vertex 0 36.5 9.88098e-015
    endloop
  endfacet
  facet normal -1 0 0
    outer loop
      vertex 0 32.722 5.346
      vertex 0 36.5 8.8
      vertex 0 32.929 4.893
    endloop
  endfacet
  facet normal -1 0 0
    outer loop
      vertex 0 32.478 5.628
      vertex 0 36.5 8.8
      vertex 0 32.722 5.346
    endloop
  endfacet
  facet normal -1 0 0
    outer loop
      vertex 0 32.487 5.637
      vertex 0 36.5 8.8
      vertex 0 32.478 5.628
    endloop
  endfacet
  facet normal -1 0 0
    outer loop
      vertex 0 31.974 6.15
      vertex 0 36.5 8.8
      vertex 0 32.487 5.637
    endloop
  endfacet
  facet normal -1 0 0
    outer loop
      vertex 0 0 1.77636e-015
      vertex 0 7 0
      vertex 0 0 0
    endloop
  endfacet
  facet normal 0 1 2.22045e-016
    outer loop
      vertex 0 36.5 8.8
      vertex 6 36.5 8.8
      vertex 0 36.5 9.88098e-015
    endloop
  endfacet
  facet normal 0 1 2.22045e-016
    outer loop
      vertex 0 36.5 9.88098e-015
      vertex 6 36.5 8.8
      vertex 6 36.5 9.88098e-015
    endloop
  endfacet
  facet normal 0.990227 0.139469 3.09682e-017
    outer loop
      vertex 10.1549 7 8.8
      vertex 6 36.5 8.8
      vertex 11 1 8.8
    endloop
  endfacet
  facet normal 0.990227 0.139469 3.09682e-017
    outer loop
      vertex 6.97535 29.575 7.30119
      vertex 6 36.5 8.8
      vertex 10.1549 7 8.8
    endloop
  endfacet
  facet normal 0.990227 0.139469 3.09682e-017
    outer loop
      vertex 6 36.5 9.88098e-015
      vertex 6 36.5 8.8
      vertex 6.26761 34.6 4.4
    endloop
  endfacet
  facet normal 0.990227 0.139469 3.09682e-017
    outer loop
      vertex 6.97535 29.575 1.49882
      vertex 7.21127 27.9 4.4
      vertex 9.32042 12.925 7.30119
    endloop
  endfacet
  facet normal 0.990227 0.139469 3.09682e-017
    outer loop
      vertex 6 36.5 9.88098e-015
      vertex 6.26761 34.6 4.4
      vertex 6.50352 32.925 1.49882
    endloop
  endfacet
  facet normal 0.990227 0.139469 3.09682e-017
    outer loop
      vertex 10.1549 7 3.33067e-015
      vertex 6 36.5 9.88098e-015
      vertex 6.97535 29.575 1.49882
    endloop
  endfacet
  facet normal 0.990227 0.139469 3.09682e-017
    outer loop
      vertex 9.32042 12.925 7.30119
      vertex 7.21127 27.9 4.4
      vertex 10.1549 7 8.8
    endloop
  endfacet
  facet normal 0.990227 0.139469 3.09682e-017
    outer loop
      vertex 6.50352 32.925 7.30119
      vertex 6 36.5 8.8
      vertex 6.97535 29.575 7.30119
    endloop
  endfacet
  facet normal 0.990227 0.139469 3.09682e-017
    outer loop
      vertex 6.26761 34.6 4.4
      vertex 6 36.5 8.8
      vertex 6.50352 32.925 7.30119
    endloop
  endfacet
  facet normal 0.990227 0.139469 3.09682e-017
    outer loop
      vertex 6.50352 32.925 1.49882
      vertex 6.97535 29.575 1.49882
      vertex 6 36.5 9.88098e-015
    endloop
  endfacet
  facet normal 0.990227 0.139469 3.09682e-017
    outer loop
      vertex 9.32042 12.925 1.49882
      vertex 6.97535 29.575 1.49882
      vertex 9.08451 14.6 4.4
    endloop
  endfacet
  facet normal 0.990227 0.139469 3.09682e-017
    outer loop
      vertex 9.79225 9.575 7.30119
      vertex 9.32042 12.925 7.30119
      vertex 10.1549 7 8.8
    endloop
  endfacet
  facet normal 0.990227 0.139469 3.09682e-017
    outer loop
      vertex 10.1549 7 3.33067e-015
      vertex 6.97535 29.575 1.49882
      vertex 9.32042 12.925 1.49882
    endloop
  endfacet
  facet normal 0.990227 0.139469 3.09682e-017
    outer loop
      vertex 9.32042 12.925 1.49882
      vertex 9.79225 9.575 1.49882
      vertex 10.1549 7 3.33067e-015
    endloop
  endfacet
  facet normal 0.990227 0.139469 3.09682e-017
    outer loop
      vertex 9.32042 12.925 7.30119
      vertex 9.08451 14.6 4.4
      vertex 6.97535 29.575 1.49882
    endloop
  endfacet
  facet normal 0.990227 0.139469 3.09682e-017
    outer loop
      vertex 7.21127 27.9 4.4
      vertex 6.97535 29.575 7.30119
      vertex 10.1549 7 8.8
    endloop
  endfacet
  facet normal 0.990227 0.139469 3.09682e-017
    outer loop
      vertex 10.1549 7 8.8
      vertex 10.0282 7.9 4.4
      vertex 9.79225 9.575 7.30119
    endloop
  endfacet
  facet normal 0.990227 0.139469 3.09682e-017
    outer loop
      vertex 10.0282 7.9 4.4
      vertex 10.1549 7 3.33067e-015
      vertex 9.79225 9.575 1.49882
    endloop
  endfacet
  facet normal 0.990227 0.139469 3.09682e-017
    outer loop
      vertex 10.1549 7 8.8
      vertex 10.1549 7 3.33067e-015
      vertex 10.0282 7.9 4.4
    endloop
  endfacet
  facet normal 1 0 0
    outer loop
      vertex 11 0 8.8
      vertex 11 -1.95399e-015 8.8
      vertex 11 -3.9443e-031 1.77636e-015
    endloop
  endfacet
  facet normal 1 0 0
    outer loop
      vertex 11 1 8.8
      vertex 11 -1.95399e-015 8.8
      vertex 11 0 8.8
    endloop
  endfacet
  facet normal 1 0 0
    outer loop
      vertex 11 0 1.77636e-015
      vertex 11 0 8.8
      vertex 11 -3.9443e-031 1.77636e-015
    endloop
  endfacet
  facet normal 1 0 0
    outer loop
      vertex 7.1 1.94115 0
      vertex 7.1 5.05885 0
      vertex 7.1 5.05885 8.8
    endloop
  endfacet
  facet normal 1 0 0
    outer loop
      vertex 7.1 1.94115 8.8
      vertex 7.1 1.94115 0
      vertex 7.1 5.05885 8.8
    endloop
  endfacet
  facet normal -0.5 0.866025 0
    outer loop
      vertex 9.8 3.5 0
      vertex 7.1 1.94115 0
      vertex 9.8 3.5 8.8
    endloop
  endfacet
  facet normal -0.5 0.866025 0
    outer loop
      vertex 9.8 3.5 8.8
      vertex 7.1 1.94115 0
      vertex 7.1 1.94115 8.8
    endloop
  endfacet
  facet normal -0.5 -0.866025 0
    outer loop
      vertex 7.1 5.05885 0
      vertex 9.8 3.5 0
      vertex 9.8 3.5 8.8
    endloop
  endfacet
  facet normal -0.5 -0.866025 0
    outer loop
      vertex 7.1 5.05885 8.8
      vertex 7.1 5.05885 0
      vertex 9.8 3.5 8.8
    endloop
  endfacet
  facet normal 0 2.22045e-016 -1
    outer loop
      vertex 0 -3.9443e-031 1.77636e-015
      vertex 0 0 1.77636e-015
      vertex 11 -3.9443e-031 1.77636e-015
    endloop
  endfacet
  facet normal 0 2.22045e-016 -1
    outer loop
      vertex 11 -3.9443e-031 1.77636e-015
      vertex 0 0 1.77636e-015
      vertex 11 0 1.77636e-015
    endloop
  endfacet
  facet normal 0 -1 0
    outer loop
      vertex 11 0 1.77636e-015
      vertex 0 0 1.77636e-015
      vertex 0 0 0
    endloop
  endfacet
  facet normal 0 -1 0
    outer loop
      vertex 17.5 0 8.8
      vertex 11 0 1.77636e-015
      vertex 17.5 0 0
    endloop
  endfacet
  facet normal 0 -1 0
    outer loop
      vertex 17.5 0 0
      vertex 11 0 1.77636e-015
      vertex 0 0 0
    endloop
  endfacet
  facet normal 0 -1 0
    outer loop
      vertex 11 0 8.8
      vertex 11 0 1.77636e-015
      vertex 17.5 0 8.8
    endloop
  endfacet
  facet normal 0 0 -1
    outer loop
      vertex 16.6 5.05885 0
      vertex 17.5 7 0
      vertex 17.9981 6.96437 0
    endloop
  endfacet
  facet normal 0 0 -1
    outer loop
      vertex 7.1 5.05885 0
      vertex 0 7 0
      vertex 17.5 7 0
    endloop
  endfacet
  facet normal 0 0 -1
    outer loop
      vertex 19.3 3.5 0
      vertex 20.1451 5.79201 0
      vertex 20.4444 5.39224 0
    endloop
  endfacet
  facet normal 0 0 -1
    outer loop
      vertex 17.5 0 0
      vertex 20.4444 5.39224 0
      vertex 20.6837 4.95395 0
    endloop
  endfacet
  facet normal 0 0 -1
    outer loop
      vertex 17.5 0 0
      vertex 20.6837 4.95395 0
      vertex 20.8582 4.48606 0
    endloop
  endfacet
  facet normal 0 0 -1
    outer loop
      vertex 17.5 0 0
      vertex 20.8582 4.48606 0
      vertex 20.9644 3.9981 0
    endloop
  endfacet
  facet normal 0 0 -1
    outer loop
      vertex 17.5 0 0
      vertex 20.9644 3.9981 0
      vertex 21 3.5 0
    endloop
  endfacet
  facet normal 0 0 -1
    outer loop
      vertex 17.5 0 0
      vertex 21 3.5 0
      vertex 20.9644 3.0019 0
    endloop
  endfacet
  facet normal 0 0 -1
    outer loop
      vertex 17.5 0 0
      vertex 20.9644 3.0019 0
      vertex 20.8582 2.51394 0
    endloop
  endfacet
  facet normal 0 0 -1
    outer loop
      vertex 17.5 0 0
      vertex 20.8582 2.51394 0
      vertex 20.6837 2.04605 0
    endloop
  endfacet
  facet normal 0 0 -1
    outer loop
      vertex 17.5 0 0
      vertex 20.6837 2.04605 0
      vertex 20.4444 1.60776 0
    endloop
  endfacet
  facet normal 0 0 -1
    outer loop
      vertex 17.5 0 0
      vertex 20.4444 1.60776 0
      vertex 20.1451 1.20799 0
    endloop
  endfacet
  facet normal 0 0 -1
    outer loop
      vertex 17.5 0 0
      vertex 20.1451 1.20799 0
      vertex 19.792 0.854876 0
    endloop
  endfacet
  facet normal 0 0 -1
    outer loop
      vertex 17.5 0 0
      vertex 19.792 0.854876 0
      vertex 19.3922 0.555613 0
    endloop
  endfacet
  facet normal 0 0 -1
    outer loop
      vertex 17.5 0 0
      vertex 19.3922 0.555613 0
      vertex 18.954 0.316288 0
    endloop
  endfacet
  facet normal 0 0 -1
    outer loop
      vertex 17.5 0 0
      vertex 18.954 0.316288 0
      vertex 18.4861 0.141775 0
    endloop
  endfacet
  facet normal 0 0 -1
    outer loop
      vertex 17.5 0 0
      vertex 18.4861 0.141775 0
      vertex 17.9981 0.035625 0
    endloop
  endfacet
  facet normal 0 0 -1
    outer loop
      vertex 16.6 5.05885 0
      vertex 18.4861 6.85823 0
      vertex 18.954 6.68371 0
    endloop
  endfacet
  facet normal 0 0 -1
    outer loop
      vertex 16.6 5.05885 0
      vertex 7.1 5.05885 0
      vertex 17.5 7 0
    endloop
  endfacet
  facet normal 0 0 -1
    outer loop
      vertex 0 0 0
      vertex 0 7 0
      vertex 7.1 1.94115 0
    endloop
  endfacet
  facet normal 0 0 -1
    outer loop
      vertex 0 0 0
      vertex 7.1 1.94115 0
      vertex 17.5 0 0
    endloop
  endfacet
  facet normal 0 0 -1
    outer loop
      vertex 16.6 5.05885 0
      vertex 17.9981 6.96437 0
      vertex 18.4861 6.85823 0
    endloop
  endfacet
  facet normal 0 0 -1
    outer loop
      vertex 17.5 0 0
      vertex 9.8 3.5 0
      vertex 7.1 5.05885 0
    endloop
  endfacet
  facet normal 0 0 -1
    outer loop
      vertex 16.6 1.94115 0
      vertex 7.1 5.05885 0
      vertex 16.6 5.05885 0
    endloop
  endfacet
  facet normal 0 0 -1
    outer loop
      vertex 19.3 3.5 0
      vertex 17.5 0 0
      vertex 16.6 1.94115 0
    endloop
  endfacet
  facet normal 0 0 -1
    outer loop
      vertex 17.5 0 0
      vertex 7.1 5.05885 0
      vertex 16.6 1.94115 0
    endloop
  endfacet
  facet normal 0 0 -1
    outer loop
      vertex 17.5 0 0
      vertex 19.3 3.5 0
      vertex 20.4444 5.39224 0
    endloop
  endfacet
  facet normal 0 0 -1
    outer loop
      vertex 7.1 1.94115 0
      vertex 0 7 0
      vertex 7.1 5.05885 0
    endloop
  endfacet
  facet normal 0 0 -1
    outer loop
      vertex 9.8 3.5 0
      vertex 17.5 0 0
      vertex 7.1 1.94115 0
    endloop
  endfacet
  facet normal 0 0 -1
    outer loop
      vertex 16.6 5.05885 0
      vertex 18.954 6.68371 0
      vertex 19.3922 6.44439 0
    endloop
  endfacet
  facet normal 0 0 -1
    outer loop
      vertex 16.6 5.05885 0
      vertex 19.3922 6.44439 0
      vertex 19.792 6.14512 0
    endloop
  endfacet
  facet normal 0 0 -1
    outer loop
      vertex 16.6 5.05885 0
      vertex 19.792 6.14512 0
      vertex 20.1451 5.79201 0
    endloop
  endfacet
  facet normal 0 0 -1
    outer loop
      vertex 16.6 5.05885 0
      vertex 20.1451 5.79201 0
      vertex 19.3 3.5 0
    endloop
  endfacet
  facet normal 0 1 0
    outer loop
      vertex 0 7 3.33067e-015
      vertex 10.1549 7 3.33067e-015
      vertex 0 7 0
    endloop
  endfacet
  facet normal 0 1 0
    outer loop
      vertex 17.5 7 8.8
      vertex 10.1549 7 3.33067e-015
      vertex 10.1549 7 8.8
    endloop
  endfacet
  facet normal 0 1 0
    outer loop
      vertex 17.5 7 0
      vertex 10.1549 7 3.33067e-015
      vertex 17.5 7 8.8
    endloop
  endfacet
  facet normal 0 1 0
    outer loop
      vertex 0 7 0
      vertex 10.1549 7 3.33067e-015
      vertex 17.5 7 0
    endloop
  endfacet
  facet normal 0 2.22045e-016 -1
    outer loop
      vertex 0 7 3.33067e-015
      vertex 0 36.5 9.88098e-015
      vertex 10.1549 7 3.33067e-015
    endloop
  endfacet
  facet normal 0 2.22045e-016 -1
    outer loop
      vertex 10.1549 7 3.33067e-015
      vertex 0 36.5 9.88098e-015
      vertex 6 36.5 9.88098e-015
    endloop
  endfacet
  facet normal 1.22461e-016 2.22045e-016 -1
    outer loop
      vertex 3.875 10.526 6.15
      vertex 0 10.526 6.15
      vertex 3.875 11.974 6.15
    endloop
  endfacet
  facet normal 1.22461e-016 2.22045e-016 -1
    outer loop
      vertex 3.875 11.974 6.15
      vertex 0 10.526 6.15
      vertex 0 11.974 6.15
    endloop
  endfacet
  facet normal -7.04165e-017 -0.707107 -0.707107
    outer loop
      vertex 3.875 12.487 5.637
      vertex 3.875 11.974 6.15
      vertex 0 12.487 5.637
    endloop
  endfacet
  facet normal -7.04165e-017 -0.707107 -0.707107
    outer loop
      vertex 0 12.487 5.637
      vertex 3.875 11.974 6.15
      vertex 0 11.974 6.15
    endloop
  endfacet
  facet normal -2.43602e-016 -0.707107 0.707107
    outer loop
      vertex 0 12.478 5.628
      vertex 3.875 12.478 5.628
      vertex 3.875 12.487 5.637
    endloop
  endfacet
  facet normal -2.43602e-016 -0.707107 0.707107
    outer loop
      vertex 0 12.487 5.637
      vertex 0 12.478 5.628
      vertex 3.875 12.487 5.637
    endloop
  endfacet
  facet normal -8.77863e-017 -0.75622 -0.654318
    outer loop
      vertex 0 12.722 5.346
      vertex 3.875 12.722 5.346
      vertex 3.875 12.478 5.628
    endloop
  endfacet
  facet normal -8.77863e-017 -0.75622 -0.654318
    outer loop
      vertex 0 12.478 5.628
      vertex 0 12.722 5.346
      vertex 3.875 12.478 5.628
    endloop
  endfacet
  facet normal -1.51062e-016 -0.90954 -0.415617
    outer loop
      vertex 0 12.929 4.893
      vertex 3.875 12.929 4.893
      vertex 3.875 12.722 5.346
    endloop
  endfacet
  facet normal -1.51062e-016 -0.90954 -0.415617
    outer loop
      vertex 0 12.722 5.346
      vertex 0 12.929 4.893
      vertex 3.875 12.722 5.346
    endloop
  endfacet
  facet normal -2.02321e-016 -0.989788 -0.142546
    outer loop
      vertex 0 13 4.4
      vertex 3.875 13 4.4
      vertex 3.875 12.929 4.893
    endloop
  endfacet
  facet normal -2.02321e-016 -0.989788 -0.142546
    outer loop
      vertex 0 12.929 4.893
      vertex 0 13 4.4
      vertex 3.875 12.929 4.893
    endloop
  endfacet
  facet normal -2.37233e-016 -0.989788 0.142546
    outer loop
      vertex 0 12.929 3.907
      vertex 3.875 12.929 3.907
      vertex 3.875 13 4.4
    endloop
  endfacet
  facet normal -2.37233e-016 -0.989788 0.142546
    outer loop
      vertex 0 13 4.4
      vertex 0 12.929 3.907
      vertex 3.875 13 4.4
    endloop
  endfacet
  facet normal -2.52855e-016 -0.90954 0.415617
    outer loop
      vertex 0 12.722 3.454
      vertex 3.875 12.722 3.454
      vertex 3.875 12.929 3.907
    endloop
  endfacet
  facet normal -2.52855e-016 -0.90954 0.415617
    outer loop
      vertex 0 12.929 3.907
      vertex 0 12.722 3.454
      vertex 3.875 12.929 3.907
    endloop
  endfacet
  facet normal -2.48059e-016 -0.756417 0.65409
    outer loop
      vertex 0 12.396 3.077
      vertex 3.875 12.396 3.077
      vertex 3.875 12.722 3.454
    endloop
  endfacet
  facet normal -2.48059e-016 -0.756417 0.65409
    outer loop
      vertex 0 12.722 3.454
      vertex 0 12.396 3.077
      vertex 3.875 12.722 3.454
    endloop
  endfacet
  facet normal -2.23011e-016 -0.54025 0.841505
    outer loop
      vertex 0 11.977 2.808
      vertex 3.875 11.977 2.808
      vertex 3.875 12.396 3.077
    endloop
  endfacet
  facet normal -2.23011e-016 -0.54025 0.841505
    outer loop
      vertex 0 12.396 3.077
      vertex 0 11.977 2.808
      vertex 3.875 12.396 3.077
    endloop
  endfacet
  facet normal -1.79936e-016 -0.281079 0.959685
    outer loop
      vertex 0 11.499 2.668
      vertex 3.875 11.499 2.668
      vertex 3.875 11.977 2.808
    endloop
  endfacet
  facet normal -1.79936e-016 -0.281079 0.959685
    outer loop
      vertex 0 11.977 2.808
      vertex 0 11.499 2.668
      vertex 3.875 11.977 2.808
    endloop
  endfacet
  facet normal -1.22461e-016 -2.22045e-016 1
    outer loop
      vertex 0 11.001 2.668
      vertex 3.875 11.001 2.668
      vertex 3.875 11.499 2.668
    endloop
  endfacet
  facet normal -1.22461e-016 -2.22045e-016 1
    outer loop
      vertex 0 11.499 2.668
      vertex 0 11.001 2.668
      vertex 3.875 11.499 2.668
    endloop
  endfacet
  facet normal -5.51115e-017 0.281079 0.959685
    outer loop
      vertex 3.875 10.523 2.808
      vertex 3.875 11.001 2.668
      vertex 0 11.001 2.668
    endloop
  endfacet
  facet normal -5.51115e-017 0.281079 0.959685
    outer loop
      vertex 0 10.523 2.808
      vertex 3.875 10.523 2.808
      vertex 0 11.001 2.668
    endloop
  endfacet
  facet normal 1.69084e-017 0.54025 0.841505
    outer loop
      vertex 3.875 10.104 3.077
      vertex 3.875 10.523 2.808
      vertex 0 10.523 2.808
    endloop
  endfacet
  facet normal 1.69084e-017 0.54025 0.841505
    outer loop
      vertex 0 10.104 3.077
      vertex 3.875 10.104 3.077
      vertex 0 10.523 2.808
    endloop
  endfacet
  facet normal 8.7858e-017 0.756417 0.65409
    outer loop
      vertex 3.875 10.104 3.077
      vertex 0 10.104 3.077
      vertex 3.875 9.778 3.454
    endloop
  endfacet
  facet normal 8.7858e-017 0.756417 0.65409
    outer loop
      vertex 3.875 9.778 3.454
      vertex 0 10.104 3.077
      vertex 0 9.778 3.454
    endloop
  endfacet
  facet normal 1.51062e-016 0.90954 0.415617
    outer loop
      vertex 3.875 9.778 3.454
      vertex 0 9.778 3.454
      vertex 3.875 9.571 3.907
    endloop
  endfacet
  facet normal 1.51062e-016 0.90954 0.415617
    outer loop
      vertex 3.875 9.571 3.907
      vertex 0 9.778 3.454
      vertex 0 9.571 3.907
    endloop
  endfacet
  facet normal 2.02321e-016 0.989788 0.142546
    outer loop
      vertex 3.875 9.571 3.907
      vertex 0 9.571 3.907
      vertex 3.875 9.5 4.4
    endloop
  endfacet
  facet normal 2.02321e-016 0.989788 0.142546
    outer loop
      vertex 3.875 9.5 4.4
      vertex 0 9.571 3.907
      vertex 0 9.5 4.4
    endloop
  endfacet
  facet normal 2.37233e-016 0.989788 -0.142546
    outer loop
      vertex 3.875 9.5 4.4
      vertex 0 9.5 4.4
      vertex 3.875 9.571 4.893
    endloop
  endfacet
  facet normal 2.37233e-016 0.989788 -0.142546
    outer loop
      vertex 3.875 9.571 4.893
      vertex 0 9.5 4.4
      vertex 0 9.571 4.893
    endloop
  endfacet
  facet normal 2.52855e-016 0.90954 -0.415617
    outer loop
      vertex 3.875 9.571 4.893
      vertex 0 9.571 4.893
      vertex 3.875 9.778 5.346
    endloop
  endfacet
  facet normal 2.52855e-016 0.90954 -0.415617
    outer loop
      vertex 3.875 9.778 5.346
      vertex 0 9.571 4.893
      vertex 0 9.778 5.346
    endloop
  endfacet
  facet normal 2.48043e-016 0.75622 -0.654318
    outer loop
      vertex 3.875 9.778 5.346
      vertex 0 9.778 5.346
      vertex 3.875 10.022 5.628
    endloop
  endfacet
  facet normal 2.48043e-016 0.75622 -0.654318
    outer loop
      vertex 3.875 10.022 5.628
      vertex 0 9.778 5.346
      vertex 0 10.022 5.628
    endloop
  endfacet
  facet normal 7.04165e-017 0.707107 0.707107
    outer loop
      vertex 3.875 10.013 5.637
      vertex 3.875 10.022 5.628
      vertex 0 10.022 5.628
    endloop
  endfacet
  facet normal 7.04165e-017 0.707107 0.707107
    outer loop
      vertex 0 10.013 5.637
      vertex 3.875 10.013 5.637
      vertex 0 10.022 5.628
    endloop
  endfacet
  facet normal 2.43602e-016 0.707107 -0.707107
    outer loop
      vertex 3.875 10.013 5.637
      vertex 0 10.013 5.637
      vertex 3.875 10.526 6.15
    endloop
  endfacet
  facet normal 2.43602e-016 0.707107 -0.707107
    outer loop
      vertex 3.875 10.526 6.15
      vertex 0 10.013 5.637
      vertex 0 10.526 6.15
    endloop
  endfacet
  facet normal 1.22461e-016 2.22045e-016 -1
    outer loop
      vertex 3.875 30.526 6.15
      vertex 0 30.526 6.15
      vertex 3.875 31.974 6.15
    endloop
  endfacet
  facet normal 1.22461e-016 2.22045e-016 -1
    outer loop
      vertex 3.875 31.974 6.15
      vertex 0 30.526 6.15
      vertex 0 31.974 6.15
    endloop
  endfacet
  facet normal -7.04165e-017 -0.707107 -0.707107
    outer loop
      vertex 3.875 32.487 5.637
      vertex 3.875 31.974 6.15
      vertex 0 32.487 5.637
    endloop
  endfacet
  facet normal -7.04165e-017 -0.707107 -0.707107
    outer loop
      vertex 0 32.487 5.637
      vertex 3.875 31.974 6.15
      vertex 0 31.974 6.15
    endloop
  endfacet
  facet normal -2.43602e-016 -0.707107 0.707107
    outer loop
      vertex 0 32.478 5.628
      vertex 3.875 32.478 5.628
      vertex 3.875 32.487 5.637
    endloop
  endfacet
  facet normal -2.43602e-016 -0.707107 0.707107
    outer loop
      vertex 0 32.487 5.637
      vertex 0 32.478 5.628
      vertex 3.875 32.487 5.637
    endloop
  endfacet
  facet normal -8.77863e-017 -0.75622 -0.654318
    outer loop
      vertex 0 32.722 5.346
      vertex 3.875 32.722 5.346
      vertex 3.875 32.478 5.628
    endloop
  endfacet
  facet normal -8.77863e-017 -0.75622 -0.654318
    outer loop
      vertex 0 32.478 5.628
      vertex 0 32.722 5.346
      vertex 3.875 32.478 5.628
    endloop
  endfacet
  facet normal -1.51062e-016 -0.90954 -0.415617
    outer loop
      vertex 0 32.929 4.893
      vertex 3.875 32.929 4.893
      vertex 3.875 32.722 5.346
    endloop
  endfacet
  facet normal -1.51062e-016 -0.90954 -0.415617
    outer loop
      vertex 0 32.722 5.346
      vertex 0 32.929 4.893
      vertex 3.875 32.722 5.346
    endloop
  endfacet
  facet normal -2.02321e-016 -0.989788 -0.142546
    outer loop
      vertex 0 33 4.4
      vertex 3.875 33 4.4
      vertex 3.875 32.929 4.893
    endloop
  endfacet
  facet normal -2.02321e-016 -0.989788 -0.142546
    outer loop
      vertex 0 32.929 4.893
      vertex 0 33 4.4
      vertex 3.875 32.929 4.893
    endloop
  endfacet
  facet normal -2.37233e-016 -0.989788 0.142546
    outer loop
      vertex 0 32.929 3.907
      vertex 3.875 32.929 3.907
      vertex 3.875 33 4.4
    endloop
  endfacet
  facet normal -2.37233e-016 -0.989788 0.142546
    outer loop
      vertex 0 33 4.4
      vertex 0 32.929 3.907
      vertex 3.875 33 4.4
    endloop
  endfacet
  facet normal -2.52855e-016 -0.90954 0.415617
    outer loop
      vertex 0 32.722 3.454
      vertex 3.875 32.722 3.454
      vertex 3.875 32.929 3.907
    endloop
  endfacet
  facet normal -2.52855e-016 -0.90954 0.415617
    outer loop
      vertex 0 32.929 3.907
      vertex 0 32.722 3.454
      vertex 3.875 32.929 3.907
    endloop
  endfacet
  facet normal -2.48059e-016 -0.756417 0.65409
    outer loop
      vertex 0 32.396 3.077
      vertex 3.875 32.396 3.077
      vertex 3.875 32.722 3.454
    endloop
  endfacet
  facet normal -2.48059e-016 -0.756417 0.65409
    outer loop
      vertex 0 32.722 3.454
      vertex 0 32.396 3.077
      vertex 3.875 32.722 3.454
    endloop
  endfacet
  facet normal -2.23011e-016 -0.54025 0.841505
    outer loop
      vertex 0 31.977 2.808
      vertex 3.875 31.977 2.808
      vertex 3.875 32.396 3.077
    endloop
  endfacet
  facet normal -2.23011e-016 -0.54025 0.841505
    outer loop
      vertex 0 32.396 3.077
      vertex 0 31.977 2.808
      vertex 3.875 32.396 3.077
    endloop
  endfacet
  facet normal -1.79936e-016 -0.281079 0.959685
    outer loop
      vertex 0 31.499 2.668
      vertex 3.875 31.499 2.668
      vertex 3.875 31.977 2.808
    endloop
  endfacet
  facet normal -1.79936e-016 -0.281079 0.959685
    outer loop
      vertex 0 31.977 2.808
      vertex 0 31.499 2.668
      vertex 3.875 31.977 2.808
    endloop
  endfacet
  facet normal -1.22461e-016 -2.22045e-016 1
    outer loop
      vertex 0 31.001 2.668
      vertex 3.875 31.001 2.668
      vertex 3.875 31.499 2.668
    endloop
  endfacet
  facet normal -1.22461e-016 -2.22045e-016 1
    outer loop
      vertex 0 31.499 2.668
      vertex 0 31.001 2.668
      vertex 3.875 31.499 2.668
    endloop
  endfacet
  facet normal -5.51115e-017 0.281079 0.959685
    outer loop
      vertex 3.875 30.523 2.808
      vertex 3.875 31.001 2.668
      vertex 0 31.001 2.668
    endloop
  endfacet
  facet normal -5.51115e-017 0.281079 0.959685
    outer loop
      vertex 0 30.523 2.808
      vertex 3.875 30.523 2.808
      vertex 0 31.001 2.668
    endloop
  endfacet
  facet normal 1.69084e-017 0.54025 0.841505
    outer loop
      vertex 3.875 30.104 3.077
      vertex 3.875 30.523 2.808
      vertex 0 30.523 2.808
    endloop
  endfacet
  facet normal 1.69084e-017 0.54025 0.841505
    outer loop
      vertex 0 30.104 3.077
      vertex 3.875 30.104 3.077
      vertex 0 30.523 2.808
    endloop
  endfacet
  facet normal 8.7858e-017 0.756417 0.65409
    outer loop
      vertex 3.875 30.104 3.077
      vertex 0 30.104 3.077
      vertex 3.875 29.778 3.454
    endloop
  endfacet
  facet normal 8.7858e-017 0.756417 0.65409
    outer loop
      vertex 3.875 29.778 3.454
      vertex 0 30.104 3.077
      vertex 0 29.778 3.454
    endloop
  endfacet
  facet normal 1.51062e-016 0.90954 0.415617
    outer loop
      vertex 3.875 29.778 3.454
      vertex 0 29.778 3.454
      vertex 3.875 29.571 3.907
    endloop
  endfacet
  facet normal 1.51062e-016 0.90954 0.415617
    outer loop
      vertex 3.875 29.571 3.907
      vertex 0 29.778 3.454
      vertex 0 29.571 3.907
    endloop
  endfacet
  facet normal 2.02321e-016 0.989788 0.142546
    outer loop
      vertex 3.875 29.571 3.907
      vertex 0 29.571 3.907
      vertex 3.875 29.5 4.4
    endloop
  endfacet
  facet normal 2.02321e-016 0.989788 0.142546
    outer loop
      vertex 3.875 29.5 4.4
      vertex 0 29.571 3.907
      vertex 0 29.5 4.4
    endloop
  endfacet
  facet normal 2.37233e-016 0.989788 -0.142546
    outer loop
      vertex 3.875 29.5 4.4
      vertex 0 29.5 4.4
      vertex 3.875 29.571 4.893
    endloop
  endfacet
  facet normal 2.37233e-016 0.989788 -0.142546
    outer loop
      vertex 3.875 29.571 4.893
      vertex 0 29.5 4.4
      vertex 0 29.571 4.893
    endloop
  endfacet
  facet normal 2.52855e-016 0.90954 -0.415617
    outer loop
      vertex 3.875 29.571 4.893
      vertex 0 29.571 4.893
      vertex 3.875 29.778 5.346
    endloop
  endfacet
  facet normal 2.52855e-016 0.90954 -0.415617
    outer loop
      vertex 3.875 29.778 5.346
      vertex 0 29.571 4.893
      vertex 0 29.778 5.346
    endloop
  endfacet
  facet normal 2.48043e-016 0.75622 -0.654318
    outer loop
      vertex 3.875 29.778 5.346
      vertex 0 29.778 5.346
      vertex 3.875 30.022 5.628
    endloop
  endfacet
  facet normal 2.48043e-016 0.75622 -0.654318
    outer loop
      vertex 3.875 30.022 5.628
      vertex 0 29.778 5.346
      vertex 0 30.022 5.628
    endloop
  endfacet
  facet normal 7.04165e-017 0.707107 0.707107
    outer loop
      vertex 3.875 30.013 5.637
      vertex 3.875 30.022 5.628
      vertex 0 30.022 5.628
    endloop
  endfacet
  facet normal 7.04165e-017 0.707107 0.707107
    outer loop
      vertex 0 30.013 5.637
      vertex 3.875 30.013 5.637
      vertex 0 30.022 5.628
    endloop
  endfacet
  facet normal 2.43602e-016 0.707107 -0.707107
    outer loop
      vertex 3.875 30.013 5.637
      vertex 0 30.013 5.637
      vertex 3.875 30.526 6.15
    endloop
  endfacet
  facet normal 2.43602e-016 0.707107 -0.707107
    outer loop
      vertex 3.875 30.526 6.15
      vertex 0 30.013 5.637
      vertex 0 30.526 6.15
    endloop
  endfacet
  facet normal 0 0 1
    outer loop
      vertex 17.5 7 8.8
      vertex 10.1549 7 8.8
      vertex 11 1 8.8
    endloop
  endfacet
  facet normal 0 0 1
    outer loop
      vertex 11 0 8.8
      vertex 17.5 7 8.8
      vertex 11 1 8.8
    endloop
  endfacet
  facet normal 0 0 1
    outer loop
      vertex 16.6 5.05885 8.8
      vertex 19.3 3.5 8.8
      vertex 17.5 7 8.8
    endloop
  endfacet
  facet normal 0 0 1
    outer loop
      vertex 19.3 3.5 8.8
      vertex 20.4444 1.60776 8.8
      vertex 17.5 7 8.8
    endloop
  endfacet
  facet normal 0 0 1
    outer loop
      vertex 20.4444 1.60776 8.8
      vertex 20.6837 2.04605 8.8
      vertex 17.5 7 8.8
    endloop
  endfacet
  facet normal 0 0 1
    outer loop
      vertex 20.6837 2.04605 8.8
      vertex 20.8582 2.51394 8.8
      vertex 17.5 7 8.8
    endloop
  endfacet
  facet normal 0 0 1
    outer loop
      vertex 20.8582 2.51394 8.8
      vertex 20.9644 3.0019 8.8
      vertex 17.5 7 8.8
    endloop
  endfacet
  facet normal 0 0 1
    outer loop
      vertex 20.9644 3.0019 8.8
      vertex 21 3.5 8.8
      vertex 17.5 7 8.8
    endloop
  endfacet
  facet normal 0 0 1
    outer loop
      vertex 21 3.5 8.8
      vertex 20.9644 3.9981 8.8
      vertex 17.5 7 8.8
    endloop
  endfacet
  facet normal 0 0 1
    outer loop
      vertex 20.9644 3.9981 8.8
      vertex 20.8582 4.48606 8.8
      vertex 17.5 7 8.8
    endloop
  endfacet
  facet normal 0 0 1
    outer loop
      vertex 20.8582 4.48606 8.8
      vertex 20.6837 4.95395 8.8
      vertex 17.5 7 8.8
    endloop
  endfacet
  facet normal 0 0 1
    outer loop
      vertex 20.6837 4.95395 8.8
      vertex 20.4444 5.39224 8.8
      vertex 17.5 7 8.8
    endloop
  endfacet
  facet normal 0 0 1
    outer loop
      vertex 20.4444 5.39224 8.8
      vertex 20.1451 5.79201 8.8
      vertex 17.5 7 8.8
    endloop
  endfacet
  facet normal 0 0 1
    outer loop
      vertex 20.1451 5.79201 8.8
      vertex 19.792 6.14512 8.8
      vertex 17.5 7 8.8
    endloop
  endfacet
  facet normal 0 0 1
    outer loop
      vertex 19.792 6.14512 8.8
      vertex 19.3922 6.44439 8.8
      vertex 17.5 7 8.8
    endloop
  endfacet
  facet normal 0 0 1
    outer loop
      vertex 19.3922 6.44439 8.8
      vertex 18.954 6.68371 8.8
      vertex 17.5 7 8.8
    endloop
  endfacet
  facet normal 0 0 1
    outer loop
      vertex 18.954 6.68371 8.8
      vertex 18.4861 6.85823 8.8
      vertex 17.5 7 8.8
    endloop
  endfacet
  facet normal 0 0 1
    outer loop
      vertex 18.4861 6.85823 8.8
      vertex 17.9981 6.96437 8.8
      vertex 17.5 7 8.8
    endloop
  endfacet
  facet normal 0 0 1
    outer loop
      vertex 11 0 8.8
      vertex 17.5 0 8.8
      vertex 16.6 1.94115 8.8
    endloop
  endfacet
  facet normal 0 0 1
    outer loop
      vertex 11 0 8.8
      vertex 16.6 5.05885 8.8
      vertex 17.5 7 8.8
    endloop
  endfacet
  facet normal 0 0 1
    outer loop
      vertex 11 0 8.8
      vertex 16.6 1.94115 8.8
      vertex 16.6 5.05885 8.8
    endloop
  endfacet
  facet normal 0 0 1
    outer loop
      vertex 20.1451 1.20799 8.8
      vertex 20.4444 1.60776 8.8
      vertex 19.3 3.5 8.8
    endloop
  endfacet
  facet normal 0 0 1
    outer loop
      vertex 19.3 3.5 8.8
      vertex 19.792 0.854876 8.8
      vertex 20.1451 1.20799 8.8
    endloop
  endfacet
  facet normal 0 0 1
    outer loop
      vertex 19.3 3.5 8.8
      vertex 19.3922 0.555613 8.8
      vertex 19.792 0.854876 8.8
    endloop
  endfacet
  facet normal 0 0 1
    outer loop
      vertex 19.3 3.5 8.8
      vertex 18.954 0.316288 8.8
      vertex 19.3922 0.555613 8.8
    endloop
  endfacet
  facet normal 0 0 1
    outer loop
      vertex 19.3 3.5 8.8
      vertex 18.4861 0.141775 8.8
      vertex 18.954 0.316288 8.8
    endloop
  endfacet
  facet normal 0 0 1
    outer loop
      vertex 19.3 3.5 8.8
      vertex 17.9981 0.035625 8.8
      vertex 18.4861 0.141775 8.8
    endloop
  endfacet
  facet normal 0 0 1
    outer loop
      vertex 19.3 3.5 8.8
      vertex 17.5 0 8.8
      vertex 17.9981 0.035625 8.8
    endloop
  endfacet
  facet normal 0 0 1
    outer loop
      vertex 19.3 3.5 8.8
      vertex 16.6 1.94115 8.8
      vertex 17.5 0 8.8
    endloop
  endfacet
  facet normal -1.31066e-016 -0.866025 -0.5
    outer loop
      vertex 3.875 34.6 4.4
      vertex 6.26761 34.6 4.4
      vertex 6.50352 32.925 7.30119
    endloop
  endfacet
  facet normal -1.31066e-016 -0.866025 -0.5
    outer loop
      vertex 3.875 32.925 7.30119
      vertex 3.875 34.6 4.4
      vertex 6.50352 32.925 7.30119
    endloop
  endfacet
  facet normal -2.53527e-016 -0.866025 0.5
    outer loop
      vertex 3.875 32.925 1.49882
      vertex 6.50352 32.925 1.49882
      vertex 6.26761 34.6 4.4
    endloop
  endfacet
  facet normal -2.53527e-016 -0.866025 0.5
    outer loop
      vertex 3.875 34.6 4.4
      vertex 3.875 32.925 1.49882
      vertex 6.26761 34.6 4.4
    endloop
  endfacet
  facet normal 1.22461e-016 2.22045e-016 -1
    outer loop
      vertex 6.50352 32.925 7.30119
      vertex 6.97535 29.575 7.30119
      vertex 3.875 32.925 7.30119
    endloop
  endfacet
  facet normal 1.22461e-016 2.22045e-016 -1
    outer loop
      vertex 3.875 32.925 7.30119
      vertex 6.97535 29.575 7.30119
      vertex 3.875 29.575 7.30119
    endloop
  endfacet
  facet normal 2.53527e-016 0.866025 -0.5
    outer loop
      vertex 7.21127 27.9 4.4
      vertex 3.875 27.9 4.4
      vertex 6.97535 29.575 7.30119
    endloop
  endfacet
  facet normal 2.53527e-016 0.866025 -0.5
    outer loop
      vertex 6.97535 29.575 7.30119
      vertex 3.875 27.9 4.4
      vertex 3.875 29.575 7.30119
    endloop
  endfacet
  facet normal 1.31066e-016 0.866025 0.5
    outer loop
      vertex 6.97535 29.575 1.49882
      vertex 3.875 29.575 1.49882
      vertex 7.21127 27.9 4.4
    endloop
  endfacet
  facet normal 1.31066e-016 0.866025 0.5
    outer loop
      vertex 7.21127 27.9 4.4
      vertex 3.875 29.575 1.49882
      vertex 3.875 27.9 4.4
    endloop
  endfacet
  facet normal -1.22461e-016 -2.22045e-016 1
    outer loop
      vertex 6.97535 29.575 1.49882
      vertex 6.50352 32.925 1.49882
      vertex 3.875 32.925 1.49882
    endloop
  endfacet
  facet normal -1.22461e-016 -2.22045e-016 1
    outer loop
      vertex 3.875 29.575 1.49882
      vertex 6.97535 29.575 1.49882
      vertex 3.875 32.925 1.49882
    endloop
  endfacet
  facet normal -1.31066e-016 -0.866025 -0.5
    outer loop
      vertex 3.875 14.6 4.4
      vertex 9.08451 14.6 4.4
      vertex 9.32042 12.925 7.30119
    endloop
  endfacet
  facet normal -1.31066e-016 -0.866025 -0.5
    outer loop
      vertex 3.875 12.925 7.30119
      vertex 3.875 14.6 4.4
      vertex 9.32042 12.925 7.30119
    endloop
  endfacet
  facet normal -2.53527e-016 -0.866025 0.5
    outer loop
      vertex 3.875 12.925 1.49882
      vertex 9.32042 12.925 1.49882
      vertex 9.08451 14.6 4.4
    endloop
  endfacet
  facet normal -2.53527e-016 -0.866025 0.5
    outer loop
      vertex 3.875 14.6 4.4
      vertex 3.875 12.925 1.49882
      vertex 9.08451 14.6 4.4
    endloop
  endfacet
  facet normal 1.22461e-016 2.22045e-016 -1
    outer loop
      vertex 9.32042 12.925 7.30119
      vertex 9.79225 9.575 7.30119
      vertex 3.875 12.925 7.30119
    endloop
  endfacet
  facet normal 1.22461e-016 2.22045e-016 -1
    outer loop
      vertex 3.875 12.925 7.30119
      vertex 9.79225 9.575 7.30119
      vertex 3.875 9.575 7.30119
    endloop
  endfacet
  facet normal 2.53527e-016 0.866025 -0.5
    outer loop
      vertex 10.0282 7.9 4.4
      vertex 3.875 7.9 4.4
      vertex 9.79225 9.575 7.30119
    endloop
  endfacet
  facet normal 2.53527e-016 0.866025 -0.5
    outer loop
      vertex 9.79225 9.575 7.30119
      vertex 3.875 7.9 4.4
      vertex 3.875 9.575 7.30119
    endloop
  endfacet
  facet normal 1.31066e-016 0.866025 0.5
    outer loop
      vertex 9.79225 9.575 1.49882
      vertex 3.875 9.575 1.49882
      vertex 10.0282 7.9 4.4
    endloop
  endfacet
  facet normal 1.31066e-016 0.866025 0.5
    outer loop
      vertex 10.0282 7.9 4.4
      vertex 3.875 9.575 1.49882
      vertex 3.875 7.9 4.4
    endloop
  endfacet
  facet normal -1.22461e-016 -2.22045e-016 1
    outer loop
      vertex 9.79225 9.575 1.49882
      vertex 9.32042 12.925 1.49882
      vertex 3.875 12.925 1.49882
    endloop
  endfacet
  facet normal -1.22461e-016 -2.22045e-016 1
    outer loop
      vertex 3.875 9.575 1.49882
      vertex 9.79225 9.575 1.49882
      vertex 3.875 12.925 1.49882
    endloop
  endfacet
  facet normal 0.0713393 -0.997452 0
    outer loop
      vertex 17.9981 0.035625 8.8
      vertex 17.5 0 8.8
      vertex 17.5 0 0
    endloop
  endfacet
  facet normal 0.0713393 -0.997452 0
    outer loop
      vertex 17.9981 0.035625 0
      vertex 17.9981 0.035625 8.8
      vertex 17.5 0 0
    endloop
  endfacet
  facet normal 0.212566 -0.977147 0
    outer loop
      vertex 18.4861 0.141775 8.8
      vertex 17.9981 0.035625 8.8
      vertex 17.9981 0.035625 0
    endloop
  endfacet
  facet normal 0.212566 -0.977147 0
    outer loop
      vertex 18.4861 0.141775 0
      vertex 18.4861 0.141775 8.8
      vertex 17.9981 0.035625 0
    endloop
  endfacet
  facet normal 0.349463 -0.93695 0
    outer loop
      vertex 18.954 0.316288 8.8
      vertex 18.4861 0.141775 8.8
      vertex 18.4861 0.141775 0
    endloop
  endfacet
  facet normal 0.349463 -0.93695 0
    outer loop
      vertex 18.954 0.316288 0
      vertex 18.954 0.316288 8.8
      vertex 18.4861 0.141775 0
    endloop
  endfacet
  facet normal 0.47925 -0.877679 0
    outer loop
      vertex 19.3922 0.555613 8.8
      vertex 18.954 0.316288 8.8
      vertex 18.954 0.316288 0
    endloop
  endfacet
  facet normal 0.47925 -0.877679 0
    outer loop
      vertex 19.3922 0.555613 0
      vertex 19.3922 0.555613 8.8
      vertex 18.954 0.316288 0
    endloop
  endfacet
  facet normal 0.599276 -0.800542 0
    outer loop
      vertex 19.792 0.854876 8.8
      vertex 19.3922 0.555613 8.8
      vertex 19.3922 0.555613 0
    endloop
  endfacet
  facet normal 0.599276 -0.800542 0
    outer loop
      vertex 19.792 0.854876 0
      vertex 19.792 0.854876 8.8
      vertex 19.3922 0.555613 0
    endloop
  endfacet
  facet normal 0.707107 -0.707107 0
    outer loop
      vertex 20.1451 1.20799 8.8
      vertex 19.792 0.854876 8.8
      vertex 19.792 0.854876 0
    endloop
  endfacet
  facet normal 0.707107 -0.707107 0
    outer loop
      vertex 20.1451 1.20799 0
      vertex 20.1451 1.20799 8.8
      vertex 19.792 0.854876 0
    endloop
  endfacet
  facet normal 0.800542 -0.599276 0
    outer loop
      vertex 20.4444 1.60776 8.8
      vertex 20.1451 1.20799 8.8
      vertex 20.1451 1.20799 0
    endloop
  endfacet
  facet normal 0.800542 -0.599276 0
    outer loop
      vertex 20.4444 1.60776 0
      vertex 20.4444 1.60776 8.8
      vertex 20.1451 1.20799 0
    endloop
  endfacet
  facet normal 0.877679 -0.47925 0
    outer loop
      vertex 20.6837 2.04605 8.8
      vertex 20.4444 1.60776 8.8
      vertex 20.4444 1.60776 0
    endloop
  endfacet
  facet normal 0.877679 -0.47925 0
    outer loop
      vertex 20.6837 2.04605 0
      vertex 20.6837 2.04605 8.8
      vertex 20.4444 1.60776 0
    endloop
  endfacet
  facet normal 0.93695 -0.349463 0
    outer loop
      vertex 20.8582 2.51394 8.8
      vertex 20.6837 2.04605 8.8
      vertex 20.6837 2.04605 0
    endloop
  endfacet
  facet normal 0.93695 -0.349463 0
    outer loop
      vertex 20.8582 2.51394 0
      vertex 20.8582 2.51394 8.8
      vertex 20.6837 2.04605 0
    endloop
  endfacet
  facet normal 0.977147 -0.212566 0
    outer loop
      vertex 20.9644 3.0019 8.8
      vertex 20.8582 2.51394 8.8
      vertex 20.8582 2.51394 0
    endloop
  endfacet
  facet normal 0.977147 -0.212566 0
    outer loop
      vertex 20.9644 3.0019 0
      vertex 20.9644 3.0019 8.8
      vertex 20.8582 2.51394 0
    endloop
  endfacet
  facet normal 0.997452 -0.0713393 0
    outer loop
      vertex 21 3.5 8.8
      vertex 20.9644 3.0019 8.8
      vertex 20.9644 3.0019 0
    endloop
  endfacet
  facet normal 0.997452 -0.0713393 0
    outer loop
      vertex 21 3.5 0
      vertex 21 3.5 8.8
      vertex 20.9644 3.0019 0
    endloop
  endfacet
  facet normal 0.997452 0.0713393 0
    outer loop
      vertex 20.9644 3.9981 0
      vertex 20.9644 3.9981 8.8
      vertex 21 3.5 8.8
    endloop
  endfacet
  facet normal 0.997452 0.0713393 0
    outer loop
      vertex 21 3.5 0
      vertex 20.9644 3.9981 0
      vertex 21 3.5 8.8
    endloop
  endfacet
  facet normal 0.977147 0.212566 0
    outer loop
      vertex 20.8582 4.48606 0
      vertex 20.8582 4.48606 8.8
      vertex 20.9644 3.9981 8.8
    endloop
  endfacet
  facet normal 0.977147 0.212566 0
    outer loop
      vertex 20.9644 3.9981 0
      vertex 20.8582 4.48606 0
      vertex 20.9644 3.9981 8.8
    endloop
  endfacet
  facet normal 0.93695 0.349463 0
    outer loop
      vertex 20.6837 4.95395 0
      vertex 20.6837 4.95395 8.8
      vertex 20.8582 4.48606 8.8
    endloop
  endfacet
  facet normal 0.93695 0.349463 0
    outer loop
      vertex 20.8582 4.48606 0
      vertex 20.6837 4.95395 0
      vertex 20.8582 4.48606 8.8
    endloop
  endfacet
  facet normal 0.877679 0.47925 0
    outer loop
      vertex 20.4444 5.39224 0
      vertex 20.4444 5.39224 8.8
      vertex 20.6837 4.95395 8.8
    endloop
  endfacet
  facet normal 0.877679 0.47925 0
    outer loop
      vertex 20.6837 4.95395 0
      vertex 20.4444 5.39224 0
      vertex 20.6837 4.95395 8.8
    endloop
  endfacet
  facet normal 0.800542 0.599276 0
    outer loop
      vertex 20.1451 5.79201 0
      vertex 20.1451 5.79201 8.8
      vertex 20.4444 5.39224 8.8
    endloop
  endfacet
  facet normal 0.800542 0.599276 0
    outer loop
      vertex 20.4444 5.39224 0
      vertex 20.1451 5.79201 0
      vertex 20.4444 5.39224 8.8
    endloop
  endfacet
  facet normal 0.707107 0.707107 0
    outer loop
      vertex 19.792 6.14512 0
      vertex 19.792 6.14512 8.8
      vertex 20.1451 5.79201 8.8
    endloop
  endfacet
  facet normal 0.707107 0.707107 0
    outer loop
      vertex 20.1451 5.79201 0
      vertex 19.792 6.14512 0
      vertex 20.1451 5.79201 8.8
    endloop
  endfacet
  facet normal 0.599276 0.800542 0
    outer loop
      vertex 19.3922 6.44439 8.8
      vertex 19.792 6.14512 8.8
      vertex 19.3922 6.44439 0
    endloop
  endfacet
  facet normal 0.599276 0.800542 0
    outer loop
      vertex 19.3922 6.44439 0
      vertex 19.792 6.14512 8.8
      vertex 19.792 6.14512 0
    endloop
  endfacet
  facet normal 0.47925 0.877679 0
    outer loop
      vertex 18.954 6.68371 8.8
      vertex 19.3922 6.44439 8.8
      vertex 18.954 6.68371 0
    endloop
  endfacet
  facet normal 0.47925 0.877679 0
    outer loop
      vertex 18.954 6.68371 0
      vertex 19.3922 6.44439 8.8
      vertex 19.3922 6.44439 0
    endloop
  endfacet
  facet normal 0.349463 0.93695 0
    outer loop
      vertex 18.4861 6.85823 8.8
      vertex 18.954 6.68371 8.8
      vertex 18.4861 6.85823 0
    endloop
  endfacet
  facet normal 0.349463 0.93695 0
    outer loop
      vertex 18.4861 6.85823 0
      vertex 18.954 6.68371 8.8
      vertex 18.954 6.68371 0
    endloop
  endfacet
  facet normal 0.212566 0.977147 0
    outer loop
      vertex 17.9981 6.96437 8.8
      vertex 18.4861 6.85823 8.8
      vertex 17.9981 6.96437 0
    endloop
  endfacet
  facet normal 0.212566 0.977147 0
    outer loop
      vertex 17.9981 6.96437 0
      vertex 18.4861 6.85823 8.8
      vertex 18.4861 6.85823 0
    endloop
  endfacet
  facet normal 0.0713393 0.997452 0
    outer loop
      vertex 17.5 7 8.8
      vertex 17.9981 6.96437 8.8
      vertex 17.5 7 0
    endloop
  endfacet
  facet normal 0.0713393 0.997452 0
    outer loop
      vertex 17.5 7 0
      vertex 17.9981 6.96437 8.8
      vertex 17.9981 6.96437 0
    endloop
  endfacet
  facet normal -0.5 -0.866025 0
    outer loop
      vertex 16.6 5.05885 0
      vertex 19.3 3.5 0
      vertex 19.3 3.5 8.8
    endloop
  endfacet
  facet normal -0.5 -0.866025 0
    outer loop
      vertex 16.6 5.05885 8.8
      vertex 16.6 5.05885 0
      vertex 19.3 3.5 8.8
    endloop
  endfacet
  facet normal 1 0 0
    outer loop
      vertex 16.6 1.94115 0
      vertex 16.6 5.05885 0
      vertex 16.6 5.05885 8.8
    endloop
  endfacet
  facet normal 1 0 0
    outer loop
      vertex 16.6 1.94115 8.8
      vertex 16.6 1.94115 0
      vertex 16.6 5.05885 8.8
    endloop
  endfacet
  facet normal -0.5 0.866025 0
    outer loop
      vertex 19.3 3.5 0
      vertex 16.6 1.94115 0
      vertex 19.3 3.5 8.8
    endloop
  endfacet
  facet normal -0.5 0.866025 0
    outer loop
      vertex 19.3 3.5 8.8
      vertex 16.6 1.94115 0
      vertex 16.6 1.94115 8.8
    endloop
  endfacet
  facet normal 1 -1.36718e-016 1.22461e-016
    outer loop
      vertex 3.875 10.523 2.808
      vertex 3.875 9.575 1.49882
      vertex 3.875 12.925 1.49882
    endloop
  endfacet
  facet normal 1 -1.36718e-016 1.22461e-016
    outer loop
      vertex 3.875 9.778 3.454
      vertex 3.875 9.571 3.907
      vertex 3.875 7.9 4.4
    endloop
  endfacet
  facet normal 1 -1.36718e-016 1.22461e-016
    outer loop
      vertex 3.875 14.6 4.4
      vertex 3.875 13 4.4
      vertex 3.875 12.925 1.49882
    endloop
  endfacet
  facet normal 1 -1.36718e-016 1.22461e-016
    outer loop
      vertex 3.875 11.001 2.668
      vertex 3.875 10.523 2.808
      vertex 3.875 12.925 1.49882
    endloop
  endfacet
  facet normal 1 -1.36718e-016 1.22461e-016
    outer loop
      vertex 3.875 9.5 4.4
      vertex 3.875 9.571 4.893
      vertex 3.875 7.9 4.4
    endloop
  endfacet
  facet normal 1 -1.36718e-016 1.22461e-016
    outer loop
      vertex 3.875 9.575 7.30119
      vertex 3.875 7.9 4.4
      vertex 3.875 10.013 5.637
    endloop
  endfacet
  facet normal 1 -1.36718e-016 1.22461e-016
    outer loop
      vertex 3.875 9.575 7.30119
      vertex 3.875 10.526 6.15
      vertex 3.875 12.925 7.30119
    endloop
  endfacet
  facet normal 1 -1.36718e-016 1.22461e-016
    outer loop
      vertex 3.875 9.575 7.30119
      vertex 3.875 10.013 5.637
      vertex 3.875 10.526 6.15
    endloop
  endfacet
  facet normal 1 -1.36718e-016 1.22461e-016
    outer loop
      vertex 3.875 12.925 7.30119
      vertex 3.875 11.974 6.15
      vertex 3.875 14.6 4.4
    endloop
  endfacet
  facet normal 1 -1.36718e-016 1.22461e-016
    outer loop
      vertex 3.875 11.974 6.15
      vertex 3.875 12.487 5.637
      vertex 3.875 14.6 4.4
    endloop
  endfacet
  facet normal 1 -1.36718e-016 1.22461e-016
    outer loop
      vertex 3.875 12.487 5.637
      vertex 3.875 12.478 5.628
      vertex 3.875 14.6 4.4
    endloop
  endfacet
  facet normal 1 -1.36718e-016 1.22461e-016
    outer loop
      vertex 3.875 9.571 4.893
      vertex 3.875 9.778 5.346
      vertex 3.875 7.9 4.4
    endloop
  endfacet
  facet normal 1 -1.36718e-016 1.22461e-016
    outer loop
      vertex 3.875 12.478 5.628
      vertex 3.875 12.722 5.346
      vertex 3.875 14.6 4.4
    endloop
  endfacet
  facet normal 1 -1.36718e-016 1.22461e-016
    outer loop
      vertex 3.875 12.722 5.346
      vertex 3.875 12.929 4.893
      vertex 3.875 14.6 4.4
    endloop
  endfacet
  facet normal 1 -1.36718e-016 1.22461e-016
    outer loop
      vertex 3.875 12.929 4.893
      vertex 3.875 13 4.4
      vertex 3.875 14.6 4.4
    endloop
  endfacet
  facet normal 1 -1.36718e-016 1.22461e-016
    outer loop
      vertex 3.875 13 4.4
      vertex 3.875 12.929 3.907
      vertex 3.875 12.925 1.49882
    endloop
  endfacet
  facet normal 1 -1.36718e-016 1.22461e-016
    outer loop
      vertex 3.875 12.929 3.907
      vertex 3.875 12.722 3.454
      vertex 3.875 12.925 1.49882
    endloop
  endfacet
  facet normal 1 -1.36718e-016 1.22461e-016
    outer loop
      vertex 3.875 12.722 3.454
      vertex 3.875 12.396 3.077
      vertex 3.875 12.925 1.49882
    endloop
  endfacet
  facet normal 1 -1.36718e-016 1.22461e-016
    outer loop
      vertex 3.875 12.396 3.077
      vertex 3.875 11.977 2.808
      vertex 3.875 12.925 1.49882
    endloop
  endfacet
  facet normal 1 -1.36718e-016 1.22461e-016
    outer loop
      vertex 3.875 11.977 2.808
      vertex 3.875 11.499 2.668
      vertex 3.875 12.925 1.49882
    endloop
  endfacet
  facet normal 1 -1.36718e-016 1.22461e-016
    outer loop
      vertex 3.875 11.499 2.668
      vertex 3.875 11.001 2.668
      vertex 3.875 12.925 1.49882
    endloop
  endfacet
  facet normal 1 -1.36718e-016 1.22461e-016
    outer loop
      vertex 3.875 7.9 4.4
      vertex 3.875 9.575 1.49882
      vertex 3.875 10.523 2.808
    endloop
  endfacet
  facet normal 1 -1.36718e-016 1.22461e-016
    outer loop
      vertex 3.875 10.104 3.077
      vertex 3.875 9.778 3.454
      vertex 3.875 7.9 4.4
    endloop
  endfacet
  facet normal 1 -1.36718e-016 1.22461e-016
    outer loop
      vertex 3.875 7.9 4.4
      vertex 3.875 10.523 2.808
      vertex 3.875 10.104 3.077
    endloop
  endfacet
  facet normal 1 -1.36718e-016 1.22461e-016
    outer loop
      vertex 3.875 9.571 3.907
      vertex 3.875 9.5 4.4
      vertex 3.875 7.9 4.4
    endloop
  endfacet
  facet normal 1 -1.36718e-016 1.22461e-016
    outer loop
      vertex 3.875 10.013 5.637
      vertex 3.875 7.9 4.4
      vertex 3.875 10.022 5.628
    endloop
  endfacet
  facet normal 1 -1.36718e-016 1.22461e-016
    outer loop
      vertex 3.875 9.778 5.346
      vertex 3.875 10.022 5.628
      vertex 3.875 7.9 4.4
    endloop
  endfacet
  facet normal 1 -1.36718e-016 1.22461e-016
    outer loop
      vertex 3.875 10.526 6.15
      vertex 3.875 11.974 6.15
      vertex 3.875 12.925 7.30119
    endloop
  endfacet
  facet normal 1 -1.36718e-016 1.22461e-016
    outer loop
      vertex 3.875 30.523 2.808
      vertex 3.875 29.575 1.49882
      vertex 3.875 32.925 1.49882
    endloop
  endfacet
  facet normal 1 -1.36718e-016 1.22461e-016
    outer loop
      vertex 3.875 29.778 3.454
      vertex 3.875 29.571 3.907
      vertex 3.875 27.9 4.4
    endloop
  endfacet
  facet normal 1 -1.36718e-016 1.22461e-016
    outer loop
      vertex 3.875 34.6 4.4
      vertex 3.875 33 4.4
      vertex 3.875 32.925 1.49882
    endloop
  endfacet
  facet normal 1 -1.36718e-016 1.22461e-016
    outer loop
      vertex 3.875 31.001 2.668
      vertex 3.875 30.523 2.808
      vertex 3.875 32.925 1.49882
    endloop
  endfacet
  facet normal 1 -1.36718e-016 1.22461e-016
    outer loop
      vertex 3.875 29.5 4.4
      vertex 3.875 29.571 4.893
      vertex 3.875 27.9 4.4
    endloop
  endfacet
  facet normal 1 -1.36718e-016 1.22461e-016
    outer loop
      vertex 3.875 29.575 7.30119
      vertex 3.875 27.9 4.4
      vertex 3.875 30.013 5.637
    endloop
  endfacet
  facet normal 1 -1.36718e-016 1.22461e-016
    outer loop
      vertex 3.875 29.575 7.30119
      vertex 3.875 30.526 6.15
      vertex 3.875 32.925 7.30119
    endloop
  endfacet
  facet normal 1 -1.36718e-016 1.22461e-016
    outer loop
      vertex 3.875 29.575 7.30119
      vertex 3.875 30.013 5.637
      vertex 3.875 30.526 6.15
    endloop
  endfacet
  facet normal 1 -1.36718e-016 1.22461e-016
    outer loop
      vertex 3.875 32.925 7.30119
      vertex 3.875 31.974 6.15
      vertex 3.875 34.6 4.4
    endloop
  endfacet
  facet normal 1 -1.36718e-016 1.22461e-016
    outer loop
      vertex 3.875 31.974 6.15
      vertex 3.875 32.487 5.637
      vertex 3.875 34.6 4.4
    endloop
  endfacet
  facet normal 1 -1.36718e-016 1.22461e-016
    outer loop
      vertex 3.875 32.487 5.637
      vertex 3.875 32.478 5.628
      vertex 3.875 34.6 4.4
    endloop
  endfacet
  facet normal 1 -1.36718e-016 1.22461e-016
    outer loop
      vertex 3.875 29.571 4.893
      vertex 3.875 29.778 5.346
      vertex 3.875 27.9 4.4
    endloop
  endfacet
  facet normal 1 -1.36718e-016 1.22461e-016
    outer loop
      vertex 3.875 32.478 5.628
      vertex 3.875 32.722 5.346
      vertex 3.875 34.6 4.4
    endloop
  endfacet
  facet normal 1 -1.36718e-016 1.22461e-016
    outer loop
      vertex 3.875 32.722 5.346
      vertex 3.875 32.929 4.893
      vertex 3.875 34.6 4.4
    endloop
  endfacet
  facet normal 1 -1.36718e-016 1.22461e-016
    outer loop
      vertex 3.875 32.929 4.893
      vertex 3.875 33 4.4
      vertex 3.875 34.6 4.4
    endloop
  endfacet
  facet normal 1 -1.36718e-016 1.22461e-016
    outer loop
      vertex 3.875 33 4.4
      vertex 3.875 32.929 3.907
      vertex 3.875 32.925 1.49882
    endloop
  endfacet
  facet normal 1 -1.36718e-016 1.22461e-016
    outer loop
      vertex 3.875 32.929 3.907
      vertex 3.875 32.722 3.454
      vertex 3.875 32.925 1.49882
    endloop
  endfacet
  facet normal 1 -1.36718e-016 1.22461e-016
    outer loop
      vertex 3.875 32.722 3.454
      vertex 3.875 32.396 3.077
      vertex 3.875 32.925 1.49882
    endloop
  endfacet
  facet normal 1 -1.36718e-016 1.22461e-016
    outer loop
      vertex 3.875 32.396 3.077
      vertex 3.875 31.977 2.808
      vertex 3.875 32.925 1.49882
    endloop
  endfacet
  facet normal 1 -1.36718e-016 1.22461e-016
    outer loop
      vertex 3.875 31.977 2.808
      vertex 3.875 31.499 2.668
      vertex 3.875 32.925 1.49882
    endloop
  endfacet
  facet normal 1 -1.36718e-016 1.22461e-016
    outer loop
      vertex 3.875 31.499 2.668
      vertex 3.875 31.001 2.668
      vertex 3.875 32.925 1.49882
    endloop
  endfacet
  facet normal 1 -1.36718e-016 1.22461e-016
    outer loop
      vertex 3.875 27.9 4.4
      vertex 3.875 29.575 1.49882
      vertex 3.875 30.523 2.808
    endloop
  endfacet
  facet normal 1 -1.36718e-016 1.22461e-016
    outer loop
      vertex 3.875 30.104 3.077
      vertex 3.875 29.778 3.454
      vertex 3.875 27.9 4.4
    endloop
  endfacet
  facet normal 1 -1.36718e-016 1.22461e-016
    outer loop
      vertex 3.875 27.9 4.4
      vertex 3.875 30.523 2.808
      vertex 3.875 30.104 3.077
    endloop
  endfacet
  facet normal 1 -1.36718e-016 1.22461e-016
    outer loop
      vertex 3.875 29.571 3.907
      vertex 3.875 29.5 4.4
      vertex 3.875 27.9 4.4
    endloop
  endfacet
  facet normal 1 -1.36718e-016 1.22461e-016
    outer loop
      vertex 3.875 30.013 5.637
      vertex 3.875 27.9 4.4
      vertex 3.875 30.022 5.628
    endloop
  endfacet
  facet normal 1 -1.36718e-016 1.22461e-016
    outer loop
      vertex 3.875 29.778 5.346
      vertex 3.875 30.022 5.628
      vertex 3.875 27.9 4.4
    endloop
  endfacet
  facet normal 1 -1.36718e-016 1.22461e-016
    outer loop
      vertex 3.875 30.526 6.15
      vertex 3.875 31.974 6.15
      vertex 3.875 32.925 7.30119
    endloop
  endfacet
endsolid OpenSCAD_Model
