solid OpenSCAD_Model
  facet normal 0 -2.22045e-016 1
    outer loop
      vertex 7.1 -3.05885 8.8
      vertex 0 -5 8.8
      vertex 11 -5 8.8
    endloop
  endfacet
  facet normal 0 -2.22045e-016 1
    outer loop
      vertex 6 41.5 8.8
      vertex 0 41.5 8.8
      vertex 11 -4 8.8
    endloop
  endfacet
  facet normal 0 -2.22045e-016 1
    outer loop
      vertex 11 -4 8.8
      vertex 0 41.5 8.8
      vertex 11 -5 8.8
    endloop
  endfacet
  facet normal 0 -2.22045e-016 1
    outer loop
      vertex 0 41.5 8.8
      vertex 0 -5 8.8
      vertex 7.1 -3.05885 8.8
    endloop
  endfacet
  facet normal 0 -2.22045e-016 1
    outer loop
      vertex 0 41.5 8.8
      vertex 7.1 -3.05885 8.8
      vertex 7.1 0.058846 8.8
    endloop
  endfacet
  facet normal 0 -2.22045e-016 1
    outer loop
      vertex 0 41.5 8.8
      vertex 9.8 -1.5 8.8
      vertex 11 -5 8.8
    endloop
  endfacet
  facet normal 0 -2.22045e-016 1
    outer loop
      vertex 0 41.5 8.8
      vertex 7.1 0.058846 8.8
      vertex 9.8 -1.5 8.8
    endloop
  endfacet
  facet normal 0 -2.22045e-016 1
    outer loop
      vertex 9.8 -1.5 8.8
      vertex 7.1 -3.05885 8.8
      vertex 11 -5 8.8
    endloop
  endfacet
  facet normal 0 -1 -2.22045e-016
    outer loop
      vertex 11 -5 8.8
      vertex 0 -5 8.8
      vertex 0 -5 6.66134e-016
    endloop
  endfacet
  facet normal 0 -1 -2.22045e-016
    outer loop
      vertex 11 -5 6.66134e-016
      vertex 11 -5 8.8
      vertex 0 -5 6.66134e-016
    endloop
  endfacet
  facet normal -1 0 0
    outer loop
      vertex 0 37.929 4.893
      vertex 0 41.5 8.8
      vertex 0 41.5 1.09912e-014
    endloop
  endfacet
  facet normal -1 0 0
    outer loop
      vertex 0 16.974 6.15
      vertex 0 41.5 8.8
      vertex 0 17.487 5.637
    endloop
  endfacet
  facet normal -1 0 0
    outer loop
      vertex 0 2 2.22045e-015
      vertex 0 2 0
      vertex 0 -5 6.66134e-016
    endloop
  endfacet
  facet normal -1 0 0
    outer loop
      vertex 0 15.523 2.808
      vertex 0 2 2.22045e-015
      vertex 0 15.104 3.077
    endloop
  endfacet
  facet normal -1 0 0
    outer loop
      vertex 0 -5 8.8
      vertex 0 41.5 8.8
      vertex 0 16.974 6.15
    endloop
  endfacet
  facet normal -1 0 0
    outer loop
      vertex 0 14.778 3.454
      vertex 0 -5 6.66134e-016
      vertex 0 14.571 3.907
    endloop
  endfacet
  facet normal -1 0 0
    outer loop
      vertex 0 -5 8.8
      vertex 0 16.974 6.15
      vertex 0 15.526 6.15
    endloop
  endfacet
  facet normal -1 0 0
    outer loop
      vertex 0 -5 8.8
      vertex 0 15.526 6.15
      vertex 0 -5 6.66134e-016
    endloop
  endfacet
  facet normal -1 0 0
    outer loop
      vertex 0 15.526 6.15
      vertex 0 15.013 5.637
      vertex 0 -5 6.66134e-016
    endloop
  endfacet
  facet normal -1 0 0
    outer loop
      vertex 0 15.013 5.637
      vertex 0 15.022 5.628
      vertex 0 -5 6.66134e-016
    endloop
  endfacet
  facet normal -1 0 0
    outer loop
      vertex 0 14.778 5.346
      vertex 0 -5 6.66134e-016
      vertex 0 15.022 5.628
    endloop
  endfacet
  facet normal -1 0 0
    outer loop
      vertex 0 35.013 5.637
      vertex 0 16.977 2.808
      vertex 0 35.526 6.15
    endloop
  endfacet
  facet normal -1 0 0
    outer loop
      vertex 0 14.778 5.346
      vertex 0 14.571 4.893
      vertex 0 -5 6.66134e-016
    endloop
  endfacet
  facet normal -1 0 0
    outer loop
      vertex 0 17.478 5.628
      vertex 0 41.5 8.8
      vertex 0 17.722 5.346
    endloop
  endfacet
  facet normal -1 0 0
    outer loop
      vertex 0 14.571 4.893
      vertex 0 14.5 4.4
      vertex 0 -5 6.66134e-016
    endloop
  endfacet
  facet normal -1 0 0
    outer loop
      vertex 0 17.722 5.346
      vertex 0 41.5 8.8
      vertex 0 17.929 4.893
    endloop
  endfacet
  facet normal -1 0 0
    outer loop
      vertex 0 14.5 4.4
      vertex 0 14.571 3.907
      vertex 0 -5 6.66134e-016
    endloop
  endfacet
  facet normal -1 0 0
    outer loop
      vertex 0 2 2.22045e-015
      vertex 0 -5 6.66134e-016
      vertex 0 14.778 3.454
    endloop
  endfacet
  facet normal -1 0 0
    outer loop
      vertex 0 2 2.22045e-015
      vertex 0 14.778 3.454
      vertex 0 15.104 3.077
    endloop
  endfacet
  facet normal -1 0 0
    outer loop
      vertex 0 17.929 3.907
      vertex 0 41.5 8.8
      vertex 0 17.722 3.454
    endloop
  endfacet
  facet normal -1 0 0
    outer loop
      vertex 0 2 2.22045e-015
      vertex 0 15.523 2.808
      vertex 0 16.001 2.668
    endloop
  endfacet
  facet normal -1 0 0
    outer loop
      vertex 0 2 2.22045e-015
      vertex 0 16.001 2.668
      vertex 0 41.5 1.09912e-014
    endloop
  endfacet
  facet normal -1 0 0
    outer loop
      vertex 0 16.001 2.668
      vertex 0 16.499 2.668
      vertex 0 41.5 1.09912e-014
    endloop
  endfacet
  facet normal -1 0 0
    outer loop
      vertex 0 17.396 3.077
      vertex 0 41.5 8.8
      vertex 0 16.977 2.808
    endloop
  endfacet
  facet normal -1 0 0
    outer loop
      vertex 0 17.722 3.454
      vertex 0 41.5 8.8
      vertex 0 17.396 3.077
    endloop
  endfacet
  facet normal -1 0 0
    outer loop
      vertex 0 16.977 2.808
      vertex 0 41.5 1.09912e-014
      vertex 0 16.499 2.668
    endloop
  endfacet
  facet normal -1 0 0
    outer loop
      vertex 0 18 4.4
      vertex 0 41.5 8.8
      vertex 0 17.929 3.907
    endloop
  endfacet
  facet normal -1 0 0
    outer loop
      vertex 0 17.487 5.637
      vertex 0 41.5 8.8
      vertex 0 17.478 5.628
    endloop
  endfacet
  facet normal -1 0 0
    outer loop
      vertex 0 35.526 6.15
      vertex 0 41.5 8.8
      vertex 0 36.974 6.15
    endloop
  endfacet
  facet normal -1 0 0
    outer loop
      vertex 0 16.977 2.808
      vertex 0 41.5 8.8
      vertex 0 35.526 6.15
    endloop
  endfacet
  facet normal -1 0 0
    outer loop
      vertex 0 36.001 2.668
      vertex 0 41.5 1.09912e-014
      vertex 0 35.523 2.808
    endloop
  endfacet
  facet normal -1 0 0
    outer loop
      vertex 0 16.977 2.808
      vertex 0 35.013 5.637
      vertex 0 35.022 5.628
    endloop
  endfacet
  facet normal -1 0 0
    outer loop
      vertex 0 16.977 2.808
      vertex 0 35.022 5.628
      vertex 0 34.778 5.346
    endloop
  endfacet
  facet normal -1 0 0
    outer loop
      vertex 0 16.977 2.808
      vertex 0 34.778 5.346
      vertex 0 34.571 4.893
    endloop
  endfacet
  facet normal -1 0 0
    outer loop
      vertex 0 16.977 2.808
      vertex 0 34.571 4.893
      vertex 0 34.5 4.4
    endloop
  endfacet
  facet normal -1 0 0
    outer loop
      vertex 0 16.977 2.808
      vertex 0 34.5 4.4
      vertex 0 34.571 3.907
    endloop
  endfacet
  facet normal -1 0 0
    outer loop
      vertex 0 16.977 2.808
      vertex 0 34.571 3.907
      vertex 0 34.778 3.454
    endloop
  endfacet
  facet normal -1 0 0
    outer loop
      vertex 0 16.977 2.808
      vertex 0 34.778 3.454
      vertex 0 35.104 3.077
    endloop
  endfacet
  facet normal -1 0 0
    outer loop
      vertex 0 16.977 2.808
      vertex 0 35.104 3.077
      vertex 0 35.523 2.808
    endloop
  endfacet
  facet normal -1 0 0
    outer loop
      vertex 0 16.977 2.808
      vertex 0 35.523 2.808
      vertex 0 41.5 1.09912e-014
    endloop
  endfacet
  facet normal -1 0 0
    outer loop
      vertex 0 36.499 2.668
      vertex 0 41.5 1.09912e-014
      vertex 0 36.001 2.668
    endloop
  endfacet
  facet normal -1 0 0
    outer loop
      vertex 0 36.977 2.808
      vertex 0 41.5 1.09912e-014
      vertex 0 36.499 2.668
    endloop
  endfacet
  facet normal -1 0 0
    outer loop
      vertex 0 37.396 3.077
      vertex 0 41.5 1.09912e-014
      vertex 0 36.977 2.808
    endloop
  endfacet
  facet normal -1 0 0
    outer loop
      vertex 0 37.722 3.454
      vertex 0 41.5 1.09912e-014
      vertex 0 37.396 3.077
    endloop
  endfacet
  facet normal -1 0 0
    outer loop
      vertex 0 37.929 4.893
      vertex 0 41.5 1.09912e-014
      vertex 0 38 4.4
    endloop
  endfacet
  facet normal -1 0 0
    outer loop
      vertex 0 37.722 3.454
      vertex 0 37.929 3.907
      vertex 0 41.5 1.09912e-014
    endloop
  endfacet
  facet normal -1 0 0
    outer loop
      vertex 0 37.929 3.907
      vertex 0 38 4.4
      vertex 0 41.5 1.09912e-014
    endloop
  endfacet
  facet normal -1 0 0
    outer loop
      vertex 0 37.722 5.346
      vertex 0 41.5 8.8
      vertex 0 37.929 4.893
    endloop
  endfacet
  facet normal -1 0 0
    outer loop
      vertex 0 37.478 5.628
      vertex 0 41.5 8.8
      vertex 0 37.722 5.346
    endloop
  endfacet
  facet normal -1 0 0
    outer loop
      vertex 0 37.487 5.637
      vertex 0 41.5 8.8
      vertex 0 37.478 5.628
    endloop
  endfacet
  facet normal -1 0 0
    outer loop
      vertex 0 36.974 6.15
      vertex 0 41.5 8.8
      vertex 0 37.487 5.637
    endloop
  endfacet
  facet normal -1 0 0
    outer loop
      vertex 0 -5 6.66134e-016
      vertex 0 2 0
      vertex 0 -5 0
    endloop
  endfacet
  facet normal -1 0 0
    outer loop
      vertex 0 17.929 4.893
      vertex 0 41.5 8.8
      vertex 0 18 4.4
    endloop
  endfacet
  facet normal 0 1 2.22045e-016
    outer loop
      vertex 0 41.5 8.8
      vertex 6 41.5 8.8
      vertex 0 41.5 1.09912e-014
    endloop
  endfacet
  facet normal 0 1 2.22045e-016
    outer loop
      vertex 0 41.5 1.09912e-014
      vertex 6 41.5 8.8
      vertex 6 41.5 1.09912e-014
    endloop
  endfacet
  facet normal 0.994016 0.109233 2.42545e-017
    outer loop
      vertex 10.3407 2 8.8
      vertex 6 41.5 8.8
      vertex 11 -4 8.8
    endloop
  endfacet
  facet normal 0.994016 0.109233 2.42545e-017
    outer loop
      vertex 6.94505 32.9 4.4
      vertex 6.76099 34.575 7.30119
      vertex 8.59066 17.925 7.30119
    endloop
  endfacet
  facet normal 0.994016 0.109233 2.42545e-017
    outer loop
      vertex 6.76099 34.575 7.30119
      vertex 6 41.5 8.8
      vertex 10.3407 2 8.8
    endloop
  endfacet
  facet normal 0.994016 0.109233 2.42545e-017
    outer loop
      vertex 8.59066 17.925 7.30119
      vertex 6.76099 34.575 1.49882
      vertex 6.94505 32.9 4.4
    endloop
  endfacet
  facet normal 0.994016 0.109233 2.42545e-017
    outer loop
      vertex 6 41.5 1.09912e-014
      vertex 6 41.5 8.8
      vertex 6.20879 39.6 4.4
    endloop
  endfacet
  facet normal 0.994016 0.109233 2.42545e-017
    outer loop
      vertex 8.40659 19.6 4.4
      vertex 8.59066 17.925 1.49882
      vertex 6 41.5 1.09912e-014
    endloop
  endfacet
  facet normal 0.994016 0.109233 2.42545e-017
    outer loop
      vertex 6 41.5 1.09912e-014
      vertex 6.20879 39.6 4.4
      vertex 6.39286 37.925 1.49882
    endloop
  endfacet
  facet normal 0.994016 0.109233 2.42545e-017
    outer loop
      vertex 8.59066 17.925 7.30119
      vertex 6.76099 34.575 7.30119
      vertex 10.3407 2 8.8
    endloop
  endfacet
  facet normal 0.994016 0.109233 2.42545e-017
    outer loop
      vertex 6.39286 37.925 7.30119
      vertex 6 41.5 8.8
      vertex 6.76099 34.575 7.30119
    endloop
  endfacet
  facet normal 0.994016 0.109233 2.42545e-017
    outer loop
      vertex 6.20879 39.6 4.4
      vertex 6 41.5 8.8
      vertex 6.39286 37.925 7.30119
    endloop
  endfacet
  facet normal 0.994016 0.109233 2.42545e-017
    outer loop
      vertex 8.95879 14.575 1.49882
      vertex 9.14286 12.9 4.4
      vertex 10.3407 2 8.8
    endloop
  endfacet
  facet normal 0.994016 0.109233 2.42545e-017
    outer loop
      vertex 6.39286 37.925 1.49882
      vertex 6.76099 34.575 1.49882
      vertex 6 41.5 1.09912e-014
    endloop
  endfacet
  facet normal 0.994016 0.109233 2.42545e-017
    outer loop
      vertex 10.3407 2 2.22045e-015
      vertex 6 41.5 1.09912e-014
      vertex 8.59066 17.925 1.49882
    endloop
  endfacet
  facet normal 0.994016 0.109233 2.42545e-017
    outer loop
      vertex 8.95879 14.575 7.30119
      vertex 8.59066 17.925 7.30119
      vertex 10.3407 2 8.8
    endloop
  endfacet
  facet normal 0.994016 0.109233 2.42545e-017
    outer loop
      vertex 10.3407 2 2.22045e-015
      vertex 8.59066 17.925 1.49882
      vertex 8.95879 14.575 1.49882
    endloop
  endfacet
  facet normal 0.994016 0.109233 2.42545e-017
    outer loop
      vertex 8.59066 17.925 7.30119
      vertex 8.40659 19.6 4.4
      vertex 6.76099 34.575 1.49882
    endloop
  endfacet
  facet normal 0.994016 0.109233 2.42545e-017
    outer loop
      vertex 8.40659 19.6 4.4
      vertex 6 41.5 1.09912e-014
      vertex 6.76099 34.575 1.49882
    endloop
  endfacet
  facet normal 0.994016 0.109233 2.42545e-017
    outer loop
      vertex 9.14286 12.9 4.4
      vertex 8.95879 14.575 7.30119
      vertex 10.3407 2 8.8
    endloop
  endfacet
  facet normal 0.994016 0.109233 2.42545e-017
    outer loop
      vertex 10.3407 2 8.8
      vertex 10.3407 2 2.22045e-015
      vertex 8.95879 14.575 1.49882
    endloop
  endfacet
  facet normal -0.5 0.866025 0
    outer loop
      vertex 9.8 -1.5 0
      vertex 7.1 -3.05885 0
      vertex 9.8 -1.5 8.8
    endloop
  endfacet
  facet normal -0.5 0.866025 0
    outer loop
      vertex 9.8 -1.5 8.8
      vertex 7.1 -3.05885 0
      vertex 7.1 -3.05885 8.8
    endloop
  endfacet
  facet normal 1 0 0
    outer loop
      vertex 7.1 -3.05885 0
      vertex 7.1 0.058846 0
      vertex 7.1 0.058846 8.8
    endloop
  endfacet
  facet normal 1 0 0
    outer loop
      vertex 7.1 -3.05885 8.8
      vertex 7.1 -3.05885 0
      vertex 7.1 0.058846 8.8
    endloop
  endfacet
  facet normal -0.5 -0.866025 0
    outer loop
      vertex 7.1 0.058846 0
      vertex 9.8 -1.5 0
      vertex 9.8 -1.5 8.8
    endloop
  endfacet
  facet normal -0.5 -0.866025 0
    outer loop
      vertex 7.1 0.058846 8.8
      vertex 7.1 0.058846 0
      vertex 9.8 -1.5 8.8
    endloop
  endfacet
  facet normal 0 -1 0
    outer loop
      vertex 11 -5 6.66134e-016
      vertex 0 -5 6.66134e-016
      vertex 0 -5 0
    endloop
  endfacet
  facet normal 0 -1 0
    outer loop
      vertex 17.5 -5 8.8
      vertex 11 -5 6.66134e-016
      vertex 17.5 -5 0
    endloop
  endfacet
  facet normal 0 -1 0
    outer loop
      vertex 17.5 -5 0
      vertex 11 -5 6.66134e-016
      vertex 0 -5 0
    endloop
  endfacet
  facet normal 0 -1 0
    outer loop
      vertex 11 -5 8.8
      vertex 11 -5 6.66134e-016
      vertex 17.5 -5 8.8
    endloop
  endfacet
  facet normal 0 0 -1
    outer loop
      vertex 16.6 0.058846 0
      vertex 17.5 2 0
      vertex 17.9981 1.96437 0
    endloop
  endfacet
  facet normal 0 0 -1
    outer loop
      vertex 7.1 0.058846 0
      vertex 0 2 0
      vertex 17.5 2 0
    endloop
  endfacet
  facet normal 0 0 -1
    outer loop
      vertex 19.3 -1.5 0
      vertex 20.1451 0.792013 0
      vertex 20.4444 0.392243 0
    endloop
  endfacet
  facet normal 0 0 -1
    outer loop
      vertex 17.5 -5 0
      vertex 20.4444 0.392243 0
      vertex 20.6837 -0.046047 0
    endloop
  endfacet
  facet normal 0 0 -1
    outer loop
      vertex 17.5 -5 0
      vertex 20.6837 -0.046047 0
      vertex 20.8582 -0.513936 0
    endloop
  endfacet
  facet normal 0 0 -1
    outer loop
      vertex 17.5 -5 0
      vertex 20.8582 -0.513936 0
      vertex 20.9644 -1.0019 0
    endloop
  endfacet
  facet normal 0 0 -1
    outer loop
      vertex 17.5 -5 0
      vertex 20.9644 -1.0019 0
      vertex 21 -1.5 0
    endloop
  endfacet
  facet normal 0 0 -1
    outer loop
      vertex 17.5 -5 0
      vertex 21 -1.5 0
      vertex 20.9644 -1.9981 0
    endloop
  endfacet
  facet normal 0 0 -1
    outer loop
      vertex 17.5 -5 0
      vertex 20.9644 -1.9981 0
      vertex 20.8582 -2.48606 0
    endloop
  endfacet
  facet normal 0 0 -1
    outer loop
      vertex 17.5 -5 0
      vertex 20.8582 -2.48606 0
      vertex 20.6837 -2.95395 0
    endloop
  endfacet
  facet normal 0 0 -1
    outer loop
      vertex 17.5 -5 0
      vertex 20.6837 -2.95395 0
      vertex 20.4444 -3.39224 0
    endloop
  endfacet
  facet normal 0 0 -1
    outer loop
      vertex 17.5 -5 0
      vertex 20.4444 -3.39224 0
      vertex 20.1451 -3.79201 0
    endloop
  endfacet
  facet normal 0 0 -1
    outer loop
      vertex 17.5 -5 0
      vertex 20.1451 -3.79201 0
      vertex 19.792 -4.14512 0
    endloop
  endfacet
  facet normal 0 0 -1
    outer loop
      vertex 17.5 -5 0
      vertex 19.792 -4.14512 0
      vertex 19.3922 -4.44439 0
    endloop
  endfacet
  facet normal 0 0 -1
    outer loop
      vertex 17.5 -5 0
      vertex 19.3922 -4.44439 0
      vertex 18.954 -4.68371 0
    endloop
  endfacet
  facet normal 0 0 -1
    outer loop
      vertex 17.5 -5 0
      vertex 18.954 -4.68371 0
      vertex 18.4861 -4.85823 0
    endloop
  endfacet
  facet normal 0 0 -1
    outer loop
      vertex 17.5 -5 0
      vertex 18.4861 -4.85823 0
      vertex 17.9981 -4.96437 0
    endloop
  endfacet
  facet normal 0 0 -1
    outer loop
      vertex 16.6 0.058846 0
      vertex 18.4861 1.85823 0
      vertex 18.954 1.68371 0
    endloop
  endfacet
  facet normal 0 0 -1
    outer loop
      vertex 16.6 0.058846 0
      vertex 7.1 0.058846 0
      vertex 17.5 2 0
    endloop
  endfacet
  facet normal 0 0 -1
    outer loop
      vertex 0 -5 0
      vertex 0 2 0
      vertex 7.1 -3.05885 0
    endloop
  endfacet
  facet normal 0 0 -1
    outer loop
      vertex 0 -5 0
      vertex 7.1 -3.05885 0
      vertex 17.5 -5 0
    endloop
  endfacet
  facet normal 0 0 -1
    outer loop
      vertex 16.6 0.058846 0
      vertex 17.9981 1.96437 0
      vertex 18.4861 1.85823 0
    endloop
  endfacet
  facet normal 0 0 -1
    outer loop
      vertex 17.5 -5 0
      vertex 9.8 -1.5 0
      vertex 7.1 0.058846 0
    endloop
  endfacet
  facet normal 0 0 -1
    outer loop
      vertex 16.6 -3.05885 0
      vertex 7.1 0.058846 0
      vertex 16.6 0.058846 0
    endloop
  endfacet
  facet normal 0 0 -1
    outer loop
      vertex 19.3 -1.5 0
      vertex 17.5 -5 0
      vertex 16.6 -3.05885 0
    endloop
  endfacet
  facet normal 0 0 -1
    outer loop
      vertex 17.5 -5 0
      vertex 7.1 0.058846 0
      vertex 16.6 -3.05885 0
    endloop
  endfacet
  facet normal 0 0 -1
    outer loop
      vertex 17.5 -5 0
      vertex 19.3 -1.5 0
      vertex 20.4444 0.392243 0
    endloop
  endfacet
  facet normal 0 0 -1
    outer loop
      vertex 7.1 -3.05885 0
      vertex 0 2 0
      vertex 7.1 0.058846 0
    endloop
  endfacet
  facet normal 0 0 -1
    outer loop
      vertex 9.8 -1.5 0
      vertex 17.5 -5 0
      vertex 7.1 -3.05885 0
    endloop
  endfacet
  facet normal 0 0 -1
    outer loop
      vertex 16.6 0.058846 0
      vertex 18.954 1.68371 0
      vertex 19.3922 1.44439 0
    endloop
  endfacet
  facet normal 0 0 -1
    outer loop
      vertex 16.6 0.058846 0
      vertex 19.3922 1.44439 0
      vertex 19.792 1.14512 0
    endloop
  endfacet
  facet normal 0 0 -1
    outer loop
      vertex 16.6 0.058846 0
      vertex 19.792 1.14512 0
      vertex 20.1451 0.792013 0
    endloop
  endfacet
  facet normal 0 0 -1
    outer loop
      vertex 16.6 0.058846 0
      vertex 20.1451 0.792013 0
      vertex 19.3 -1.5 0
    endloop
  endfacet
  facet normal 0 1 0
    outer loop
      vertex 0 2 2.22045e-015
      vertex 10.3407 2 2.22045e-015
      vertex 0 2 0
    endloop
  endfacet
  facet normal 0 1 0
    outer loop
      vertex 17.5 2 8.8
      vertex 10.3407 2 2.22045e-015
      vertex 10.3407 2 8.8
    endloop
  endfacet
  facet normal 0 1 0
    outer loop
      vertex 17.5 2 0
      vertex 10.3407 2 2.22045e-015
      vertex 17.5 2 8.8
    endloop
  endfacet
  facet normal 0 1 0
    outer loop
      vertex 0 2 0
      vertex 10.3407 2 2.22045e-015
      vertex 17.5 2 0
    endloop
  endfacet
  facet normal 0 2.22045e-016 -1
    outer loop
      vertex 0 2 2.22045e-015
      vertex 0 41.5 1.09912e-014
      vertex 10.3407 2 2.22045e-015
    endloop
  endfacet
  facet normal 0 2.22045e-016 -1
    outer loop
      vertex 10.3407 2 2.22045e-015
      vertex 0 41.5 1.09912e-014
      vertex 6 41.5 1.09912e-014
    endloop
  endfacet
  facet normal 1.22461e-016 2.22045e-016 -1
    outer loop
      vertex 3.875 15.526 6.15
      vertex 0 15.526 6.15
      vertex 3.875 16.974 6.15
    endloop
  endfacet
  facet normal 1.22461e-016 2.22045e-016 -1
    outer loop
      vertex 3.875 16.974 6.15
      vertex 0 15.526 6.15
      vertex 0 16.974 6.15
    endloop
  endfacet
  facet normal -7.04165e-017 -0.707107 -0.707107
    outer loop
      vertex 3.875 17.487 5.637
      vertex 3.875 16.974 6.15
      vertex 0 17.487 5.637
    endloop
  endfacet
  facet normal -7.04165e-017 -0.707107 -0.707107
    outer loop
      vertex 0 17.487 5.637
      vertex 3.875 16.974 6.15
      vertex 0 16.974 6.15
    endloop
  endfacet
  facet normal -2.43602e-016 -0.707107 0.707107
    outer loop
      vertex 0 17.478 5.628
      vertex 3.875 17.478 5.628
      vertex 3.875 17.487 5.637
    endloop
  endfacet
  facet normal -2.43602e-016 -0.707107 0.707107
    outer loop
      vertex 0 17.487 5.637
      vertex 0 17.478 5.628
      vertex 3.875 17.487 5.637
    endloop
  endfacet
  facet normal -8.77863e-017 -0.75622 -0.654318
    outer loop
      vertex 0 17.722 5.346
      vertex 3.875 17.722 5.346
      vertex 3.875 17.478 5.628
    endloop
  endfacet
  facet normal -8.77863e-017 -0.75622 -0.654318
    outer loop
      vertex 0 17.478 5.628
      vertex 0 17.722 5.346
      vertex 3.875 17.478 5.628
    endloop
  endfacet
  facet normal -1.51062e-016 -0.90954 -0.415617
    outer loop
      vertex 0 17.929 4.893
      vertex 3.875 17.929 4.893
      vertex 3.875 17.722 5.346
    endloop
  endfacet
  facet normal -1.51062e-016 -0.90954 -0.415617
    outer loop
      vertex 0 17.722 5.346
      vertex 0 17.929 4.893
      vertex 3.875 17.722 5.346
    endloop
  endfacet
  facet normal -2.02321e-016 -0.989788 -0.142546
    outer loop
      vertex 0 18 4.4
      vertex 3.875 18 4.4
      vertex 3.875 17.929 4.893
    endloop
  endfacet
  facet normal -2.02321e-016 -0.989788 -0.142546
    outer loop
      vertex 0 17.929 4.893
      vertex 0 18 4.4
      vertex 3.875 17.929 4.893
    endloop
  endfacet
  facet normal -2.37233e-016 -0.989788 0.142546
    outer loop
      vertex 0 17.929 3.907
      vertex 3.875 17.929 3.907
      vertex 3.875 18 4.4
    endloop
  endfacet
  facet normal -2.37233e-016 -0.989788 0.142546
    outer loop
      vertex 0 18 4.4
      vertex 0 17.929 3.907
      vertex 3.875 18 4.4
    endloop
  endfacet
  facet normal -2.52855e-016 -0.90954 0.415617
    outer loop
      vertex 0 17.722 3.454
      vertex 3.875 17.722 3.454
      vertex 3.875 17.929 3.907
    endloop
  endfacet
  facet normal -2.52855e-016 -0.90954 0.415617
    outer loop
      vertex 0 17.929 3.907
      vertex 0 17.722 3.454
      vertex 3.875 17.929 3.907
    endloop
  endfacet
  facet normal -2.48059e-016 -0.756417 0.65409
    outer loop
      vertex 0 17.396 3.077
      vertex 3.875 17.396 3.077
      vertex 3.875 17.722 3.454
    endloop
  endfacet
  facet normal -2.48059e-016 -0.756417 0.65409
    outer loop
      vertex 0 17.722 3.454
      vertex 0 17.396 3.077
      vertex 3.875 17.722 3.454
    endloop
  endfacet
  facet normal -2.23011e-016 -0.54025 0.841505
    outer loop
      vertex 0 16.977 2.808
      vertex 3.875 16.977 2.808
      vertex 3.875 17.396 3.077
    endloop
  endfacet
  facet normal -2.23011e-016 -0.54025 0.841505
    outer loop
      vertex 0 17.396 3.077
      vertex 0 16.977 2.808
      vertex 3.875 17.396 3.077
    endloop
  endfacet
  facet normal -1.79936e-016 -0.281079 0.959685
    outer loop
      vertex 0 16.499 2.668
      vertex 3.875 16.499 2.668
      vertex 3.875 16.977 2.808
    endloop
  endfacet
  facet normal -1.79936e-016 -0.281079 0.959685
    outer loop
      vertex 0 16.977 2.808
      vertex 0 16.499 2.668
      vertex 3.875 16.977 2.808
    endloop
  endfacet
  facet normal -1.22461e-016 -2.22045e-016 1
    outer loop
      vertex 0 16.001 2.668
      vertex 3.875 16.001 2.668
      vertex 3.875 16.499 2.668
    endloop
  endfacet
  facet normal -1.22461e-016 -2.22045e-016 1
    outer loop
      vertex 0 16.499 2.668
      vertex 0 16.001 2.668
      vertex 3.875 16.499 2.668
    endloop
  endfacet
  facet normal -5.51115e-017 0.281079 0.959685
    outer loop
      vertex 3.875 15.523 2.808
      vertex 3.875 16.001 2.668
      vertex 0 16.001 2.668
    endloop
  endfacet
  facet normal -5.51115e-017 0.281079 0.959685
    outer loop
      vertex 0 15.523 2.808
      vertex 3.875 15.523 2.808
      vertex 0 16.001 2.668
    endloop
  endfacet
  facet normal 1.69084e-017 0.54025 0.841505
    outer loop
      vertex 3.875 15.104 3.077
      vertex 3.875 15.523 2.808
      vertex 0 15.523 2.808
    endloop
  endfacet
  facet normal 1.69084e-017 0.54025 0.841505
    outer loop
      vertex 0 15.104 3.077
      vertex 3.875 15.104 3.077
      vertex 0 15.523 2.808
    endloop
  endfacet
  facet normal 8.7858e-017 0.756417 0.65409
    outer loop
      vertex 3.875 15.104 3.077
      vertex 0 15.104 3.077
      vertex 3.875 14.778 3.454
    endloop
  endfacet
  facet normal 8.7858e-017 0.756417 0.65409
    outer loop
      vertex 3.875 14.778 3.454
      vertex 0 15.104 3.077
      vertex 0 14.778 3.454
    endloop
  endfacet
  facet normal 1.51062e-016 0.90954 0.415617
    outer loop
      vertex 3.875 14.778 3.454
      vertex 0 14.778 3.454
      vertex 3.875 14.571 3.907
    endloop
  endfacet
  facet normal 1.51062e-016 0.90954 0.415617
    outer loop
      vertex 3.875 14.571 3.907
      vertex 0 14.778 3.454
      vertex 0 14.571 3.907
    endloop
  endfacet
  facet normal 2.02321e-016 0.989788 0.142546
    outer loop
      vertex 3.875 14.571 3.907
      vertex 0 14.571 3.907
      vertex 3.875 14.5 4.4
    endloop
  endfacet
  facet normal 2.02321e-016 0.989788 0.142546
    outer loop
      vertex 3.875 14.5 4.4
      vertex 0 14.571 3.907
      vertex 0 14.5 4.4
    endloop
  endfacet
  facet normal 2.37233e-016 0.989788 -0.142546
    outer loop
      vertex 3.875 14.5 4.4
      vertex 0 14.5 4.4
      vertex 3.875 14.571 4.893
    endloop
  endfacet
  facet normal 2.37233e-016 0.989788 -0.142546
    outer loop
      vertex 3.875 14.571 4.893
      vertex 0 14.5 4.4
      vertex 0 14.571 4.893
    endloop
  endfacet
  facet normal 2.52855e-016 0.90954 -0.415617
    outer loop
      vertex 3.875 14.571 4.893
      vertex 0 14.571 4.893
      vertex 3.875 14.778 5.346
    endloop
  endfacet
  facet normal 2.52855e-016 0.90954 -0.415617
    outer loop
      vertex 3.875 14.778 5.346
      vertex 0 14.571 4.893
      vertex 0 14.778 5.346
    endloop
  endfacet
  facet normal 2.48043e-016 0.75622 -0.654318
    outer loop
      vertex 3.875 14.778 5.346
      vertex 0 14.778 5.346
      vertex 3.875 15.022 5.628
    endloop
  endfacet
  facet normal 2.48043e-016 0.75622 -0.654318
    outer loop
      vertex 3.875 15.022 5.628
      vertex 0 14.778 5.346
      vertex 0 15.022 5.628
    endloop
  endfacet
  facet normal 7.04165e-017 0.707107 0.707107
    outer loop
      vertex 3.875 15.013 5.637
      vertex 3.875 15.022 5.628
      vertex 0 15.022 5.628
    endloop
  endfacet
  facet normal 7.04165e-017 0.707107 0.707107
    outer loop
      vertex 0 15.013 5.637
      vertex 3.875 15.013 5.637
      vertex 0 15.022 5.628
    endloop
  endfacet
  facet normal 2.43602e-016 0.707107 -0.707107
    outer loop
      vertex 3.875 15.013 5.637
      vertex 0 15.013 5.637
      vertex 3.875 15.526 6.15
    endloop
  endfacet
  facet normal 2.43602e-016 0.707107 -0.707107
    outer loop
      vertex 3.875 15.526 6.15
      vertex 0 15.013 5.637
      vertex 0 15.526 6.15
    endloop
  endfacet
  facet normal -7.04165e-017 -0.707107 -0.707107
    outer loop
      vertex 3.875 37.487 5.637
      vertex 3.875 36.974 6.15
      vertex 0 37.487 5.637
    endloop
  endfacet
  facet normal -7.04165e-017 -0.707107 -0.707107
    outer loop
      vertex 0 37.487 5.637
      vertex 3.875 36.974 6.15
      vertex 0 36.974 6.15
    endloop
  endfacet
  facet normal 1.22461e-016 2.22045e-016 -1
    outer loop
      vertex 3.875 35.526 6.15
      vertex 0 35.526 6.15
      vertex 3.875 36.974 6.15
    endloop
  endfacet
  facet normal 1.22461e-016 2.22045e-016 -1
    outer loop
      vertex 3.875 36.974 6.15
      vertex 0 35.526 6.15
      vertex 0 36.974 6.15
    endloop
  endfacet
  facet normal -2.43602e-016 -0.707107 0.707107
    outer loop
      vertex 0 37.478 5.628
      vertex 3.875 37.478 5.628
      vertex 3.875 37.487 5.637
    endloop
  endfacet
  facet normal -2.43602e-016 -0.707107 0.707107
    outer loop
      vertex 0 37.487 5.637
      vertex 0 37.478 5.628
      vertex 3.875 37.487 5.637
    endloop
  endfacet
  facet normal -8.77863e-017 -0.75622 -0.654318
    outer loop
      vertex 0 37.722 5.346
      vertex 3.875 37.722 5.346
      vertex 3.875 37.478 5.628
    endloop
  endfacet
  facet normal -8.77863e-017 -0.75622 -0.654318
    outer loop
      vertex 0 37.478 5.628
      vertex 0 37.722 5.346
      vertex 3.875 37.478 5.628
    endloop
  endfacet
  facet normal -1.51062e-016 -0.90954 -0.415617
    outer loop
      vertex 0 37.929 4.893
      vertex 3.875 37.929 4.893
      vertex 3.875 37.722 5.346
    endloop
  endfacet
  facet normal -1.51062e-016 -0.90954 -0.415617
    outer loop
      vertex 0 37.722 5.346
      vertex 0 37.929 4.893
      vertex 3.875 37.722 5.346
    endloop
  endfacet
  facet normal -2.02321e-016 -0.989788 -0.142546
    outer loop
      vertex 0 38 4.4
      vertex 3.875 38 4.4
      vertex 3.875 37.929 4.893
    endloop
  endfacet
  facet normal -2.02321e-016 -0.989788 -0.142546
    outer loop
      vertex 0 37.929 4.893
      vertex 0 38 4.4
      vertex 3.875 37.929 4.893
    endloop
  endfacet
  facet normal -2.37233e-016 -0.989788 0.142546
    outer loop
      vertex 0 37.929 3.907
      vertex 3.875 37.929 3.907
      vertex 3.875 38 4.4
    endloop
  endfacet
  facet normal -2.37233e-016 -0.989788 0.142546
    outer loop
      vertex 0 38 4.4
      vertex 0 37.929 3.907
      vertex 3.875 38 4.4
    endloop
  endfacet
  facet normal -2.52855e-016 -0.90954 0.415617
    outer loop
      vertex 0 37.722 3.454
      vertex 3.875 37.722 3.454
      vertex 3.875 37.929 3.907
    endloop
  endfacet
  facet normal -2.52855e-016 -0.90954 0.415617
    outer loop
      vertex 0 37.929 3.907
      vertex 0 37.722 3.454
      vertex 3.875 37.929 3.907
    endloop
  endfacet
  facet normal -2.48059e-016 -0.756417 0.65409
    outer loop
      vertex 0 37.396 3.077
      vertex 3.875 37.396 3.077
      vertex 3.875 37.722 3.454
    endloop
  endfacet
  facet normal -2.48059e-016 -0.756417 0.65409
    outer loop
      vertex 0 37.722 3.454
      vertex 0 37.396 3.077
      vertex 3.875 37.722 3.454
    endloop
  endfacet
  facet normal -2.23011e-016 -0.54025 0.841505
    outer loop
      vertex 0 36.977 2.808
      vertex 3.875 36.977 2.808
      vertex 3.875 37.396 3.077
    endloop
  endfacet
  facet normal -2.23011e-016 -0.54025 0.841505
    outer loop
      vertex 0 37.396 3.077
      vertex 0 36.977 2.808
      vertex 3.875 37.396 3.077
    endloop
  endfacet
  facet normal -1.79936e-016 -0.281079 0.959685
    outer loop
      vertex 0 36.499 2.668
      vertex 3.875 36.499 2.668
      vertex 3.875 36.977 2.808
    endloop
  endfacet
  facet normal -1.79936e-016 -0.281079 0.959685
    outer loop
      vertex 0 36.977 2.808
      vertex 0 36.499 2.668
      vertex 3.875 36.977 2.808
    endloop
  endfacet
  facet normal -1.22461e-016 -2.22045e-016 1
    outer loop
      vertex 0 36.001 2.668
      vertex 3.875 36.001 2.668
      vertex 3.875 36.499 2.668
    endloop
  endfacet
  facet normal -1.22461e-016 -2.22045e-016 1
    outer loop
      vertex 0 36.499 2.668
      vertex 0 36.001 2.668
      vertex 3.875 36.499 2.668
    endloop
  endfacet
  facet normal -5.51115e-017 0.281079 0.959685
    outer loop
      vertex 3.875 35.523 2.808
      vertex 3.875 36.001 2.668
      vertex 0 36.001 2.668
    endloop
  endfacet
  facet normal -5.51115e-017 0.281079 0.959685
    outer loop
      vertex 0 35.523 2.808
      vertex 3.875 35.523 2.808
      vertex 0 36.001 2.668
    endloop
  endfacet
  facet normal 1.69084e-017 0.54025 0.841505
    outer loop
      vertex 3.875 35.104 3.077
      vertex 3.875 35.523 2.808
      vertex 0 35.523 2.808
    endloop
  endfacet
  facet normal 1.69084e-017 0.54025 0.841505
    outer loop
      vertex 0 35.104 3.077
      vertex 3.875 35.104 3.077
      vertex 0 35.523 2.808
    endloop
  endfacet
  facet normal 8.7858e-017 0.756417 0.65409
    outer loop
      vertex 3.875 35.104 3.077
      vertex 0 35.104 3.077
      vertex 3.875 34.778 3.454
    endloop
  endfacet
  facet normal 8.7858e-017 0.756417 0.65409
    outer loop
      vertex 3.875 34.778 3.454
      vertex 0 35.104 3.077
      vertex 0 34.778 3.454
    endloop
  endfacet
  facet normal 1.51062e-016 0.90954 0.415617
    outer loop
      vertex 3.875 34.778 3.454
      vertex 0 34.778 3.454
      vertex 3.875 34.571 3.907
    endloop
  endfacet
  facet normal 1.51062e-016 0.90954 0.415617
    outer loop
      vertex 3.875 34.571 3.907
      vertex 0 34.778 3.454
      vertex 0 34.571 3.907
    endloop
  endfacet
  facet normal 2.02321e-016 0.989788 0.142546
    outer loop
      vertex 3.875 34.571 3.907
      vertex 0 34.571 3.907
      vertex 3.875 34.5 4.4
    endloop
  endfacet
  facet normal 2.02321e-016 0.989788 0.142546
    outer loop
      vertex 3.875 34.5 4.4
      vertex 0 34.571 3.907
      vertex 0 34.5 4.4
    endloop
  endfacet
  facet normal 2.37233e-016 0.989788 -0.142546
    outer loop
      vertex 3.875 34.5 4.4
      vertex 0 34.5 4.4
      vertex 3.875 34.571 4.893
    endloop
  endfacet
  facet normal 2.37233e-016 0.989788 -0.142546
    outer loop
      vertex 3.875 34.571 4.893
      vertex 0 34.5 4.4
      vertex 0 34.571 4.893
    endloop
  endfacet
  facet normal 2.52855e-016 0.90954 -0.415617
    outer loop
      vertex 3.875 34.571 4.893
      vertex 0 34.571 4.893
      vertex 3.875 34.778 5.346
    endloop
  endfacet
  facet normal 2.52855e-016 0.90954 -0.415617
    outer loop
      vertex 3.875 34.778 5.346
      vertex 0 34.571 4.893
      vertex 0 34.778 5.346
    endloop
  endfacet
  facet normal 2.48043e-016 0.75622 -0.654318
    outer loop
      vertex 3.875 34.778 5.346
      vertex 0 34.778 5.346
      vertex 3.875 35.022 5.628
    endloop
  endfacet
  facet normal 2.48043e-016 0.75622 -0.654318
    outer loop
      vertex 3.875 35.022 5.628
      vertex 0 34.778 5.346
      vertex 0 35.022 5.628
    endloop
  endfacet
  facet normal 7.04165e-017 0.707107 0.707107
    outer loop
      vertex 3.875 35.013 5.637
      vertex 3.875 35.022 5.628
      vertex 0 35.022 5.628
    endloop
  endfacet
  facet normal 7.04165e-017 0.707107 0.707107
    outer loop
      vertex 0 35.013 5.637
      vertex 3.875 35.013 5.637
      vertex 0 35.022 5.628
    endloop
  endfacet
  facet normal 2.43602e-016 0.707107 -0.707107
    outer loop
      vertex 3.875 35.013 5.637
      vertex 0 35.013 5.637
      vertex 3.875 35.526 6.15
    endloop
  endfacet
  facet normal 2.43602e-016 0.707107 -0.707107
    outer loop
      vertex 3.875 35.526 6.15
      vertex 0 35.013 5.637
      vertex 0 35.526 6.15
    endloop
  endfacet
  facet normal 0 0 1
    outer loop
      vertex 17.5 2 8.8
      vertex 10.3407 2 8.8
      vertex 11 -4 8.8
    endloop
  endfacet
  facet normal 0 0 1
    outer loop
      vertex 11 -5 8.8
      vertex 17.5 2 8.8
      vertex 11 -4 8.8
    endloop
  endfacet
  facet normal 0 0 1
    outer loop
      vertex 16.6 0.058846 8.8
      vertex 19.3 -1.5 8.8
      vertex 17.5 2 8.8
    endloop
  endfacet
  facet normal 0 0 1
    outer loop
      vertex 19.3 -1.5 8.8
      vertex 20.4444 -3.39224 8.8
      vertex 17.5 2 8.8
    endloop
  endfacet
  facet normal 0 0 1
    outer loop
      vertex 20.4444 -3.39224 8.8
      vertex 20.6837 -2.95395 8.8
      vertex 17.5 2 8.8
    endloop
  endfacet
  facet normal 0 0 1
    outer loop
      vertex 20.6837 -2.95395 8.8
      vertex 20.8582 -2.48606 8.8
      vertex 17.5 2 8.8
    endloop
  endfacet
  facet normal 0 0 1
    outer loop
      vertex 20.8582 -2.48606 8.8
      vertex 20.9644 -1.9981 8.8
      vertex 17.5 2 8.8
    endloop
  endfacet
  facet normal 0 0 1
    outer loop
      vertex 20.9644 -1.9981 8.8
      vertex 21 -1.5 8.8
      vertex 17.5 2 8.8
    endloop
  endfacet
  facet normal 0 0 1
    outer loop
      vertex 21 -1.5 8.8
      vertex 20.9644 -1.0019 8.8
      vertex 17.5 2 8.8
    endloop
  endfacet
  facet normal 0 0 1
    outer loop
      vertex 20.9644 -1.0019 8.8
      vertex 20.8582 -0.513936 8.8
      vertex 17.5 2 8.8
    endloop
  endfacet
  facet normal 0 0 1
    outer loop
      vertex 20.8582 -0.513936 8.8
      vertex 20.6837 -0.046047 8.8
      vertex 17.5 2 8.8
    endloop
  endfacet
  facet normal 0 0 1
    outer loop
      vertex 20.6837 -0.046047 8.8
      vertex 20.4444 0.392243 8.8
      vertex 17.5 2 8.8
    endloop
  endfacet
  facet normal 0 0 1
    outer loop
      vertex 20.4444 0.392243 8.8
      vertex 20.1451 0.792013 8.8
      vertex 17.5 2 8.8
    endloop
  endfacet
  facet normal 0 0 1
    outer loop
      vertex 20.1451 0.792013 8.8
      vertex 19.792 1.14512 8.8
      vertex 17.5 2 8.8
    endloop
  endfacet
  facet normal 0 0 1
    outer loop
      vertex 19.792 1.14512 8.8
      vertex 19.3922 1.44439 8.8
      vertex 17.5 2 8.8
    endloop
  endfacet
  facet normal 0 0 1
    outer loop
      vertex 19.3922 1.44439 8.8
      vertex 18.954 1.68371 8.8
      vertex 17.5 2 8.8
    endloop
  endfacet
  facet normal 0 0 1
    outer loop
      vertex 18.954 1.68371 8.8
      vertex 18.4861 1.85823 8.8
      vertex 17.5 2 8.8
    endloop
  endfacet
  facet normal 0 0 1
    outer loop
      vertex 18.4861 1.85823 8.8
      vertex 17.9981 1.96437 8.8
      vertex 17.5 2 8.8
    endloop
  endfacet
  facet normal 0 0 1
    outer loop
      vertex 11 -5 8.8
      vertex 17.5 -5 8.8
      vertex 16.6 -3.05885 8.8
    endloop
  endfacet
  facet normal 0 0 1
    outer loop
      vertex 11 -5 8.8
      vertex 16.6 0.058846 8.8
      vertex 17.5 2 8.8
    endloop
  endfacet
  facet normal 0 0 1
    outer loop
      vertex 11 -5 8.8
      vertex 16.6 -3.05885 8.8
      vertex 16.6 0.058846 8.8
    endloop
  endfacet
  facet normal 0 0 1
    outer loop
      vertex 20.1451 -3.79201 8.8
      vertex 20.4444 -3.39224 8.8
      vertex 19.3 -1.5 8.8
    endloop
  endfacet
  facet normal 0 0 1
    outer loop
      vertex 19.3 -1.5 8.8
      vertex 19.792 -4.14512 8.8
      vertex 20.1451 -3.79201 8.8
    endloop
  endfacet
  facet normal 0 0 1
    outer loop
      vertex 19.3 -1.5 8.8
      vertex 19.3922 -4.44439 8.8
      vertex 19.792 -4.14512 8.8
    endloop
  endfacet
  facet normal 0 0 1
    outer loop
      vertex 19.3 -1.5 8.8
      vertex 18.954 -4.68371 8.8
      vertex 19.3922 -4.44439 8.8
    endloop
  endfacet
  facet normal 0 0 1
    outer loop
      vertex 19.3 -1.5 8.8
      vertex 18.4861 -4.85823 8.8
      vertex 18.954 -4.68371 8.8
    endloop
  endfacet
  facet normal 0 0 1
    outer loop
      vertex 19.3 -1.5 8.8
      vertex 17.9981 -4.96437 8.8
      vertex 18.4861 -4.85823 8.8
    endloop
  endfacet
  facet normal 0 0 1
    outer loop
      vertex 19.3 -1.5 8.8
      vertex 17.5 -5 8.8
      vertex 17.9981 -4.96437 8.8
    endloop
  endfacet
  facet normal 0 0 1
    outer loop
      vertex 19.3 -1.5 8.8
      vertex 16.6 -3.05885 8.8
      vertex 17.5 -5 8.8
    endloop
  endfacet
  facet normal -1.31066e-016 -0.866025 -0.5
    outer loop
      vertex 3.875 39.6 4.4
      vertex 6.20879 39.6 4.4
      vertex 6.39286 37.925 7.30119
    endloop
  endfacet
  facet normal -1.31066e-016 -0.866025 -0.5
    outer loop
      vertex 3.875 37.925 7.30119
      vertex 3.875 39.6 4.4
      vertex 6.39286 37.925 7.30119
    endloop
  endfacet
  facet normal -2.53527e-016 -0.866025 0.5
    outer loop
      vertex 3.875 37.925 1.49882
      vertex 6.39286 37.925 1.49882
      vertex 6.20879 39.6 4.4
    endloop
  endfacet
  facet normal -2.53527e-016 -0.866025 0.5
    outer loop
      vertex 3.875 39.6 4.4
      vertex 3.875 37.925 1.49882
      vertex 6.20879 39.6 4.4
    endloop
  endfacet
  facet normal 1.22461e-016 2.22045e-016 -1
    outer loop
      vertex 6.39286 37.925 7.30119
      vertex 6.76099 34.575 7.30119
      vertex 3.875 37.925 7.30119
    endloop
  endfacet
  facet normal 1.22461e-016 2.22045e-016 -1
    outer loop
      vertex 3.875 37.925 7.30119
      vertex 6.76099 34.575 7.30119
      vertex 3.875 34.575 7.30119
    endloop
  endfacet
  facet normal 2.53527e-016 0.866025 -0.5
    outer loop
      vertex 6.94505 32.9 4.4
      vertex 3.875 32.9 4.4
      vertex 6.76099 34.575 7.30119
    endloop
  endfacet
  facet normal 2.53527e-016 0.866025 -0.5
    outer loop
      vertex 6.76099 34.575 7.30119
      vertex 3.875 32.9 4.4
      vertex 3.875 34.575 7.30119
    endloop
  endfacet
  facet normal 1.31066e-016 0.866025 0.5
    outer loop
      vertex 6.76099 34.575 1.49882
      vertex 3.875 34.575 1.49882
      vertex 6.94505 32.9 4.4
    endloop
  endfacet
  facet normal 1.31066e-016 0.866025 0.5
    outer loop
      vertex 6.94505 32.9 4.4
      vertex 3.875 34.575 1.49882
      vertex 3.875 32.9 4.4
    endloop
  endfacet
  facet normal -1.22461e-016 -2.22045e-016 1
    outer loop
      vertex 6.76099 34.575 1.49882
      vertex 6.39286 37.925 1.49882
      vertex 3.875 37.925 1.49882
    endloop
  endfacet
  facet normal -1.22461e-016 -2.22045e-016 1
    outer loop
      vertex 3.875 34.575 1.49882
      vertex 6.76099 34.575 1.49882
      vertex 3.875 37.925 1.49882
    endloop
  endfacet
  facet normal -1.31066e-016 -0.866025 -0.5
    outer loop
      vertex 3.875 19.6 4.4
      vertex 8.40659 19.6 4.4
      vertex 8.59066 17.925 7.30119
    endloop
  endfacet
  facet normal -1.31066e-016 -0.866025 -0.5
    outer loop
      vertex 3.875 17.925 7.30119
      vertex 3.875 19.6 4.4
      vertex 8.59066 17.925 7.30119
    endloop
  endfacet
  facet normal -2.53527e-016 -0.866025 0.5
    outer loop
      vertex 3.875 17.925 1.49882
      vertex 8.59066 17.925 1.49882
      vertex 8.40659 19.6 4.4
    endloop
  endfacet
  facet normal -2.53527e-016 -0.866025 0.5
    outer loop
      vertex 3.875 19.6 4.4
      vertex 3.875 17.925 1.49882
      vertex 8.40659 19.6 4.4
    endloop
  endfacet
  facet normal 1.22461e-016 2.22045e-016 -1
    outer loop
      vertex 8.59066 17.925 7.30119
      vertex 8.95879 14.575 7.30119
      vertex 3.875 17.925 7.30119
    endloop
  endfacet
  facet normal 1.22461e-016 2.22045e-016 -1
    outer loop
      vertex 3.875 17.925 7.30119
      vertex 8.95879 14.575 7.30119
      vertex 3.875 14.575 7.30119
    endloop
  endfacet
  facet normal 2.53527e-016 0.866025 -0.5
    outer loop
      vertex 9.14286 12.9 4.4
      vertex 3.875 12.9 4.4
      vertex 8.95879 14.575 7.30119
    endloop
  endfacet
  facet normal 2.53527e-016 0.866025 -0.5
    outer loop
      vertex 8.95879 14.575 7.30119
      vertex 3.875 12.9 4.4
      vertex 3.875 14.575 7.30119
    endloop
  endfacet
  facet normal 1.31066e-016 0.866025 0.5
    outer loop
      vertex 8.95879 14.575 1.49882
      vertex 3.875 14.575 1.49882
      vertex 9.14286 12.9 4.4
    endloop
  endfacet
  facet normal 1.31066e-016 0.866025 0.5
    outer loop
      vertex 9.14286 12.9 4.4
      vertex 3.875 14.575 1.49882
      vertex 3.875 12.9 4.4
    endloop
  endfacet
  facet normal -1.22461e-016 -2.22045e-016 1
    outer loop
      vertex 8.95879 14.575 1.49882
      vertex 8.59066 17.925 1.49882
      vertex 3.875 17.925 1.49882
    endloop
  endfacet
  facet normal -1.22461e-016 -2.22045e-016 1
    outer loop
      vertex 3.875 14.575 1.49882
      vertex 8.95879 14.575 1.49882
      vertex 3.875 17.925 1.49882
    endloop
  endfacet
  facet normal 0.0713393 -0.997452 0
    outer loop
      vertex 17.9981 -4.96437 8.8
      vertex 17.5 -5 8.8
      vertex 17.5 -5 0
    endloop
  endfacet
  facet normal 0.0713393 -0.997452 0
    outer loop
      vertex 17.9981 -4.96437 0
      vertex 17.9981 -4.96437 8.8
      vertex 17.5 -5 0
    endloop
  endfacet
  facet normal 0.212566 -0.977147 0
    outer loop
      vertex 18.4861 -4.85823 8.8
      vertex 17.9981 -4.96437 8.8
      vertex 17.9981 -4.96437 0
    endloop
  endfacet
  facet normal 0.212566 -0.977147 0
    outer loop
      vertex 18.4861 -4.85823 0
      vertex 18.4861 -4.85823 8.8
      vertex 17.9981 -4.96437 0
    endloop
  endfacet
  facet normal 0.349463 -0.93695 0
    outer loop
      vertex 18.954 -4.68371 8.8
      vertex 18.4861 -4.85823 8.8
      vertex 18.4861 -4.85823 0
    endloop
  endfacet
  facet normal 0.349463 -0.93695 0
    outer loop
      vertex 18.954 -4.68371 0
      vertex 18.954 -4.68371 8.8
      vertex 18.4861 -4.85823 0
    endloop
  endfacet
  facet normal 0.47925 -0.877679 0
    outer loop
      vertex 19.3922 -4.44439 8.8
      vertex 18.954 -4.68371 8.8
      vertex 18.954 -4.68371 0
    endloop
  endfacet
  facet normal 0.47925 -0.877679 0
    outer loop
      vertex 19.3922 -4.44439 0
      vertex 19.3922 -4.44439 8.8
      vertex 18.954 -4.68371 0
    endloop
  endfacet
  facet normal 0.599276 -0.800542 0
    outer loop
      vertex 19.792 -4.14512 8.8
      vertex 19.3922 -4.44439 8.8
      vertex 19.3922 -4.44439 0
    endloop
  endfacet
  facet normal 0.599276 -0.800542 0
    outer loop
      vertex 19.792 -4.14512 0
      vertex 19.792 -4.14512 8.8
      vertex 19.3922 -4.44439 0
    endloop
  endfacet
  facet normal 0.707107 -0.707107 0
    outer loop
      vertex 20.1451 -3.79201 8.8
      vertex 19.792 -4.14512 8.8
      vertex 19.792 -4.14512 0
    endloop
  endfacet
  facet normal 0.707107 -0.707107 0
    outer loop
      vertex 20.1451 -3.79201 0
      vertex 20.1451 -3.79201 8.8
      vertex 19.792 -4.14512 0
    endloop
  endfacet
  facet normal 0.800542 -0.599276 0
    outer loop
      vertex 20.4444 -3.39224 8.8
      vertex 20.1451 -3.79201 8.8
      vertex 20.1451 -3.79201 0
    endloop
  endfacet
  facet normal 0.800542 -0.599276 0
    outer loop
      vertex 20.4444 -3.39224 0
      vertex 20.4444 -3.39224 8.8
      vertex 20.1451 -3.79201 0
    endloop
  endfacet
  facet normal 0.877679 -0.47925 0
    outer loop
      vertex 20.6837 -2.95395 8.8
      vertex 20.4444 -3.39224 8.8
      vertex 20.4444 -3.39224 0
    endloop
  endfacet
  facet normal 0.877679 -0.47925 0
    outer loop
      vertex 20.6837 -2.95395 0
      vertex 20.6837 -2.95395 8.8
      vertex 20.4444 -3.39224 0
    endloop
  endfacet
  facet normal 0.93695 -0.349463 0
    outer loop
      vertex 20.8582 -2.48606 8.8
      vertex 20.6837 -2.95395 8.8
      vertex 20.6837 -2.95395 0
    endloop
  endfacet
  facet normal 0.93695 -0.349463 0
    outer loop
      vertex 20.8582 -2.48606 0
      vertex 20.8582 -2.48606 8.8
      vertex 20.6837 -2.95395 0
    endloop
  endfacet
  facet normal 0.977147 -0.212566 0
    outer loop
      vertex 20.9644 -1.9981 8.8
      vertex 20.8582 -2.48606 8.8
      vertex 20.8582 -2.48606 0
    endloop
  endfacet
  facet normal 0.977147 -0.212566 0
    outer loop
      vertex 20.9644 -1.9981 0
      vertex 20.9644 -1.9981 8.8
      vertex 20.8582 -2.48606 0
    endloop
  endfacet
  facet normal 0.997452 -0.0713393 0
    outer loop
      vertex 21 -1.5 8.8
      vertex 20.9644 -1.9981 8.8
      vertex 20.9644 -1.9981 0
    endloop
  endfacet
  facet normal 0.997452 -0.0713393 0
    outer loop
      vertex 21 -1.5 0
      vertex 21 -1.5 8.8
      vertex 20.9644 -1.9981 0
    endloop
  endfacet
  facet normal 0.997452 0.0713393 0
    outer loop
      vertex 20.9644 -1.0019 0
      vertex 20.9644 -1.0019 8.8
      vertex 21 -1.5 8.8
    endloop
  endfacet
  facet normal 0.997452 0.0713393 0
    outer loop
      vertex 21 -1.5 0
      vertex 20.9644 -1.0019 0
      vertex 21 -1.5 8.8
    endloop
  endfacet
  facet normal 0.977147 0.212566 0
    outer loop
      vertex 20.8582 -0.513936 0
      vertex 20.8582 -0.513936 8.8
      vertex 20.9644 -1.0019 8.8
    endloop
  endfacet
  facet normal 0.977147 0.212566 0
    outer loop
      vertex 20.9644 -1.0019 0
      vertex 20.8582 -0.513936 0
      vertex 20.9644 -1.0019 8.8
    endloop
  endfacet
  facet normal 0.93695 0.349463 0
    outer loop
      vertex 20.6837 -0.046047 0
      vertex 20.6837 -0.046047 8.8
      vertex 20.8582 -0.513936 8.8
    endloop
  endfacet
  facet normal 0.93695 0.349463 0
    outer loop
      vertex 20.8582 -0.513936 0
      vertex 20.6837 -0.046047 0
      vertex 20.8582 -0.513936 8.8
    endloop
  endfacet
  facet normal 0.877679 0.47925 0
    outer loop
      vertex 20.4444 0.392243 0
      vertex 20.4444 0.392243 8.8
      vertex 20.6837 -0.046047 8.8
    endloop
  endfacet
  facet normal 0.877679 0.47925 0
    outer loop
      vertex 20.6837 -0.046047 0
      vertex 20.4444 0.392243 0
      vertex 20.6837 -0.046047 8.8
    endloop
  endfacet
  facet normal 0.800542 0.599276 0
    outer loop
      vertex 20.1451 0.792013 0
      vertex 20.1451 0.792013 8.8
      vertex 20.4444 0.392243 8.8
    endloop
  endfacet
  facet normal 0.800542 0.599276 0
    outer loop
      vertex 20.4444 0.392243 0
      vertex 20.1451 0.792013 0
      vertex 20.4444 0.392243 8.8
    endloop
  endfacet
  facet normal 0.707107 0.707107 0
    outer loop
      vertex 19.792 1.14512 0
      vertex 19.792 1.14512 8.8
      vertex 20.1451 0.792013 8.8
    endloop
  endfacet
  facet normal 0.707107 0.707107 0
    outer loop
      vertex 20.1451 0.792013 0
      vertex 19.792 1.14512 0
      vertex 20.1451 0.792013 8.8
    endloop
  endfacet
  facet normal 0.599276 0.800542 0
    outer loop
      vertex 19.3922 1.44439 8.8
      vertex 19.792 1.14512 8.8
      vertex 19.3922 1.44439 0
    endloop
  endfacet
  facet normal 0.599276 0.800542 0
    outer loop
      vertex 19.3922 1.44439 0
      vertex 19.792 1.14512 8.8
      vertex 19.792 1.14512 0
    endloop
  endfacet
  facet normal 0.47925 0.877679 0
    outer loop
      vertex 18.954 1.68371 8.8
      vertex 19.3922 1.44439 8.8
      vertex 18.954 1.68371 0
    endloop
  endfacet
  facet normal 0.47925 0.877679 0
    outer loop
      vertex 18.954 1.68371 0
      vertex 19.3922 1.44439 8.8
      vertex 19.3922 1.44439 0
    endloop
  endfacet
  facet normal 0.349463 0.93695 0
    outer loop
      vertex 18.4861 1.85823 8.8
      vertex 18.954 1.68371 8.8
      vertex 18.4861 1.85823 0
    endloop
  endfacet
  facet normal 0.349463 0.93695 0
    outer loop
      vertex 18.4861 1.85823 0
      vertex 18.954 1.68371 8.8
      vertex 18.954 1.68371 0
    endloop
  endfacet
  facet normal 0.212566 0.977147 0
    outer loop
      vertex 17.9981 1.96437 8.8
      vertex 18.4861 1.85823 8.8
      vertex 17.9981 1.96437 0
    endloop
  endfacet
  facet normal 0.212566 0.977147 0
    outer loop
      vertex 17.9981 1.96437 0
      vertex 18.4861 1.85823 8.8
      vertex 18.4861 1.85823 0
    endloop
  endfacet
  facet normal 0.0713393 0.997452 0
    outer loop
      vertex 17.5 2 8.8
      vertex 17.9981 1.96437 8.8
      vertex 17.5 2 0
    endloop
  endfacet
  facet normal 0.0713393 0.997452 0
    outer loop
      vertex 17.5 2 0
      vertex 17.9981 1.96437 8.8
      vertex 17.9981 1.96437 0
    endloop
  endfacet
  facet normal 1 0 0
    outer loop
      vertex 16.6 -3.05885 0
      vertex 16.6 0.058846 0
      vertex 16.6 0.058846 8.8
    endloop
  endfacet
  facet normal 1 0 0
    outer loop
      vertex 16.6 -3.05885 8.8
      vertex 16.6 -3.05885 0
      vertex 16.6 0.058846 8.8
    endloop
  endfacet
  facet normal -0.5 -0.866025 0
    outer loop
      vertex 16.6 0.058846 0
      vertex 19.3 -1.5 0
      vertex 19.3 -1.5 8.8
    endloop
  endfacet
  facet normal -0.5 -0.866025 0
    outer loop
      vertex 16.6 0.058846 8.8
      vertex 16.6 0.058846 0
      vertex 19.3 -1.5 8.8
    endloop
  endfacet
  facet normal -0.5 0.866025 0
    outer loop
      vertex 19.3 -1.5 0
      vertex 16.6 -3.05885 0
      vertex 19.3 -1.5 8.8
    endloop
  endfacet
  facet normal -0.5 0.866025 0
    outer loop
      vertex 19.3 -1.5 8.8
      vertex 16.6 -3.05885 0
      vertex 16.6 -3.05885 8.8
    endloop
  endfacet
  facet normal 1 -1.36718e-016 1.22461e-016
    outer loop
      vertex 3.875 15.523 2.808
      vertex 3.875 14.575 1.49882
      vertex 3.875 17.925 1.49882
    endloop
  endfacet
  facet normal 1 -1.36718e-016 1.22461e-016
    outer loop
      vertex 3.875 14.778 3.454
      vertex 3.875 14.571 3.907
      vertex 3.875 12.9 4.4
    endloop
  endfacet
  facet normal 1 -1.36718e-016 1.22461e-016
    outer loop
      vertex 3.875 19.6 4.4
      vertex 3.875 18 4.4
      vertex 3.875 17.925 1.49882
    endloop
  endfacet
  facet normal 1 -1.36718e-016 1.22461e-016
    outer loop
      vertex 3.875 16.001 2.668
      vertex 3.875 15.523 2.808
      vertex 3.875 17.925 1.49882
    endloop
  endfacet
  facet normal 1 -1.36718e-016 1.22461e-016
    outer loop
      vertex 3.875 14.5 4.4
      vertex 3.875 14.571 4.893
      vertex 3.875 12.9 4.4
    endloop
  endfacet
  facet normal 1 -1.36718e-016 1.22461e-016
    outer loop
      vertex 3.875 14.575 7.30119
      vertex 3.875 12.9 4.4
      vertex 3.875 15.013 5.637
    endloop
  endfacet
  facet normal 1 -1.36718e-016 1.22461e-016
    outer loop
      vertex 3.875 14.575 7.30119
      vertex 3.875 15.526 6.15
      vertex 3.875 17.925 7.30119
    endloop
  endfacet
  facet normal 1 -1.36718e-016 1.22461e-016
    outer loop
      vertex 3.875 14.575 7.30119
      vertex 3.875 15.013 5.637
      vertex 3.875 15.526 6.15
    endloop
  endfacet
  facet normal 1 -1.36718e-016 1.22461e-016
    outer loop
      vertex 3.875 17.925 7.30119
      vertex 3.875 16.974 6.15
      vertex 3.875 19.6 4.4
    endloop
  endfacet
  facet normal 1 -1.36718e-016 1.22461e-016
    outer loop
      vertex 3.875 16.974 6.15
      vertex 3.875 17.487 5.637
      vertex 3.875 19.6 4.4
    endloop
  endfacet
  facet normal 1 -1.36718e-016 1.22461e-016
    outer loop
      vertex 3.875 17.487 5.637
      vertex 3.875 17.478 5.628
      vertex 3.875 19.6 4.4
    endloop
  endfacet
  facet normal 1 -1.36718e-016 1.22461e-016
    outer loop
      vertex 3.875 14.571 4.893
      vertex 3.875 14.778 5.346
      vertex 3.875 12.9 4.4
    endloop
  endfacet
  facet normal 1 -1.36718e-016 1.22461e-016
    outer loop
      vertex 3.875 17.478 5.628
      vertex 3.875 17.722 5.346
      vertex 3.875 19.6 4.4
    endloop
  endfacet
  facet normal 1 -1.36718e-016 1.22461e-016
    outer loop
      vertex 3.875 17.722 5.346
      vertex 3.875 17.929 4.893
      vertex 3.875 19.6 4.4
    endloop
  endfacet
  facet normal 1 -1.36718e-016 1.22461e-016
    outer loop
      vertex 3.875 17.929 4.893
      vertex 3.875 18 4.4
      vertex 3.875 19.6 4.4
    endloop
  endfacet
  facet normal 1 -1.36718e-016 1.22461e-016
    outer loop
      vertex 3.875 18 4.4
      vertex 3.875 17.929 3.907
      vertex 3.875 17.925 1.49882
    endloop
  endfacet
  facet normal 1 -1.36718e-016 1.22461e-016
    outer loop
      vertex 3.875 17.929 3.907
      vertex 3.875 17.722 3.454
      vertex 3.875 17.925 1.49882
    endloop
  endfacet
  facet normal 1 -1.36718e-016 1.22461e-016
    outer loop
      vertex 3.875 17.722 3.454
      vertex 3.875 17.396 3.077
      vertex 3.875 17.925 1.49882
    endloop
  endfacet
  facet normal 1 -1.36718e-016 1.22461e-016
    outer loop
      vertex 3.875 17.396 3.077
      vertex 3.875 16.977 2.808
      vertex 3.875 17.925 1.49882
    endloop
  endfacet
  facet normal 1 -1.36718e-016 1.22461e-016
    outer loop
      vertex 3.875 16.977 2.808
      vertex 3.875 16.499 2.668
      vertex 3.875 17.925 1.49882
    endloop
  endfacet
  facet normal 1 -1.36718e-016 1.22461e-016
    outer loop
      vertex 3.875 16.499 2.668
      vertex 3.875 16.001 2.668
      vertex 3.875 17.925 1.49882
    endloop
  endfacet
  facet normal 1 -1.36718e-016 1.22461e-016
    outer loop
      vertex 3.875 12.9 4.4
      vertex 3.875 14.575 1.49882
      vertex 3.875 15.523 2.808
    endloop
  endfacet
  facet normal 1 -1.36718e-016 1.22461e-016
    outer loop
      vertex 3.875 15.104 3.077
      vertex 3.875 14.778 3.454
      vertex 3.875 12.9 4.4
    endloop
  endfacet
  facet normal 1 -1.36718e-016 1.22461e-016
    outer loop
      vertex 3.875 12.9 4.4
      vertex 3.875 15.523 2.808
      vertex 3.875 15.104 3.077
    endloop
  endfacet
  facet normal 1 -1.36718e-016 1.22461e-016
    outer loop
      vertex 3.875 14.571 3.907
      vertex 3.875 14.5 4.4
      vertex 3.875 12.9 4.4
    endloop
  endfacet
  facet normal 1 -1.36718e-016 1.22461e-016
    outer loop
      vertex 3.875 15.013 5.637
      vertex 3.875 12.9 4.4
      vertex 3.875 15.022 5.628
    endloop
  endfacet
  facet normal 1 -1.36718e-016 1.22461e-016
    outer loop
      vertex 3.875 14.778 5.346
      vertex 3.875 15.022 5.628
      vertex 3.875 12.9 4.4
    endloop
  endfacet
  facet normal 1 -1.36718e-016 1.22461e-016
    outer loop
      vertex 3.875 15.526 6.15
      vertex 3.875 16.974 6.15
      vertex 3.875 17.925 7.30119
    endloop
  endfacet
  facet normal 1 -1.36718e-016 1.22461e-016
    outer loop
      vertex 3.875 35.523 2.808
      vertex 3.875 34.575 1.49882
      vertex 3.875 37.925 1.49882
    endloop
  endfacet
  facet normal 1 -1.36718e-016 1.22461e-016
    outer loop
      vertex 3.875 34.778 3.454
      vertex 3.875 34.571 3.907
      vertex 3.875 32.9 4.4
    endloop
  endfacet
  facet normal 1 -1.36718e-016 1.22461e-016
    outer loop
      vertex 3.875 39.6 4.4
      vertex 3.875 38 4.4
      vertex 3.875 37.925 1.49882
    endloop
  endfacet
  facet normal 1 -1.36718e-016 1.22461e-016
    outer loop
      vertex 3.875 36.001 2.668
      vertex 3.875 35.523 2.808
      vertex 3.875 37.925 1.49882
    endloop
  endfacet
  facet normal 1 -1.36718e-016 1.22461e-016
    outer loop
      vertex 3.875 34.5 4.4
      vertex 3.875 34.571 4.893
      vertex 3.875 32.9 4.4
    endloop
  endfacet
  facet normal 1 -1.36718e-016 1.22461e-016
    outer loop
      vertex 3.875 34.575 7.30119
      vertex 3.875 32.9 4.4
      vertex 3.875 35.013 5.637
    endloop
  endfacet
  facet normal 1 -1.36718e-016 1.22461e-016
    outer loop
      vertex 3.875 34.575 7.30119
      vertex 3.875 35.526 6.15
      vertex 3.875 37.925 7.30119
    endloop
  endfacet
  facet normal 1 -1.36718e-016 1.22461e-016
    outer loop
      vertex 3.875 34.575 7.30119
      vertex 3.875 35.013 5.637
      vertex 3.875 35.526 6.15
    endloop
  endfacet
  facet normal 1 -1.36718e-016 1.22461e-016
    outer loop
      vertex 3.875 37.925 7.30119
      vertex 3.875 36.974 6.15
      vertex 3.875 39.6 4.4
    endloop
  endfacet
  facet normal 1 -1.36718e-016 1.22461e-016
    outer loop
      vertex 3.875 36.974 6.15
      vertex 3.875 37.487 5.637
      vertex 3.875 39.6 4.4
    endloop
  endfacet
  facet normal 1 -1.36718e-016 1.22461e-016
    outer loop
      vertex 3.875 37.487 5.637
      vertex 3.875 37.478 5.628
      vertex 3.875 39.6 4.4
    endloop
  endfacet
  facet normal 1 -1.36718e-016 1.22461e-016
    outer loop
      vertex 3.875 34.571 4.893
      vertex 3.875 34.778 5.346
      vertex 3.875 32.9 4.4
    endloop
  endfacet
  facet normal 1 -1.36718e-016 1.22461e-016
    outer loop
      vertex 3.875 37.478 5.628
      vertex 3.875 37.722 5.346
      vertex 3.875 39.6 4.4
    endloop
  endfacet
  facet normal 1 -1.36718e-016 1.22461e-016
    outer loop
      vertex 3.875 37.722 5.346
      vertex 3.875 37.929 4.893
      vertex 3.875 39.6 4.4
    endloop
  endfacet
  facet normal 1 -1.36718e-016 1.22461e-016
    outer loop
      vertex 3.875 37.929 4.893
      vertex 3.875 38 4.4
      vertex 3.875 39.6 4.4
    endloop
  endfacet
  facet normal 1 -1.36718e-016 1.22461e-016
    outer loop
      vertex 3.875 38 4.4
      vertex 3.875 37.929 3.907
      vertex 3.875 37.925 1.49882
    endloop
  endfacet
  facet normal 1 -1.36718e-016 1.22461e-016
    outer loop
      vertex 3.875 37.929 3.907
      vertex 3.875 37.722 3.454
      vertex 3.875 37.925 1.49882
    endloop
  endfacet
  facet normal 1 -1.36718e-016 1.22461e-016
    outer loop
      vertex 3.875 37.722 3.454
      vertex 3.875 37.396 3.077
      vertex 3.875 37.925 1.49882
    endloop
  endfacet
  facet normal 1 -1.36718e-016 1.22461e-016
    outer loop
      vertex 3.875 37.396 3.077
      vertex 3.875 36.977 2.808
      vertex 3.875 37.925 1.49882
    endloop
  endfacet
  facet normal 1 -1.36718e-016 1.22461e-016
    outer loop
      vertex 3.875 36.977 2.808
      vertex 3.875 36.499 2.668
      vertex 3.875 37.925 1.49882
    endloop
  endfacet
  facet normal 1 -1.36718e-016 1.22461e-016
    outer loop
      vertex 3.875 36.499 2.668
      vertex 3.875 36.001 2.668
      vertex 3.875 37.925 1.49882
    endloop
  endfacet
  facet normal 1 -1.36718e-016 1.22461e-016
    outer loop
      vertex 3.875 32.9 4.4
      vertex 3.875 34.575 1.49882
      vertex 3.875 35.523 2.808
    endloop
  endfacet
  facet normal 1 -1.36718e-016 1.22461e-016
    outer loop
      vertex 3.875 35.104 3.077
      vertex 3.875 34.778 3.454
      vertex 3.875 32.9 4.4
    endloop
  endfacet
  facet normal 1 -1.36718e-016 1.22461e-016
    outer loop
      vertex 3.875 32.9 4.4
      vertex 3.875 35.523 2.808
      vertex 3.875 35.104 3.077
    endloop
  endfacet
  facet normal 1 -1.36718e-016 1.22461e-016
    outer loop
      vertex 3.875 34.571 3.907
      vertex 3.875 34.5 4.4
      vertex 3.875 32.9 4.4
    endloop
  endfacet
  facet normal 1 -1.36718e-016 1.22461e-016
    outer loop
      vertex 3.875 35.013 5.637
      vertex 3.875 32.9 4.4
      vertex 3.875 35.022 5.628
    endloop
  endfacet
  facet normal 1 -1.36718e-016 1.22461e-016
    outer loop
      vertex 3.875 34.778 5.346
      vertex 3.875 35.022 5.628
      vertex 3.875 32.9 4.4
    endloop
  endfacet
  facet normal 1 -1.36718e-016 1.22461e-016
    outer loop
      vertex 3.875 35.526 6.15
      vertex 3.875 36.974 6.15
      vertex 3.875 37.925 7.30119
    endloop
  endfacet
endsolid OpenSCAD_Model
